G04 #@! TF.GenerationSoftware,KiCad,Pcbnew,7.0.1-0*
G04 #@! TF.CreationDate,2023-08-21T12:14:01+02:00*
G04 #@! TF.ProjectId,ghost,67686f73-742e-46b6-9963-61645f706362,rev?*
G04 #@! TF.SameCoordinates,Original*
G04 #@! TF.FileFunction,Paste,Top*
G04 #@! TF.FilePolarity,Positive*
%FSLAX46Y46*%
G04 Gerber Fmt 4.6, Leading zero omitted, Abs format (unit mm)*
G04 Created by KiCad (PCBNEW 7.0.1-0) date 2023-08-21 12:14:01*
%MOMM*%
%LPD*%
G01*
G04 APERTURE LIST*
G04 Aperture macros list*
%AMRoundRect*
0 Rectangle with rounded corners*
0 $1 Rounding radius*
0 $2 $3 $4 $5 $6 $7 $8 $9 X,Y pos of 4 corners*
0 Add a 4 corners polygon primitive as box body*
4,1,4,$2,$3,$4,$5,$6,$7,$8,$9,$2,$3,0*
0 Add four circle primitives for the rounded corners*
1,1,$1+$1,$2,$3*
1,1,$1+$1,$4,$5*
1,1,$1+$1,$6,$7*
1,1,$1+$1,$8,$9*
0 Add four rect primitives between the rounded corners*
20,1,$1+$1,$2,$3,$4,$5,0*
20,1,$1+$1,$4,$5,$6,$7,0*
20,1,$1+$1,$6,$7,$8,$9,0*
20,1,$1+$1,$8,$9,$2,$3,0*%
G04 Aperture macros list end*
%ADD10RoundRect,0.250000X-0.325000X-0.450000X0.325000X-0.450000X0.325000X0.450000X-0.325000X0.450000X0*%
%ADD11RoundRect,0.250000X-0.350000X-0.450000X0.350000X-0.450000X0.350000X0.450000X-0.350000X0.450000X0*%
G04 APERTURE END LIST*
D10*
X136815000Y-112160000D03*
X138865000Y-112160000D03*
X136397500Y-100560000D03*
X138447500Y-100560000D03*
D11*
X153330000Y-104620000D03*
X151330000Y-104620000D03*
X164090000Y-101850000D03*
X166090000Y-101850000D03*
X136880000Y-114980000D03*
X138880000Y-114980000D03*
D10*
X145785000Y-72320000D03*
X147835000Y-72320000D03*
D11*
X139700000Y-94580000D03*
X141700000Y-94580000D03*
X140670000Y-81850000D03*
X142670000Y-81850000D03*
X164920000Y-93860000D03*
X166920000Y-93860000D03*
D10*
X151365000Y-101980000D03*
X153415000Y-101980000D03*
D11*
X157980000Y-78330000D03*
X159980000Y-78330000D03*
D10*
X164087500Y-99020000D03*
X166137500Y-99020000D03*
X155437500Y-75820000D03*
X157487500Y-75820000D03*
X152597500Y-111280000D03*
X154647500Y-111280000D03*
D11*
X152570000Y-114180000D03*
X154570000Y-114180000D03*
X150780000Y-89940000D03*
X152780000Y-89940000D03*
D10*
X164935000Y-91360000D03*
X166985000Y-91360000D03*
X139655000Y-92020000D03*
X141705000Y-92020000D03*
D11*
X136350000Y-102970000D03*
X138350000Y-102970000D03*
X165770000Y-116290000D03*
X167770000Y-116290000D03*
D10*
X140667500Y-79430000D03*
X142717500Y-79430000D03*
D11*
X145810000Y-74850000D03*
X147810000Y-74850000D03*
D10*
X150815000Y-87090000D03*
X152865000Y-87090000D03*
X165837500Y-113250000D03*
X167887500Y-113250000D03*
M02*
