G04 #@! TF.GenerationSoftware,KiCad,Pcbnew,7.0.1-0*
G04 #@! TF.CreationDate,2023-08-21T12:14:01+02:00*
G04 #@! TF.ProjectId,ghost,67686f73-742e-46b6-9963-61645f706362,rev?*
G04 #@! TF.SameCoordinates,Original*
G04 #@! TF.FileFunction,Legend,Bot*
G04 #@! TF.FilePolarity,Positive*
%FSLAX46Y46*%
G04 Gerber Fmt 4.6, Leading zero omitted, Abs format (unit mm)*
G04 Created by KiCad (PCBNEW 7.0.1-0) date 2023-08-21 12:14:01*
%MOMM*%
%LPD*%
G01*
G04 APERTURE LIST*
%ADD10C,0.200000*%
%ADD11C,0.125000*%
%ADD12C,0.150000*%
%ADD13C,0.100000*%
%ADD14R,2.560000X6.100000*%
%ADD15C,17.000000*%
%ADD16C,0.001000*%
%ADD17R,1.250000X0.900000*%
%ADD18R,0.900000X0.800000*%
G04 APERTURE END LIST*
D10*
X157200952Y-116752095D02*
X157200952Y-117323523D01*
X157200952Y-117323523D02*
X157239047Y-117437809D01*
X157239047Y-117437809D02*
X157315238Y-117514000D01*
X157315238Y-117514000D02*
X157429523Y-117552095D01*
X157429523Y-117552095D02*
X157505714Y-117552095D01*
X156439047Y-117552095D02*
X156819999Y-117552095D01*
X156819999Y-117552095D02*
X156819999Y-116752095D01*
X155715237Y-117475904D02*
X155753333Y-117514000D01*
X155753333Y-117514000D02*
X155867618Y-117552095D01*
X155867618Y-117552095D02*
X155943809Y-117552095D01*
X155943809Y-117552095D02*
X156058095Y-117514000D01*
X156058095Y-117514000D02*
X156134285Y-117437809D01*
X156134285Y-117437809D02*
X156172380Y-117361619D01*
X156172380Y-117361619D02*
X156210476Y-117209238D01*
X156210476Y-117209238D02*
X156210476Y-117094952D01*
X156210476Y-117094952D02*
X156172380Y-116942571D01*
X156172380Y-116942571D02*
X156134285Y-116866380D01*
X156134285Y-116866380D02*
X156058095Y-116790190D01*
X156058095Y-116790190D02*
X155943809Y-116752095D01*
X155943809Y-116752095D02*
X155867618Y-116752095D01*
X155867618Y-116752095D02*
X155753333Y-116790190D01*
X155753333Y-116790190D02*
X155715237Y-116828285D01*
X155143809Y-116752095D02*
X155143809Y-117323523D01*
X155143809Y-117323523D02*
X155181904Y-117437809D01*
X155181904Y-117437809D02*
X155258095Y-117514000D01*
X155258095Y-117514000D02*
X155372380Y-117552095D01*
X155372380Y-117552095D02*
X155448571Y-117552095D01*
X154381904Y-117552095D02*
X154762856Y-117552095D01*
X154762856Y-117552095D02*
X154762856Y-116752095D01*
X153658094Y-117475904D02*
X153696190Y-117514000D01*
X153696190Y-117514000D02*
X153810475Y-117552095D01*
X153810475Y-117552095D02*
X153886666Y-117552095D01*
X153886666Y-117552095D02*
X154000952Y-117514000D01*
X154000952Y-117514000D02*
X154077142Y-117437809D01*
X154077142Y-117437809D02*
X154115237Y-117361619D01*
X154115237Y-117361619D02*
X154153333Y-117209238D01*
X154153333Y-117209238D02*
X154153333Y-117094952D01*
X154153333Y-117094952D02*
X154115237Y-116942571D01*
X154115237Y-116942571D02*
X154077142Y-116866380D01*
X154077142Y-116866380D02*
X154000952Y-116790190D01*
X154000952Y-116790190D02*
X153886666Y-116752095D01*
X153886666Y-116752095D02*
X153810475Y-116752095D01*
X153810475Y-116752095D02*
X153696190Y-116790190D01*
X153696190Y-116790190D02*
X153658094Y-116828285D01*
X153086666Y-116752095D02*
X153086666Y-117323523D01*
X153086666Y-117323523D02*
X153124761Y-117437809D01*
X153124761Y-117437809D02*
X153200952Y-117514000D01*
X153200952Y-117514000D02*
X153315237Y-117552095D01*
X153315237Y-117552095D02*
X153391428Y-117552095D01*
X152324761Y-117552095D02*
X152705713Y-117552095D01*
X152705713Y-117552095D02*
X152705713Y-116752095D01*
X151600951Y-117475904D02*
X151639047Y-117514000D01*
X151639047Y-117514000D02*
X151753332Y-117552095D01*
X151753332Y-117552095D02*
X151829523Y-117552095D01*
X151829523Y-117552095D02*
X151943809Y-117514000D01*
X151943809Y-117514000D02*
X152019999Y-117437809D01*
X152019999Y-117437809D02*
X152058094Y-117361619D01*
X152058094Y-117361619D02*
X152096190Y-117209238D01*
X152096190Y-117209238D02*
X152096190Y-117094952D01*
X152096190Y-117094952D02*
X152058094Y-116942571D01*
X152058094Y-116942571D02*
X152019999Y-116866380D01*
X152019999Y-116866380D02*
X151943809Y-116790190D01*
X151943809Y-116790190D02*
X151829523Y-116752095D01*
X151829523Y-116752095D02*
X151753332Y-116752095D01*
X151753332Y-116752095D02*
X151639047Y-116790190D01*
X151639047Y-116790190D02*
X151600951Y-116828285D01*
X151029523Y-116752095D02*
X151029523Y-117323523D01*
X151029523Y-117323523D02*
X151067618Y-117437809D01*
X151067618Y-117437809D02*
X151143809Y-117514000D01*
X151143809Y-117514000D02*
X151258094Y-117552095D01*
X151258094Y-117552095D02*
X151334285Y-117552095D01*
X150267618Y-117552095D02*
X150648570Y-117552095D01*
X150648570Y-117552095D02*
X150648570Y-116752095D01*
X149543808Y-117475904D02*
X149581904Y-117514000D01*
X149581904Y-117514000D02*
X149696189Y-117552095D01*
X149696189Y-117552095D02*
X149772380Y-117552095D01*
X149772380Y-117552095D02*
X149886666Y-117514000D01*
X149886666Y-117514000D02*
X149962856Y-117437809D01*
X149962856Y-117437809D02*
X150000951Y-117361619D01*
X150000951Y-117361619D02*
X150039047Y-117209238D01*
X150039047Y-117209238D02*
X150039047Y-117094952D01*
X150039047Y-117094952D02*
X150000951Y-116942571D01*
X150000951Y-116942571D02*
X149962856Y-116866380D01*
X149962856Y-116866380D02*
X149886666Y-116790190D01*
X149886666Y-116790190D02*
X149772380Y-116752095D01*
X149772380Y-116752095D02*
X149696189Y-116752095D01*
X149696189Y-116752095D02*
X149581904Y-116790190D01*
X149581904Y-116790190D02*
X149543808Y-116828285D01*
D11*
X141393092Y-76725585D02*
X140659482Y-76569652D01*
X141326264Y-77039990D02*
X140941991Y-76958310D01*
X140941991Y-76958310D02*
X140879549Y-76908526D01*
X140879549Y-76908526D02*
X140859466Y-76831233D01*
X140859466Y-76831233D02*
X140881742Y-76726431D01*
X140881742Y-76726431D02*
X140931527Y-76663989D01*
X140931527Y-76663989D02*
X140973886Y-76636480D01*
X140785212Y-77180571D02*
X140725809Y-77460041D01*
X140518399Y-77233394D02*
X141147208Y-77367052D01*
X141147208Y-77367052D02*
X141209650Y-77416836D01*
X141209650Y-77416836D02*
X141229733Y-77494130D01*
X141229733Y-77494130D02*
X141214883Y-77563997D01*
X140696107Y-77599776D02*
X140636704Y-77879247D01*
X140429294Y-77652600D02*
X141058103Y-77786257D01*
X141058103Y-77786257D02*
X141120545Y-77836042D01*
X141120545Y-77836042D02*
X141140628Y-77913335D01*
X141140628Y-77913335D02*
X141125778Y-77983203D01*
X140584726Y-78123784D02*
X141318337Y-78279717D01*
X140619660Y-78131209D02*
X140569875Y-78193651D01*
X140569875Y-78193651D02*
X140540173Y-78333387D01*
X140540173Y-78333387D02*
X140560256Y-78410680D01*
X140560256Y-78410680D02*
X140587765Y-78453039D01*
X140587765Y-78453039D02*
X140650207Y-78502824D01*
X140650207Y-78502824D02*
X140859810Y-78547376D01*
X140859810Y-78547376D02*
X140937103Y-78527293D01*
X140937103Y-78527293D02*
X140979463Y-78499785D01*
X140979463Y-78499785D02*
X141029247Y-78437342D01*
X141029247Y-78437342D02*
X141058949Y-78297607D01*
X141058949Y-78297607D02*
X141038866Y-78220314D01*
X140905208Y-78849123D02*
X140925291Y-78926416D01*
X140925291Y-78926416D02*
X140895590Y-79066151D01*
X140895590Y-79066151D02*
X140845805Y-79128593D01*
X140845805Y-79128593D02*
X140768512Y-79148676D01*
X140768512Y-79148676D02*
X140733578Y-79141251D01*
X140733578Y-79141251D02*
X140671136Y-79091466D01*
X140671136Y-79091466D02*
X140651053Y-79014173D01*
X140651053Y-79014173D02*
X140673329Y-78909372D01*
X140673329Y-78909372D02*
X140653246Y-78832079D01*
X140653246Y-78832079D02*
X140590804Y-78782294D01*
X140590804Y-78782294D02*
X140555870Y-78774869D01*
X140555870Y-78774869D02*
X140478577Y-78794952D01*
X140478577Y-78794952D02*
X140428792Y-78857394D01*
X140428792Y-78857394D02*
X140406516Y-78962195D01*
X140406516Y-78962195D02*
X140426599Y-79039488D01*
X140736617Y-79470507D02*
X140764126Y-79512866D01*
X140764126Y-79512866D02*
X140806485Y-79485357D01*
X140806485Y-79485357D02*
X140778976Y-79442998D01*
X140778976Y-79442998D02*
X140736617Y-79470507D01*
X140736617Y-79470507D02*
X140806485Y-79485357D01*
X140352345Y-79388827D02*
X140379853Y-79431186D01*
X140379853Y-79431186D02*
X140422213Y-79403678D01*
X140422213Y-79403678D02*
X140394704Y-79361319D01*
X140394704Y-79361319D02*
X140352345Y-79388827D01*
X140352345Y-79388827D02*
X140422213Y-79403678D01*
X139852305Y-80195344D02*
X140929176Y-79767022D01*
X139688946Y-80963889D02*
X140765817Y-80535566D01*
X139849610Y-81582233D02*
X140443485Y-81708465D01*
X140443485Y-81708465D02*
X140520778Y-81688382D01*
X140520778Y-81688382D02*
X140563137Y-81660874D01*
X140563137Y-81660874D02*
X140612922Y-81598432D01*
X140612922Y-81598432D02*
X140635198Y-81493630D01*
X140635198Y-81493630D02*
X140615115Y-81416337D01*
X140303750Y-81678764D02*
X140353534Y-81616321D01*
X140353534Y-81616321D02*
X140383236Y-81476586D01*
X140383236Y-81476586D02*
X140363153Y-81399293D01*
X140363153Y-81399293D02*
X140335645Y-81356934D01*
X140335645Y-81356934D02*
X140273202Y-81307149D01*
X140273202Y-81307149D02*
X140063599Y-81262597D01*
X140063599Y-81262597D02*
X139986306Y-81282680D01*
X139986306Y-81282680D02*
X139943947Y-81310188D01*
X139943947Y-81310188D02*
X139894162Y-81372630D01*
X139894162Y-81372630D02*
X139864461Y-81512366D01*
X139864461Y-81512366D02*
X139884544Y-81589659D01*
X140264429Y-82035527D02*
X139775356Y-81931571D01*
X139530819Y-81879593D02*
X139573178Y-81852085D01*
X139573178Y-81852085D02*
X139600686Y-81894444D01*
X139600686Y-81894444D02*
X139558327Y-81921953D01*
X139558327Y-81921953D02*
X139530819Y-81879593D01*
X139530819Y-81879593D02*
X139600686Y-81894444D01*
X139723378Y-82176108D02*
X139663974Y-82455579D01*
X139456565Y-82228932D02*
X140085374Y-82362589D01*
X140085374Y-82362589D02*
X140147816Y-82412374D01*
X140147816Y-82412374D02*
X140167899Y-82489667D01*
X140167899Y-82489667D02*
X140153048Y-82559535D01*
X140101070Y-82804071D02*
X139367460Y-82648138D01*
X140034242Y-83118476D02*
X139649969Y-83036796D01*
X139649969Y-83036796D02*
X139587527Y-82987012D01*
X139587527Y-82987012D02*
X139567444Y-82909719D01*
X139567444Y-82909719D02*
X139589720Y-82804917D01*
X139589720Y-82804917D02*
X139639505Y-82742475D01*
X139639505Y-82742475D02*
X139681864Y-82714966D01*
X139404085Y-83678263D02*
X139893159Y-83782219D01*
X139470914Y-83363858D02*
X139855186Y-83445538D01*
X139855186Y-83445538D02*
X139917628Y-83495322D01*
X139917628Y-83495322D02*
X139937711Y-83572616D01*
X139937711Y-83572616D02*
X139915435Y-83677417D01*
X139915435Y-83677417D02*
X139865650Y-83739859D01*
X139865650Y-83739859D02*
X139823291Y-83767368D01*
X139818905Y-84131557D02*
X139085294Y-83975623D01*
X139364765Y-84035026D02*
X139314980Y-84097468D01*
X139314980Y-84097468D02*
X139285278Y-84237204D01*
X139285278Y-84237204D02*
X139305361Y-84314497D01*
X139305361Y-84314497D02*
X139332870Y-84356856D01*
X139332870Y-84356856D02*
X139395312Y-84406641D01*
X139395312Y-84406641D02*
X139604915Y-84451193D01*
X139604915Y-84451193D02*
X139682208Y-84431110D01*
X139682208Y-84431110D02*
X139724567Y-84403602D01*
X139724567Y-84403602D02*
X139774352Y-84341160D01*
X139774352Y-84341160D02*
X139804054Y-84201424D01*
X139804054Y-84201424D02*
X139783971Y-84124131D01*
X139607954Y-84780448D02*
X139635463Y-84822808D01*
X139635463Y-84822808D02*
X139677822Y-84795299D01*
X139677822Y-84795299D02*
X139650313Y-84752940D01*
X139650313Y-84752940D02*
X139607954Y-84780448D01*
X139607954Y-84780448D02*
X139677822Y-84795299D01*
X139501805Y-85451617D02*
X139551590Y-85389175D01*
X139551590Y-85389175D02*
X139581291Y-85249439D01*
X139581291Y-85249439D02*
X139561208Y-85172146D01*
X139561208Y-85172146D02*
X139533700Y-85129787D01*
X139533700Y-85129787D02*
X139471258Y-85080002D01*
X139471258Y-85080002D02*
X139261655Y-85035450D01*
X139261655Y-85035450D02*
X139184361Y-85055533D01*
X139184361Y-85055533D02*
X139142002Y-85083041D01*
X139142002Y-85083041D02*
X139092218Y-85145483D01*
X139092218Y-85145483D02*
X139062516Y-85285219D01*
X139062516Y-85285219D02*
X139082599Y-85362512D01*
X139447634Y-85878248D02*
X139427551Y-85800955D01*
X139427551Y-85800955D02*
X139400042Y-85758596D01*
X139400042Y-85758596D02*
X139337600Y-85708811D01*
X139337600Y-85708811D02*
X139127997Y-85664259D01*
X139127997Y-85664259D02*
X139050704Y-85684342D01*
X139050704Y-85684342D02*
X139008345Y-85711850D01*
X139008345Y-85711850D02*
X138958560Y-85774292D01*
X138958560Y-85774292D02*
X138936284Y-85879094D01*
X138936284Y-85879094D02*
X138956367Y-85956387D01*
X138956367Y-85956387D02*
X138983875Y-85998746D01*
X138983875Y-85998746D02*
X139046318Y-86048531D01*
X139046318Y-86048531D02*
X139255921Y-86093084D01*
X139255921Y-86093084D02*
X139333214Y-86073001D01*
X139333214Y-86073001D02*
X139375573Y-86045492D01*
X139375573Y-86045492D02*
X139425358Y-85983050D01*
X139425358Y-85983050D02*
X139447634Y-85878248D01*
X139328827Y-86437189D02*
X138839753Y-86333234D01*
X138909621Y-86348084D02*
X138867262Y-86375593D01*
X138867262Y-86375593D02*
X138817477Y-86438035D01*
X138817477Y-86438035D02*
X138795201Y-86542837D01*
X138795201Y-86542837D02*
X138815284Y-86620130D01*
X138815284Y-86620130D02*
X138877726Y-86669914D01*
X138877726Y-86669914D02*
X139261999Y-86751594D01*
X138877726Y-86669914D02*
X138800433Y-86689997D01*
X138800433Y-86689997D02*
X138750648Y-86752440D01*
X138750648Y-86752440D02*
X138728372Y-86857241D01*
X138728372Y-86857241D02*
X138748455Y-86934534D01*
X138748455Y-86934534D02*
X138810897Y-86984319D01*
X138810897Y-86984319D02*
X139195170Y-87065999D01*
X138240990Y-87775985D02*
X139317861Y-87347663D01*
X138401654Y-88394330D02*
X138995529Y-88520562D01*
X138995529Y-88520562D02*
X139072822Y-88500479D01*
X139072822Y-88500479D02*
X139115182Y-88472971D01*
X139115182Y-88472971D02*
X139164966Y-88410528D01*
X139164966Y-88410528D02*
X139187243Y-88305727D01*
X139187243Y-88305727D02*
X139167160Y-88228434D01*
X138855794Y-88490860D02*
X138905579Y-88428418D01*
X138905579Y-88428418D02*
X138935280Y-88288683D01*
X138935280Y-88288683D02*
X138915197Y-88211390D01*
X138915197Y-88211390D02*
X138887689Y-88169030D01*
X138887689Y-88169030D02*
X138825247Y-88119246D01*
X138825247Y-88119246D02*
X138615643Y-88074693D01*
X138615643Y-88074693D02*
X138538350Y-88094776D01*
X138538350Y-88094776D02*
X138495991Y-88122285D01*
X138495991Y-88122285D02*
X138446206Y-88184727D01*
X138446206Y-88184727D02*
X138416505Y-88324462D01*
X138416505Y-88324462D02*
X138436588Y-88401755D01*
X138327400Y-88743668D02*
X138956209Y-88877326D01*
X138956209Y-88877326D02*
X139033502Y-88857243D01*
X139033502Y-88857243D02*
X139083287Y-88794800D01*
X139083287Y-88794800D02*
X139090712Y-88759866D01*
X138082863Y-88691690D02*
X138125222Y-88664182D01*
X138125222Y-88664182D02*
X138152731Y-88706541D01*
X138152731Y-88706541D02*
X138110371Y-88734049D01*
X138110371Y-88734049D02*
X138082863Y-88691690D01*
X138082863Y-88691690D02*
X138152731Y-88706541D01*
X138719943Y-89301764D02*
X138699860Y-89224471D01*
X138699860Y-89224471D02*
X138637418Y-89174686D01*
X138637418Y-89174686D02*
X138008609Y-89041029D01*
X138171466Y-89477279D02*
X138905077Y-89633212D01*
X138206400Y-89484704D02*
X138156615Y-89547146D01*
X138156615Y-89547146D02*
X138126914Y-89686882D01*
X138126914Y-89686882D02*
X138146997Y-89764175D01*
X138146997Y-89764175D02*
X138174505Y-89806534D01*
X138174505Y-89806534D02*
X138236947Y-89856319D01*
X138236947Y-89856319D02*
X138446550Y-89900871D01*
X138446550Y-89900871D02*
X138523843Y-89880788D01*
X138523843Y-89880788D02*
X138566203Y-89853280D01*
X138566203Y-89853280D02*
X138615987Y-89790838D01*
X138615987Y-89790838D02*
X138645689Y-89651102D01*
X138645689Y-89651102D02*
X138625606Y-89573809D01*
X137863139Y-90068960D02*
X137820780Y-90096469D01*
X137820780Y-90096469D02*
X137770995Y-90158911D01*
X137770995Y-90158911D02*
X137733868Y-90333580D01*
X137733868Y-90333580D02*
X137753951Y-90410873D01*
X137753951Y-90410873D02*
X137781460Y-90453233D01*
X137781460Y-90453233D02*
X137843902Y-90503017D01*
X137843902Y-90503017D02*
X137913770Y-90517868D01*
X137913770Y-90517868D02*
X138025997Y-90505211D01*
X138025997Y-90505211D02*
X138534308Y-90175109D01*
X138534308Y-90175109D02*
X138437777Y-90629249D01*
X137563084Y-91137059D02*
X137637338Y-90787721D01*
X137637338Y-90787721D02*
X137994102Y-90827041D01*
X137994102Y-90827041D02*
X137951742Y-90854549D01*
X137951742Y-90854549D02*
X137901958Y-90916992D01*
X137901958Y-90916992D02*
X137864831Y-91091661D01*
X137864831Y-91091661D02*
X137884914Y-91168954D01*
X137884914Y-91168954D02*
X137912422Y-91211313D01*
X137912422Y-91211313D02*
X137974864Y-91261098D01*
X137974864Y-91261098D02*
X138149534Y-91298225D01*
X138149534Y-91298225D02*
X138226827Y-91278142D01*
X138226827Y-91278142D02*
X138269186Y-91250633D01*
X138269186Y-91250633D02*
X138318971Y-91188191D01*
X138318971Y-91188191D02*
X138356098Y-91013522D01*
X138356098Y-91013522D02*
X138336015Y-90936229D01*
X138336015Y-90936229D02*
X138308506Y-90893870D01*
X137342514Y-92002980D02*
X138419386Y-91574657D01*
X138059081Y-92410876D02*
X137325470Y-92254942D01*
X137969976Y-92830082D02*
X137617599Y-92426572D01*
X137236365Y-92674148D02*
X137744676Y-92344047D01*
X137903147Y-93144486D02*
X137414073Y-93040531D01*
X137169537Y-92988553D02*
X137211896Y-92961044D01*
X137211896Y-92961044D02*
X137239404Y-93003403D01*
X137239404Y-93003403D02*
X137197045Y-93030912D01*
X137197045Y-93030912D02*
X137169537Y-92988553D01*
X137169537Y-92988553D02*
X137239404Y-93003403D01*
X137669920Y-93898180D02*
X137712280Y-93870672D01*
X137712280Y-93870672D02*
X137769490Y-93773296D01*
X137769490Y-93773296D02*
X137784341Y-93703428D01*
X137784341Y-93703428D02*
X137771683Y-93591201D01*
X137771683Y-93591201D02*
X137716666Y-93506483D01*
X137716666Y-93506483D02*
X137654224Y-93456698D01*
X137654224Y-93456698D02*
X137521914Y-93392062D01*
X137521914Y-93392062D02*
X137417112Y-93369786D01*
X137417112Y-93369786D02*
X137269952Y-93375018D01*
X137269952Y-93375018D02*
X137192659Y-93395101D01*
X137192659Y-93395101D02*
X137107940Y-93450118D01*
X137107940Y-93450118D02*
X137050730Y-93547494D01*
X137050730Y-93547494D02*
X137035879Y-93617362D01*
X137035879Y-93617362D02*
X137048537Y-93729589D01*
X137048537Y-93729589D02*
X137076045Y-93771948D01*
X137606131Y-94541840D02*
X137221858Y-94460161D01*
X137221858Y-94460161D02*
X137159416Y-94410376D01*
X137159416Y-94410376D02*
X137139333Y-94333083D01*
X137139333Y-94333083D02*
X137169035Y-94193347D01*
X137169035Y-94193347D02*
X137218819Y-94130905D01*
X137571197Y-94534415D02*
X137620981Y-94471973D01*
X137620981Y-94471973D02*
X137658108Y-94297303D01*
X137658108Y-94297303D02*
X137638025Y-94220010D01*
X137638025Y-94220010D02*
X137575583Y-94170226D01*
X137575583Y-94170226D02*
X137505716Y-94155375D01*
X137505716Y-94155375D02*
X137428422Y-94175458D01*
X137428422Y-94175458D02*
X137378638Y-94237900D01*
X137378638Y-94237900D02*
X137341511Y-94412569D01*
X137341511Y-94412569D02*
X137291726Y-94475011D01*
X137465048Y-95205583D02*
X136731437Y-95049649D01*
X137430114Y-95198157D02*
X137479899Y-95135715D01*
X137479899Y-95135715D02*
X137509600Y-94995980D01*
X137509600Y-94995980D02*
X137489517Y-94918687D01*
X137489517Y-94918687D02*
X137462009Y-94876327D01*
X137462009Y-94876327D02*
X137399567Y-94826543D01*
X137399567Y-94826543D02*
X137189963Y-94781990D01*
X137189963Y-94781990D02*
X137112670Y-94802073D01*
X137112670Y-94802073D02*
X137070311Y-94829582D01*
X137070311Y-94829582D02*
X137020526Y-94892024D01*
X137020526Y-94892024D02*
X136990825Y-95031759D01*
X136990825Y-95031759D02*
X137010908Y-95109052D01*
X137497788Y-95395102D02*
X137378982Y-95954044D01*
X136491630Y-96349627D02*
X136471547Y-96272334D01*
X136471547Y-96272334D02*
X136493824Y-96167532D01*
X136493824Y-96167532D02*
X136551034Y-96070156D01*
X136551034Y-96070156D02*
X136635752Y-96015139D01*
X136635752Y-96015139D02*
X136713045Y-95995056D01*
X136713045Y-95995056D02*
X136860206Y-95989824D01*
X136860206Y-95989824D02*
X136965008Y-96012100D01*
X136965008Y-96012100D02*
X137097318Y-96076736D01*
X137097318Y-96076736D02*
X137159760Y-96126520D01*
X137159760Y-96126520D02*
X137214777Y-96211239D01*
X137214777Y-96211239D02*
X137227434Y-96323466D01*
X137227434Y-96323466D02*
X137212584Y-96393333D01*
X137212584Y-96393333D02*
X137155373Y-96490710D01*
X137155373Y-96490710D02*
X137113014Y-96518218D01*
X137113014Y-96518218D02*
X136868477Y-96466240D01*
X136868477Y-96466240D02*
X136898179Y-96326505D01*
X137116053Y-96847473D02*
X136382442Y-96691540D01*
X137049224Y-97161878D02*
X136664952Y-97080198D01*
X136664952Y-97080198D02*
X136602510Y-97030414D01*
X136602510Y-97030414D02*
X136582427Y-96953121D01*
X136582427Y-96953121D02*
X136604703Y-96848319D01*
X136604703Y-96848319D02*
X136654488Y-96785877D01*
X136654488Y-96785877D02*
X136696847Y-96758368D01*
X136952694Y-97616018D02*
X136932611Y-97538724D01*
X136932611Y-97538724D02*
X136905103Y-97496365D01*
X136905103Y-97496365D02*
X136842660Y-97446581D01*
X136842660Y-97446581D02*
X136633057Y-97402028D01*
X136633057Y-97402028D02*
X136555764Y-97422111D01*
X136555764Y-97422111D02*
X136513405Y-97449619D01*
X136513405Y-97449619D02*
X136463620Y-97512062D01*
X136463620Y-97512062D02*
X136441344Y-97616863D01*
X136441344Y-97616863D02*
X136461427Y-97694156D01*
X136461427Y-97694156D02*
X136488935Y-97736516D01*
X136488935Y-97736516D02*
X136551378Y-97786300D01*
X136551378Y-97786300D02*
X136760981Y-97830853D01*
X136760981Y-97830853D02*
X136838274Y-97810770D01*
X136838274Y-97810770D02*
X136880633Y-97783261D01*
X136880633Y-97783261D02*
X136930418Y-97720819D01*
X136930418Y-97720819D02*
X136952694Y-97616018D01*
X136806379Y-98132599D02*
X136826462Y-98209892D01*
X136826462Y-98209892D02*
X136796760Y-98349628D01*
X136796760Y-98349628D02*
X136746976Y-98412070D01*
X136746976Y-98412070D02*
X136669683Y-98432153D01*
X136669683Y-98432153D02*
X136634749Y-98424728D01*
X136634749Y-98424728D02*
X136572306Y-98374943D01*
X136572306Y-98374943D02*
X136552223Y-98297650D01*
X136552223Y-98297650D02*
X136574500Y-98192848D01*
X136574500Y-98192848D02*
X136554417Y-98115555D01*
X136554417Y-98115555D02*
X136491974Y-98065771D01*
X136491974Y-98065771D02*
X136457041Y-98058345D01*
X136457041Y-98058345D02*
X136379747Y-98078428D01*
X136379747Y-98078428D02*
X136329963Y-98140870D01*
X136329963Y-98140870D02*
X136307687Y-98245672D01*
X136307687Y-98245672D02*
X136327770Y-98322965D01*
X136240858Y-98560077D02*
X136181454Y-98839547D01*
X135974045Y-98612900D02*
X136602854Y-98746558D01*
X136602854Y-98746558D02*
X136665296Y-98796343D01*
X136665296Y-98796343D02*
X136685379Y-98873636D01*
X136685379Y-98873636D02*
X136670528Y-98943503D01*
X136144327Y-99014216D02*
X136596274Y-99292841D01*
X136070073Y-99363555D02*
X136596274Y-99292841D01*
X136596274Y-99292841D02*
X136785794Y-99260101D01*
X136785794Y-99260101D02*
X136828153Y-99232592D01*
X136828153Y-99232592D02*
X136877938Y-99170150D01*
D12*
X139082543Y-75562957D02*
X139268857Y-75602559D01*
X139003339Y-75935585D02*
X139189652Y-75975187D01*
X138851906Y-76877055D02*
X138825129Y-76773997D01*
X138825129Y-76773997D02*
X138854830Y-76634262D01*
X138854830Y-76634262D02*
X138931110Y-76504427D01*
X138931110Y-76504427D02*
X139044068Y-76431071D01*
X139044068Y-76431071D02*
X139147126Y-76404294D01*
X139147126Y-76404294D02*
X139343340Y-76397318D01*
X139343340Y-76397318D02*
X139483076Y-76427019D01*
X139483076Y-76427019D02*
X139659489Y-76513200D01*
X139659489Y-76513200D02*
X139742745Y-76579580D01*
X139742745Y-76579580D02*
X139816101Y-76692538D01*
X139816101Y-76692538D02*
X139832978Y-76842174D01*
X139832978Y-76842174D02*
X139813177Y-76935331D01*
X139813177Y-76935331D02*
X139736897Y-77065165D01*
X139736897Y-77065165D02*
X139680418Y-77101843D01*
X139680418Y-77101843D02*
X139354368Y-77032539D01*
X139354368Y-77032539D02*
X139393971Y-76846226D01*
X139684469Y-77540851D02*
X138706322Y-77332939D01*
X139595364Y-77960057D02*
X139083001Y-77851150D01*
X139083001Y-77851150D02*
X138999745Y-77784771D01*
X138999745Y-77784771D02*
X138972968Y-77681713D01*
X138972968Y-77681713D02*
X139002669Y-77541978D01*
X139002669Y-77541978D02*
X139069049Y-77458722D01*
X139069049Y-77458722D02*
X139125528Y-77422044D01*
X139466657Y-78565577D02*
X139439880Y-78462519D01*
X139439880Y-78462519D02*
X139403202Y-78406040D01*
X139403202Y-78406040D02*
X139319946Y-78339661D01*
X139319946Y-78339661D02*
X139040475Y-78280257D01*
X139040475Y-78280257D02*
X138937417Y-78307035D01*
X138937417Y-78307035D02*
X138880938Y-78343713D01*
X138880938Y-78343713D02*
X138814559Y-78426969D01*
X138814559Y-78426969D02*
X138784857Y-78566704D01*
X138784857Y-78566704D02*
X138811634Y-78669762D01*
X138811634Y-78669762D02*
X138848312Y-78726241D01*
X138848312Y-78726241D02*
X138931569Y-78792620D01*
X138931569Y-78792620D02*
X139211039Y-78852024D01*
X139211039Y-78852024D02*
X139314097Y-78825246D01*
X139314097Y-78825246D02*
X139370576Y-78788568D01*
X139370576Y-78788568D02*
X139436955Y-78705312D01*
X139436955Y-78705312D02*
X139466657Y-78565577D01*
X139271570Y-79254353D02*
X139298348Y-79357411D01*
X139298348Y-79357411D02*
X139258745Y-79543724D01*
X139258745Y-79543724D02*
X139192366Y-79626981D01*
X139192366Y-79626981D02*
X139089308Y-79653758D01*
X139089308Y-79653758D02*
X139042730Y-79643857D01*
X139042730Y-79643857D02*
X138959474Y-79577478D01*
X138959474Y-79577478D02*
X138932696Y-79474420D01*
X138932696Y-79474420D02*
X138962398Y-79334685D01*
X138962398Y-79334685D02*
X138935621Y-79231628D01*
X138935621Y-79231628D02*
X138852364Y-79165248D01*
X138852364Y-79165248D02*
X138805786Y-79155347D01*
X138805786Y-79155347D02*
X138702728Y-79182125D01*
X138702728Y-79182125D02*
X138636349Y-79265381D01*
X138636349Y-79265381D02*
X138606647Y-79405117D01*
X138606647Y-79405117D02*
X138633424Y-79508174D01*
X138517542Y-79824323D02*
X138438338Y-80196951D01*
X138161791Y-79894754D02*
X139000203Y-80072964D01*
X139000203Y-80072964D02*
X139083460Y-80139344D01*
X139083460Y-80139344D02*
X139110237Y-80242401D01*
X139110237Y-80242401D02*
X139090436Y-80335558D01*
X138388835Y-80429843D02*
X138991430Y-80801343D01*
X138289829Y-80895628D02*
X138991430Y-80801343D01*
X138991430Y-80801343D02*
X139244124Y-80757689D01*
X139244124Y-80757689D02*
X139300603Y-80721011D01*
X139300603Y-80721011D02*
X139366982Y-80637755D01*
X137894476Y-81152373D02*
X138080790Y-81191976D01*
X137815272Y-81525001D02*
X138001585Y-81564603D01*
X138545905Y-82897375D02*
X137567757Y-82689463D01*
X137940385Y-82768667D02*
X137874006Y-82851924D01*
X137874006Y-82851924D02*
X137834403Y-83038238D01*
X137834403Y-83038238D02*
X137861181Y-83141295D01*
X137861181Y-83141295D02*
X137897859Y-83197774D01*
X137897859Y-83197774D02*
X137981115Y-83264154D01*
X137981115Y-83264154D02*
X138260586Y-83323557D01*
X138260586Y-83323557D02*
X138363643Y-83296780D01*
X138363643Y-83296780D02*
X138420122Y-83260102D01*
X138420122Y-83260102D02*
X138486502Y-83176845D01*
X138486502Y-83176845D02*
X138526104Y-82990531D01*
X138526104Y-82990531D02*
X138499327Y-82887474D01*
X137725497Y-83550601D02*
X138328093Y-83922101D01*
X137626492Y-84016385D02*
X138328093Y-83922101D01*
X138328093Y-83922101D02*
X138580786Y-83878447D01*
X138580786Y-83878447D02*
X138637265Y-83841769D01*
X138637265Y-83841769D02*
X138703645Y-83758512D01*
X137922170Y-85831818D02*
X137525689Y-85406763D01*
X138040977Y-85272876D02*
X137062829Y-85064965D01*
X137062829Y-85064965D02*
X136983625Y-85437592D01*
X136983625Y-85437592D02*
X137010402Y-85540650D01*
X137010402Y-85540650D02*
X137047080Y-85597129D01*
X137047080Y-85597129D02*
X137130336Y-85663508D01*
X137130336Y-85663508D02*
X137270072Y-85693210D01*
X137270072Y-85693210D02*
X137373129Y-85666433D01*
X137373129Y-85666433D02*
X137429608Y-85629755D01*
X137429608Y-85629755D02*
X137495988Y-85546499D01*
X137495988Y-85546499D02*
X137575192Y-85173871D01*
X137803363Y-86390759D02*
X137776586Y-86287702D01*
X137776586Y-86287702D02*
X137739908Y-86231223D01*
X137739908Y-86231223D02*
X137656652Y-86164843D01*
X137656652Y-86164843D02*
X137377181Y-86105440D01*
X137377181Y-86105440D02*
X137274123Y-86132217D01*
X137274123Y-86132217D02*
X137217644Y-86168895D01*
X137217644Y-86168895D02*
X137151265Y-86252152D01*
X137151265Y-86252152D02*
X137121563Y-86391887D01*
X137121563Y-86391887D02*
X137148340Y-86494944D01*
X137148340Y-86494944D02*
X137185018Y-86551423D01*
X137185018Y-86551423D02*
X137268275Y-86617803D01*
X137268275Y-86617803D02*
X137547745Y-86677206D01*
X137547745Y-86677206D02*
X137650803Y-86650429D01*
X137650803Y-86650429D02*
X137707282Y-86613751D01*
X137707282Y-86613751D02*
X137773662Y-86530495D01*
X137773662Y-86530495D02*
X137803363Y-86390759D01*
X137644954Y-87136015D02*
X136666807Y-86928103D01*
X137039434Y-87007308D02*
X136973055Y-87090564D01*
X136973055Y-87090564D02*
X136933453Y-87276878D01*
X136933453Y-87276878D02*
X136960230Y-87379935D01*
X136960230Y-87379935D02*
X136996908Y-87436414D01*
X136996908Y-87436414D02*
X137080164Y-87502794D01*
X137080164Y-87502794D02*
X137359635Y-87562197D01*
X137359635Y-87562197D02*
X137462692Y-87535420D01*
X137462692Y-87535420D02*
X137519171Y-87498742D01*
X137519171Y-87498742D02*
X137585551Y-87415486D01*
X137585551Y-87415486D02*
X137625153Y-87229172D01*
X137625153Y-87229172D02*
X137598376Y-87126114D01*
X137331061Y-88383733D02*
X137397440Y-88300476D01*
X137397440Y-88300476D02*
X137437043Y-88114163D01*
X137437043Y-88114163D02*
X137410265Y-88011105D01*
X137410265Y-88011105D02*
X137327009Y-87944725D01*
X137327009Y-87944725D02*
X136954381Y-87865521D01*
X136954381Y-87865521D02*
X136851324Y-87892298D01*
X136851324Y-87892298D02*
X136784944Y-87975555D01*
X136784944Y-87975555D02*
X136745342Y-88161869D01*
X136745342Y-88161869D02*
X136772119Y-88264926D01*
X136772119Y-88264926D02*
X136855376Y-88331306D01*
X136855376Y-88331306D02*
X136948533Y-88351107D01*
X136948533Y-88351107D02*
X137140695Y-87905123D01*
X137278634Y-88859418D02*
X136626535Y-88720810D01*
X136812849Y-88760412D02*
X136709792Y-88787190D01*
X136709792Y-88787190D02*
X136653313Y-88823868D01*
X136653313Y-88823868D02*
X136586933Y-88907124D01*
X136586933Y-88907124D02*
X136567132Y-89000281D01*
X136527530Y-89186595D02*
X136448325Y-89559223D01*
X136171779Y-89257027D02*
X137010191Y-89435237D01*
X137010191Y-89435237D02*
X137093447Y-89501616D01*
X137093447Y-89501616D02*
X137120225Y-89604674D01*
X137120225Y-89604674D02*
X137100424Y-89697831D01*
X136872711Y-90769136D02*
X135894563Y-90561224D01*
X135894563Y-90561224D02*
X135815359Y-90933852D01*
X135815359Y-90933852D02*
X135842136Y-91036909D01*
X135842136Y-91036909D02*
X135878814Y-91093388D01*
X135878814Y-91093388D02*
X135962070Y-91159768D01*
X135962070Y-91159768D02*
X136101806Y-91189469D01*
X136101806Y-91189469D02*
X136204863Y-91162692D01*
X136204863Y-91162692D02*
X136261342Y-91126014D01*
X136261342Y-91126014D02*
X136327722Y-91042758D01*
X136327722Y-91042758D02*
X136406926Y-90670130D01*
X136635097Y-91887019D02*
X136608320Y-91783961D01*
X136608320Y-91783961D02*
X136571642Y-91727482D01*
X136571642Y-91727482D02*
X136488386Y-91661103D01*
X136488386Y-91661103D02*
X136208915Y-91601699D01*
X136208915Y-91601699D02*
X136105857Y-91628477D01*
X136105857Y-91628477D02*
X136049378Y-91665155D01*
X136049378Y-91665155D02*
X135982999Y-91748411D01*
X135982999Y-91748411D02*
X135953297Y-91888146D01*
X135953297Y-91888146D02*
X135980075Y-91991204D01*
X135980075Y-91991204D02*
X136016752Y-92047683D01*
X136016752Y-92047683D02*
X136100009Y-92114062D01*
X136100009Y-92114062D02*
X136379480Y-92173466D01*
X136379480Y-92173466D02*
X136482537Y-92146688D01*
X136482537Y-92146688D02*
X136539016Y-92110010D01*
X136539016Y-92110010D02*
X136605396Y-92026754D01*
X136605396Y-92026754D02*
X136635097Y-91887019D01*
X136440010Y-92575795D02*
X136466788Y-92678853D01*
X136466788Y-92678853D02*
X136427186Y-92865166D01*
X136427186Y-92865166D02*
X136360806Y-92948423D01*
X136360806Y-92948423D02*
X136257748Y-92975200D01*
X136257748Y-92975200D02*
X136211170Y-92965300D01*
X136211170Y-92965300D02*
X136127914Y-92898920D01*
X136127914Y-92898920D02*
X136101136Y-92795863D01*
X136101136Y-92795863D02*
X136130838Y-92656127D01*
X136130838Y-92656127D02*
X136104061Y-92553070D01*
X136104061Y-92553070D02*
X136020804Y-92486690D01*
X136020804Y-92486690D02*
X135974226Y-92476790D01*
X135974226Y-92476790D02*
X135871168Y-92503567D01*
X135871168Y-92503567D02*
X135804789Y-92586823D01*
X135804789Y-92586823D02*
X135775087Y-92726559D01*
X135775087Y-92726559D02*
X135801864Y-92829616D01*
X135685982Y-93145765D02*
X135606778Y-93518393D01*
X135330231Y-93216196D02*
X136168643Y-93394406D01*
X136168643Y-93394406D02*
X136251900Y-93460786D01*
X136251900Y-93460786D02*
X136278677Y-93563843D01*
X136278677Y-93563843D02*
X136258876Y-93657000D01*
X136189572Y-93983050D02*
X135537474Y-93844442D01*
X135630631Y-93864243D02*
X135574152Y-93900921D01*
X135574152Y-93900921D02*
X135507772Y-93984178D01*
X135507772Y-93984178D02*
X135478070Y-94123913D01*
X135478070Y-94123913D02*
X135504848Y-94226970D01*
X135504848Y-94226970D02*
X135588104Y-94293350D01*
X135588104Y-94293350D02*
X136100467Y-94402256D01*
X135588104Y-94293350D02*
X135485047Y-94320127D01*
X135485047Y-94320127D02*
X135418667Y-94403384D01*
X135418667Y-94403384D02*
X135388965Y-94543119D01*
X135388965Y-94543119D02*
X135415743Y-94646177D01*
X135415743Y-94646177D02*
X135498999Y-94712556D01*
X135498999Y-94712556D02*
X136011362Y-94821462D01*
X135823252Y-95706453D02*
X135310888Y-95597546D01*
X135310888Y-95597546D02*
X135227632Y-95531167D01*
X135227632Y-95531167D02*
X135200855Y-95428109D01*
X135200855Y-95428109D02*
X135240457Y-95241796D01*
X135240457Y-95241796D02*
X135306837Y-95158539D01*
X135776673Y-95696552D02*
X135843053Y-95613296D01*
X135843053Y-95613296D02*
X135892555Y-95380403D01*
X135892555Y-95380403D02*
X135865778Y-95277346D01*
X135865778Y-95277346D02*
X135782522Y-95210966D01*
X135782522Y-95210966D02*
X135689365Y-95191165D01*
X135689365Y-95191165D02*
X135586307Y-95217943D01*
X135586307Y-95217943D02*
X135519928Y-95301199D01*
X135519928Y-95301199D02*
X135470425Y-95534091D01*
X135470425Y-95534091D02*
X135404045Y-95617348D01*
D13*
X166220000Y-104280000D02*
X166220000Y-104280000D01*
X166220000Y-104380000D02*
X166220000Y-104380000D01*
X166220000Y-104380000D02*
G75*
G03*
X166220000Y-104280000I0J50000D01*
G01*
X166220000Y-104280000D02*
G75*
G03*
X166220000Y-104380000I0J-50000D01*
G01*
%LPC*%
D14*
X137610000Y-105230000D03*
X159950000Y-105230000D03*
D15*
X148780000Y-105230000D03*
D16*
X169420000Y-105080000D03*
X169420000Y-108080000D03*
D17*
X167345000Y-104330000D03*
X167345000Y-107330000D03*
X167345000Y-108830000D03*
D18*
X168320000Y-102780000D03*
X170520000Y-102780000D03*
X170520000Y-110380000D03*
X168320000Y-110380000D03*
M02*
