%TF.GenerationSoftware,KiCad,Pcbnew,7.0.1-0*%
%TF.CreationDate,2023-08-21T12:14:34+02:00*%
%TF.ProjectId,ghost,67686f73-742e-46b6-9963-61645f706362,rev?*%
%TF.SameCoordinates,Original*%
%TF.FileFunction,Drillmap*%
%TF.FilePolarity,Positive*%
%FSLAX45Y45*%
G04 Gerber Fmt 4.5, Leading zero omitted, Abs format (unit mm)*
G04 Created by KiCad (PCBNEW 7.0.1-0) date 2023-08-21 12:14:34*
%MOMM*%
%LPD*%
G01*
G04 APERTURE LIST*
%ADD10C,0.056000*%
%ADD11C,0.200000*%
%ADD12C,0.030000*%
G04 APERTURE END LIST*
D10*
X16282778Y-7868018D02*
X16288619Y-7876016D01*
X16295448Y-7885236D01*
X16299179Y-7890232D01*
X16303090Y-7895448D01*
X16307160Y-7900855D01*
X16311368Y-7906425D01*
X16315690Y-7912129D01*
X16320105Y-7917939D01*
X16324591Y-7923826D01*
X16329126Y-7929762D01*
X16333688Y-7935718D01*
X16338255Y-7941665D01*
X16342804Y-7947576D01*
X16347315Y-7953421D01*
X16351764Y-7959172D01*
X16356129Y-7964801D01*
X16360390Y-7970280D01*
X16364523Y-7975578D01*
X16368507Y-7980669D01*
X16372320Y-7985524D01*
X16375939Y-7990114D01*
X16382509Y-7998384D01*
X16388041Y-8005253D01*
X16392360Y-8010492D01*
X16396175Y-8014796D01*
X13236088Y-10060739D02*
X13249709Y-9947075D01*
X15195119Y-12230053D02*
X15180399Y-12225891D01*
X15165991Y-12221394D01*
X15151881Y-12216550D01*
X15138056Y-12211347D01*
X15124502Y-12205770D01*
X15111207Y-12199809D01*
X15098156Y-12193450D01*
X15085338Y-12186681D01*
X15072738Y-12179489D01*
X15060343Y-12171862D01*
X15048140Y-12163788D01*
X15036116Y-12155253D01*
X15024257Y-12146244D01*
X15012550Y-12136751D01*
X15000981Y-12126759D01*
X14989538Y-12116257D01*
X14978208Y-12105232D01*
X14966976Y-12093670D01*
X14955829Y-12081561D01*
X14944755Y-12068891D01*
X14933741Y-12055647D01*
X14922771Y-12041817D01*
X14911835Y-12027389D01*
X14900917Y-12012349D01*
X14890005Y-11996686D01*
X14879086Y-11980387D01*
X14868146Y-11963439D01*
X14857172Y-11945830D01*
X14846151Y-11927547D01*
X14835069Y-11908577D01*
X14823914Y-11888908D01*
X14812671Y-11868528D01*
X13152622Y-9070243D02*
X13158448Y-9070260D01*
X13164065Y-9070312D01*
X13174719Y-9070535D01*
X13184678Y-9070931D01*
X13194034Y-9071521D01*
X13202880Y-9072325D01*
X13211308Y-9073363D01*
X13219412Y-9074657D01*
X13227283Y-9076226D01*
X13235015Y-9078090D01*
X13242700Y-9080271D01*
X13250432Y-9082789D01*
X13258302Y-9085663D01*
X13266403Y-9088915D01*
X13274829Y-9092564D01*
X13283671Y-9096632D01*
X13293024Y-9101139D01*
X13293024Y-9101139D02*
X13299447Y-9104266D01*
X13305718Y-9107267D01*
X13311802Y-9110127D01*
X13317665Y-9112833D01*
X13323275Y-9115370D01*
X13328598Y-9117725D01*
X13335969Y-9120886D01*
X13342504Y-9123558D01*
X13348090Y-9125696D01*
X13353865Y-9127633D01*
X13358615Y-9128202D01*
X13475127Y-8545226D02*
X13483710Y-8510184D01*
X13492726Y-8475007D01*
X13502164Y-8439726D01*
X13512010Y-8404374D01*
X13522250Y-8368982D01*
X13532871Y-8333584D01*
X13543860Y-8298211D01*
X13555203Y-8262896D01*
X13566888Y-8227672D01*
X13578900Y-8192570D01*
X13591226Y-8157624D01*
X13603854Y-8122864D01*
X13616769Y-8088325D01*
X13629959Y-8054037D01*
X13643410Y-8020034D01*
X13657108Y-7986348D01*
X13671041Y-7953011D01*
X13685195Y-7920055D01*
X13699557Y-7887513D01*
X13714113Y-7855417D01*
X13728851Y-7823800D01*
X13743756Y-7792694D01*
X13758815Y-7762130D01*
X13774015Y-7732143D01*
X13789343Y-7702763D01*
X13804786Y-7674023D01*
X13820329Y-7645956D01*
X13835961Y-7618594D01*
X13851666Y-7591969D01*
X13867433Y-7566114D01*
X13883247Y-7541061D01*
X13899096Y-7516842D01*
X13111628Y-10807895D02*
X13115438Y-10790086D01*
X13119358Y-10771289D01*
X13123378Y-10751565D01*
X13127487Y-10730980D01*
X13131675Y-10709594D01*
X13135932Y-10687472D01*
X13140246Y-10664678D01*
X13144607Y-10641273D01*
X13149005Y-10617321D01*
X13153429Y-10592885D01*
X13157868Y-10568029D01*
X13162313Y-10542816D01*
X13166753Y-10517308D01*
X13171176Y-10491570D01*
X13175573Y-10465663D01*
X13179933Y-10439651D01*
X13184246Y-10413598D01*
X13188501Y-10387566D01*
X13192687Y-10361619D01*
X13196794Y-10335820D01*
X13200812Y-10310231D01*
X13204729Y-10284917D01*
X13208536Y-10259940D01*
X13212222Y-10235363D01*
X13215777Y-10211249D01*
X13219189Y-10187663D01*
X13222448Y-10164666D01*
X13225544Y-10142322D01*
X13228467Y-10120694D01*
X13231205Y-10099845D01*
X13233749Y-10079839D01*
X13236088Y-10060739D01*
X14812671Y-11868528D02*
X14805880Y-11856319D01*
X14799063Y-11844600D01*
X14792215Y-11833368D01*
X14785326Y-11822617D01*
X14778390Y-11812343D01*
X14771400Y-11802542D01*
X14764348Y-11793207D01*
X14757226Y-11784336D01*
X14750029Y-11775922D01*
X14742748Y-11767962D01*
X14735376Y-11760451D01*
X14727906Y-11753384D01*
X14720330Y-11746756D01*
X14712642Y-11740563D01*
X14704833Y-11734800D01*
X14696897Y-11729462D01*
X14688826Y-11724545D01*
X14680614Y-11720044D01*
X14672252Y-11715955D01*
X14663733Y-11712272D01*
X14655050Y-11708991D01*
X14646196Y-11706107D01*
X14637164Y-11703616D01*
X14627945Y-11701513D01*
X14618534Y-11699793D01*
X14608922Y-11698452D01*
X14599102Y-11697485D01*
X14589068Y-11696887D01*
X14578811Y-11696653D01*
X14568324Y-11696779D01*
X14557600Y-11697261D01*
X14546633Y-11698093D01*
X16775182Y-8579873D02*
X16778968Y-8570759D01*
X16782877Y-8561634D01*
X16786898Y-8552516D01*
X16791020Y-8543422D01*
X16795235Y-8534367D01*
X16799532Y-8525369D01*
X16803899Y-8516445D01*
X16808328Y-8507611D01*
X16812808Y-8498883D01*
X16817329Y-8490279D01*
X16821879Y-8481815D01*
X16826450Y-8473508D01*
X16831031Y-8465374D01*
X16835612Y-8457431D01*
X16840182Y-8449695D01*
X16844731Y-8442183D01*
X16849249Y-8434911D01*
X16853725Y-8427896D01*
X16858151Y-8421155D01*
X16862514Y-8414705D01*
X16866805Y-8408562D01*
X16871014Y-8402742D01*
X16875131Y-8397264D01*
X16879144Y-8392142D01*
X16883045Y-8387395D01*
X16886822Y-8383039D01*
X16893966Y-8375565D01*
X16900494Y-8369854D01*
X16906324Y-8366041D01*
X16396175Y-8014796D02*
X16404675Y-8024526D01*
X16410335Y-8031896D01*
X16416856Y-8040811D01*
X16424183Y-8051177D01*
X16432258Y-8062901D01*
X16441023Y-8075888D01*
X16450420Y-8090044D01*
X16460392Y-8105276D01*
X16470881Y-8121490D01*
X16481830Y-8138592D01*
X16493182Y-8156487D01*
X16504878Y-8175083D01*
X16516862Y-8194285D01*
X16529075Y-8214000D01*
X16541460Y-8234133D01*
X16553959Y-8254590D01*
X16566516Y-8275279D01*
X16579072Y-8296104D01*
X16591570Y-8316972D01*
X16603952Y-8337789D01*
X16616161Y-8358462D01*
X16628139Y-8378896D01*
X16639828Y-8398997D01*
X16651172Y-8418672D01*
X16662112Y-8437827D01*
X16672592Y-8456367D01*
X16682552Y-8474200D01*
X16691937Y-8491231D01*
X16700688Y-8507366D01*
X16708748Y-8522511D01*
X16716059Y-8536573D01*
X17150429Y-8778695D02*
X17151313Y-8796487D01*
X17151939Y-8814360D01*
X17152310Y-8832294D01*
X17152430Y-8850270D01*
X17152302Y-8868271D01*
X17151928Y-8886276D01*
X17151312Y-8904269D01*
X17150457Y-8922229D01*
X17149366Y-8940138D01*
X17148041Y-8957978D01*
X17146487Y-8975729D01*
X17144705Y-8993374D01*
X17142699Y-9010892D01*
X17140473Y-9028267D01*
X17138029Y-9045478D01*
X17135369Y-9062507D01*
X17132499Y-9079335D01*
X17129419Y-9095945D01*
X17126134Y-9112316D01*
X17122646Y-9128430D01*
X17118959Y-9144269D01*
X17115075Y-9159814D01*
X17110998Y-9175046D01*
X17106731Y-9189946D01*
X17102276Y-9204496D01*
X17097637Y-9218677D01*
X17092817Y-9232470D01*
X17087819Y-9245857D01*
X17082645Y-9258818D01*
X17077300Y-9271336D01*
X17071786Y-9283391D01*
X17066106Y-9294965D01*
X17093429Y-8420262D02*
X17097575Y-8430451D01*
X17099684Y-8436563D01*
X17101810Y-8443317D01*
X17103950Y-8450684D01*
X17106099Y-8458636D01*
X17108252Y-8467145D01*
X17110405Y-8476183D01*
X17112553Y-8485722D01*
X17114693Y-8495733D01*
X17116818Y-8506189D01*
X17118926Y-8517061D01*
X17121012Y-8528322D01*
X17123070Y-8539943D01*
X17125097Y-8551896D01*
X17127089Y-8564153D01*
X17129040Y-8576686D01*
X17130946Y-8589467D01*
X17132803Y-8602468D01*
X17134606Y-8615660D01*
X17136351Y-8629017D01*
X17138033Y-8642508D01*
X17139649Y-8656107D01*
X17141192Y-8669785D01*
X17142660Y-8683515D01*
X17144047Y-8697268D01*
X17145349Y-8711015D01*
X17146562Y-8724730D01*
X17147681Y-8738383D01*
X17148701Y-8751947D01*
X17149619Y-8765394D01*
X17150429Y-8778695D01*
X14546633Y-11698093D02*
X14540607Y-11698693D01*
X14534573Y-11699399D01*
X14528535Y-11700209D01*
X14522501Y-11701121D01*
X14516476Y-11702133D01*
X14510465Y-11703243D01*
X14504476Y-11704448D01*
X14498515Y-11705745D01*
X14492587Y-11707134D01*
X14486699Y-11708611D01*
X14480856Y-11710175D01*
X14475065Y-11711823D01*
X14469332Y-11713552D01*
X14463663Y-11715362D01*
X14458065Y-11717249D01*
X14452542Y-11719211D01*
X14447102Y-11721246D01*
X14441751Y-11723352D01*
X14436493Y-11725526D01*
X14431337Y-11727767D01*
X14421351Y-11732439D01*
X14411840Y-11737349D01*
X14402854Y-11742481D01*
X14394442Y-11747815D01*
X14386653Y-11753335D01*
X14379534Y-11759022D01*
X13033546Y-9103864D02*
X13040349Y-9098443D01*
X13046641Y-9093632D01*
X13052552Y-9089396D01*
X13058208Y-9085699D01*
X13063736Y-9082504D01*
X13069265Y-9079776D01*
X13074922Y-9077479D01*
X13080834Y-9075576D01*
X13087129Y-9074032D01*
X13093935Y-9072811D01*
X13101378Y-9071876D01*
X13109586Y-9071192D01*
X13118687Y-9070723D01*
X13128809Y-9070432D01*
X13140078Y-9070284D01*
X13146183Y-9070252D01*
X13152622Y-9070243D01*
X16311051Y-11913549D02*
X16303672Y-11902592D01*
X16296481Y-11892069D01*
X16289469Y-11881969D01*
X16282623Y-11872281D01*
X16275933Y-11862995D01*
X16269387Y-11854099D01*
X16262974Y-11845584D01*
X16256683Y-11837437D01*
X16250502Y-11829650D01*
X16244420Y-11822210D01*
X16238427Y-11815108D01*
X16232510Y-11808332D01*
X16226659Y-11801872D01*
X16220862Y-11795717D01*
X16215108Y-11789856D01*
X16209386Y-11784279D01*
X16203684Y-11778975D01*
X16197992Y-11773933D01*
X16192297Y-11769142D01*
X16186589Y-11764592D01*
X16180857Y-11760272D01*
X16175089Y-11756171D01*
X16169274Y-11752279D01*
X16163400Y-11748585D01*
X16157457Y-11745078D01*
X16151433Y-11741747D01*
X16145317Y-11738582D01*
X16139098Y-11735572D01*
X16132764Y-11732706D01*
X16126305Y-11729974D01*
X16119708Y-11727365D01*
X16112963Y-11724867D01*
X16906324Y-8366041D02*
X16912738Y-8362935D01*
X16919267Y-8360181D01*
X16925896Y-8357778D01*
X16932609Y-8355718D01*
X16939391Y-8354000D01*
X16946227Y-8352617D01*
X16953102Y-8351566D01*
X16960001Y-8350842D01*
X16966909Y-8350441D01*
X16973810Y-8350359D01*
X16980690Y-8350590D01*
X16987533Y-8351132D01*
X16994325Y-8351979D01*
X17001050Y-8353127D01*
X17007692Y-8354571D01*
X17014238Y-8356308D01*
X17020671Y-8358332D01*
X17026977Y-8360640D01*
X17033141Y-8363227D01*
X17039147Y-8366089D01*
X17044981Y-8369221D01*
X17050626Y-8372619D01*
X17056069Y-8376278D01*
X17061294Y-8380195D01*
X17066285Y-8384365D01*
X17071029Y-8388783D01*
X17075509Y-8393445D01*
X17079710Y-8398346D01*
X17083618Y-8403483D01*
X17087217Y-8408851D01*
X17090493Y-8414445D01*
X17093429Y-8420262D01*
X13385826Y-8972817D02*
X13388118Y-8958700D01*
X13390317Y-8945226D01*
X13392437Y-8932334D01*
X13394490Y-8919966D01*
X13396489Y-8908061D01*
X13398445Y-8896562D01*
X13400372Y-8885408D01*
X13402282Y-8874540D01*
X13404186Y-8863899D01*
X13406098Y-8853425D01*
X13408030Y-8843060D01*
X13409993Y-8832743D01*
X13412002Y-8822415D01*
X13414068Y-8812017D01*
X13416203Y-8801490D01*
X13418419Y-8790774D01*
X13420730Y-8779810D01*
X13423148Y-8768539D01*
X13425684Y-8756901D01*
X13428352Y-8744836D01*
X13431164Y-8732287D01*
X13434132Y-8719192D01*
X13437268Y-8705494D01*
X13440586Y-8691131D01*
X13444097Y-8676046D01*
X13447813Y-8660179D01*
X13451748Y-8643470D01*
X13455913Y-8625861D01*
X13460321Y-8607291D01*
X13464985Y-8587701D01*
X13469916Y-8567033D01*
X13475127Y-8545226D01*
X16112963Y-11724867D02*
X16103462Y-11721675D01*
X16094138Y-11718978D01*
X16084982Y-11716780D01*
X16075986Y-11715087D01*
X16067141Y-11713905D01*
X16058439Y-11713240D01*
X16049872Y-11713098D01*
X16041431Y-11713483D01*
X16033108Y-11714401D01*
X16024893Y-11715858D01*
X16016780Y-11717860D01*
X16008758Y-11720412D01*
X16000821Y-11723519D01*
X15992958Y-11727188D01*
X15985163Y-11731424D01*
X15977425Y-11736233D01*
X15969738Y-11741619D01*
X15962092Y-11747589D01*
X15954479Y-11754149D01*
X15946891Y-11761303D01*
X15939318Y-11769058D01*
X15931754Y-11777419D01*
X15924188Y-11786391D01*
X15916613Y-11795981D01*
X15909020Y-11806193D01*
X15901402Y-11817034D01*
X15893748Y-11828510D01*
X15886051Y-11840624D01*
X15878302Y-11853384D01*
X15870494Y-11866795D01*
X15862617Y-11880862D01*
X15854663Y-11895591D01*
X12977774Y-11294799D02*
X12984683Y-11273412D01*
X12991258Y-11252998D01*
X12997516Y-11233498D01*
X13003472Y-11214855D01*
X13009141Y-11197011D01*
X13014540Y-11179910D01*
X13019684Y-11163494D01*
X13024589Y-11147706D01*
X13029272Y-11132487D01*
X13033746Y-11117782D01*
X13038029Y-11103532D01*
X13042136Y-11089680D01*
X13046083Y-11076168D01*
X13049886Y-11062940D01*
X13053560Y-11049938D01*
X13057121Y-11037105D01*
X13060585Y-11024383D01*
X13063968Y-11011715D01*
X13067285Y-10999043D01*
X13070553Y-10986311D01*
X13073787Y-10973460D01*
X13077003Y-10960434D01*
X13080216Y-10947175D01*
X13083442Y-10933626D01*
X13086698Y-10919728D01*
X13089999Y-10905426D01*
X13093360Y-10890662D01*
X13096798Y-10875377D01*
X13100327Y-10859516D01*
X13103965Y-10843020D01*
X13107727Y-10825832D01*
X13111628Y-10807895D01*
X13073248Y-9676448D02*
X13060244Y-9649907D01*
X13047998Y-9623915D01*
X13036510Y-9598473D01*
X13025781Y-9573582D01*
X13015811Y-9549243D01*
X13006599Y-9525457D01*
X12998146Y-9502223D01*
X12990451Y-9479545D01*
X12983515Y-9457421D01*
X12977338Y-9435854D01*
X12971920Y-9414843D01*
X12967261Y-9394391D01*
X12963361Y-9374497D01*
X12960220Y-9355163D01*
X12957838Y-9336390D01*
X12956215Y-9318178D01*
X12955351Y-9300528D01*
X12955247Y-9283442D01*
X12955902Y-9266919D01*
X12957316Y-9250962D01*
X12959490Y-9235570D01*
X12962423Y-9220746D01*
X12966116Y-9206489D01*
X12970569Y-9192800D01*
X12975782Y-9179681D01*
X12981754Y-9167132D01*
X12988486Y-9155154D01*
X12995978Y-9143749D01*
X13004230Y-9132916D01*
X13013242Y-9122657D01*
X13023014Y-9112973D01*
X13033546Y-9103864D01*
X12927000Y-11566000D02*
X12927011Y-11556263D01*
X12927050Y-11547003D01*
X12927123Y-11538182D01*
X12927239Y-11529759D01*
X12927405Y-11521695D01*
X12927627Y-11513951D01*
X12927914Y-11506486D01*
X12928274Y-11499261D01*
X12928712Y-11492236D01*
X12929237Y-11485372D01*
X12929857Y-11478629D01*
X12930578Y-11471968D01*
X12931408Y-11465348D01*
X12932355Y-11458731D01*
X12933426Y-11452076D01*
X12934627Y-11445344D01*
X12935968Y-11438495D01*
X12937455Y-11431489D01*
X12939095Y-11424288D01*
X12940897Y-11416851D01*
X12942867Y-11409139D01*
X12945012Y-11401112D01*
X12947341Y-11392730D01*
X12949861Y-11383954D01*
X12952579Y-11374744D01*
X12955502Y-11365061D01*
X12958638Y-11354865D01*
X12961995Y-11344116D01*
X12965579Y-11332774D01*
X12969399Y-11320800D01*
X12973461Y-11308155D01*
X12977774Y-11294799D01*
X13188492Y-9865887D02*
X13181976Y-9857055D01*
X13178576Y-9852312D01*
X13175092Y-9847368D01*
X13171531Y-9842235D01*
X13167900Y-9836925D01*
X13164207Y-9831449D01*
X13160460Y-9825821D01*
X13156664Y-9820052D01*
X13152829Y-9814155D01*
X13148961Y-9808141D01*
X13145067Y-9802022D01*
X13141155Y-9795812D01*
X13137233Y-9789521D01*
X13133308Y-9783163D01*
X13129387Y-9776749D01*
X13125478Y-9770291D01*
X13121587Y-9763802D01*
X13117723Y-9757293D01*
X13113892Y-9750778D01*
X13110103Y-9744267D01*
X13106362Y-9737773D01*
X13102677Y-9731309D01*
X13099056Y-9724886D01*
X13095505Y-9718516D01*
X13092032Y-9712212D01*
X13088645Y-9705986D01*
X13085350Y-9699850D01*
X13082156Y-9693816D01*
X13079069Y-9687896D01*
X13076097Y-9682103D01*
X13073248Y-9676448D01*
X17239729Y-10905095D02*
X17237842Y-10945800D01*
X17235729Y-10985850D01*
X17233392Y-11025239D01*
X17230832Y-11063961D01*
X17228049Y-11102009D01*
X17225045Y-11139378D01*
X17221821Y-11176061D01*
X17218378Y-11212053D01*
X17214716Y-11247346D01*
X17210838Y-11281935D01*
X17206745Y-11315814D01*
X17202436Y-11348977D01*
X17197914Y-11381417D01*
X17193179Y-11413128D01*
X17188233Y-11444104D01*
X17183076Y-11474340D01*
X17177710Y-11503827D01*
X17172136Y-11532562D01*
X17166355Y-11560537D01*
X17160368Y-11587746D01*
X17154176Y-11614184D01*
X17147780Y-11639843D01*
X17141181Y-11664718D01*
X17134380Y-11688803D01*
X17127379Y-11712091D01*
X17120179Y-11734577D01*
X17112780Y-11756254D01*
X17105183Y-11777116D01*
X17097390Y-11797157D01*
X17089403Y-11816370D01*
X17081221Y-11834750D01*
X17072846Y-11852291D01*
X12968082Y-11763349D02*
X12964470Y-11756028D01*
X12961076Y-11749106D01*
X12957893Y-11742551D01*
X12954915Y-11736331D01*
X12952134Y-11730414D01*
X12949544Y-11724765D01*
X12947138Y-11719354D01*
X12944909Y-11714148D01*
X12940956Y-11704219D01*
X12937631Y-11694717D01*
X12934880Y-11685384D01*
X12932648Y-11675958D01*
X12930882Y-11666179D01*
X12929527Y-11655788D01*
X12928529Y-11644524D01*
X12928147Y-11638483D01*
X12927834Y-11632126D01*
X12927583Y-11625421D01*
X12927388Y-11618335D01*
X12927241Y-11610836D01*
X12927136Y-11602891D01*
X12927066Y-11594467D01*
X12927025Y-11585532D01*
X12927005Y-11576054D01*
X12927000Y-11566000D01*
X14379534Y-11759022D02*
X14374447Y-11763144D01*
X14368219Y-11767826D01*
X14360917Y-11773031D01*
X14352607Y-11778721D01*
X14343355Y-11784860D01*
X14333227Y-11791410D01*
X14322289Y-11798334D01*
X14310608Y-11805595D01*
X14298249Y-11813156D01*
X14285279Y-11820979D01*
X14271763Y-11829027D01*
X14257767Y-11837264D01*
X14243359Y-11845652D01*
X14228603Y-11854154D01*
X14213566Y-11862732D01*
X14198314Y-11871350D01*
X14182913Y-11879971D01*
X14167429Y-11888556D01*
X14151928Y-11897070D01*
X14136477Y-11905475D01*
X14121141Y-11913734D01*
X14105986Y-11921809D01*
X14091078Y-11929663D01*
X14076485Y-11937260D01*
X14062271Y-11944562D01*
X14048502Y-11951532D01*
X14035246Y-11958133D01*
X14022567Y-11964328D01*
X14010532Y-11970079D01*
X13999208Y-11975349D01*
X13988659Y-11980101D01*
X13978953Y-11984299D01*
X15854663Y-11895591D02*
X15849904Y-11904501D01*
X15845129Y-11913336D01*
X15840370Y-11922042D01*
X15835658Y-11930565D01*
X15831023Y-11938853D01*
X15826497Y-11946852D01*
X15822111Y-11954510D01*
X15817895Y-11961773D01*
X15813882Y-11968588D01*
X15810101Y-11974901D01*
X15806585Y-11980661D01*
X15803363Y-11985813D01*
X15799153Y-11992285D01*
X15795781Y-11997091D01*
X15794051Y-11999282D01*
X16716059Y-8536573D02*
X16721550Y-8544973D01*
X16726364Y-8553801D01*
X16730594Y-8562803D01*
X16734334Y-8571724D01*
X16737678Y-8580309D01*
X16740720Y-8588305D01*
X16743554Y-8595456D01*
X16746274Y-8601509D01*
X16750344Y-8607973D01*
X16756247Y-8610374D01*
X16761443Y-8606398D01*
X16765448Y-8600520D01*
X16769997Y-8591763D01*
X16772504Y-8586225D01*
X16775182Y-8579873D01*
X17088291Y-9495229D02*
X17099534Y-9537883D01*
X17110355Y-9580621D01*
X17120757Y-9623441D01*
X17130737Y-9666345D01*
X17140297Y-9709334D01*
X17149436Y-9752409D01*
X17158155Y-9795570D01*
X17166453Y-9838819D01*
X17174331Y-9882155D01*
X17181789Y-9925580D01*
X17188826Y-9969096D01*
X17195444Y-10012701D01*
X17201642Y-10056398D01*
X17207420Y-10100187D01*
X17212778Y-10144070D01*
X17217716Y-10188046D01*
X17222235Y-10232117D01*
X17226335Y-10276283D01*
X17230015Y-10320545D01*
X17233275Y-10364905D01*
X17236117Y-10409363D01*
X17238539Y-10453919D01*
X17240542Y-10498575D01*
X17242127Y-10543331D01*
X17243292Y-10588189D01*
X17244039Y-10633148D01*
X17244367Y-10678211D01*
X17244276Y-10723377D01*
X17243767Y-10768648D01*
X17242839Y-10814024D01*
X17241493Y-10859506D01*
X17239729Y-10905095D01*
X13358615Y-9128202D02*
X13360056Y-9122454D01*
X13361588Y-9114755D01*
X13362858Y-9108017D01*
X13364311Y-9100088D01*
X13365933Y-9091048D01*
X13367710Y-9080976D01*
X13369627Y-9069952D01*
X13370635Y-9064108D01*
X13371672Y-9058055D01*
X13372738Y-9051805D01*
X13373830Y-9045366D01*
X13374947Y-9038749D01*
X13376087Y-9031964D01*
X13377248Y-9025020D01*
X13378429Y-9017928D01*
X13379627Y-9010698D01*
X13380842Y-9003339D01*
X13382071Y-8995861D01*
X13383313Y-8988275D01*
X13384565Y-8980590D01*
X13385826Y-8972817D01*
X15606210Y-12180457D02*
X15599840Y-12183875D01*
X15593050Y-12187372D01*
X15585901Y-12190923D01*
X15578453Y-12194500D01*
X15570767Y-12198080D01*
X15562904Y-12201636D01*
X15554925Y-12205143D01*
X15546889Y-12208575D01*
X15538859Y-12211906D01*
X15530894Y-12215112D01*
X15523055Y-12218167D01*
X15515403Y-12221044D01*
X15507998Y-12223720D01*
X15500901Y-12226167D01*
X15494174Y-12228361D01*
X15487875Y-12230275D01*
X14659091Y-6963955D02*
X14669642Y-6962276D01*
X14680960Y-6960775D01*
X14692993Y-6959447D01*
X14705692Y-6958292D01*
X14719005Y-6957306D01*
X14732881Y-6956487D01*
X14747269Y-6955833D01*
X14762118Y-6955341D01*
X14777378Y-6955009D01*
X14792997Y-6954834D01*
X14808925Y-6954815D01*
X14825110Y-6954948D01*
X14841502Y-6955231D01*
X14858050Y-6955663D01*
X14874702Y-6956240D01*
X14891409Y-6956959D01*
X14908118Y-6957820D01*
X14924780Y-6958818D01*
X14941342Y-6959953D01*
X14957755Y-6961221D01*
X14973968Y-6962619D01*
X14989928Y-6964147D01*
X15005586Y-6965800D01*
X15020891Y-6967578D01*
X15035791Y-6969476D01*
X15050236Y-6971494D01*
X15064175Y-6973628D01*
X15077556Y-6975876D01*
X15090330Y-6978236D01*
X15102445Y-6980706D01*
X15113849Y-6983282D01*
X15124493Y-6985963D01*
X13249709Y-9947075D02*
X13188492Y-9865887D01*
X15487875Y-12230275D02*
X15480844Y-12232205D01*
X15473442Y-12234009D01*
X15465692Y-12235688D01*
X15457618Y-12237243D01*
X15449242Y-12238672D01*
X15440589Y-12239976D01*
X15431682Y-12241155D01*
X15422545Y-12242209D01*
X15413200Y-12243138D01*
X15403672Y-12243943D01*
X15393984Y-12244622D01*
X15384159Y-12245176D01*
X15374221Y-12245605D01*
X15364193Y-12245910D01*
X15354099Y-12246089D01*
X15343962Y-12246144D01*
X15333806Y-12246074D01*
X15323655Y-12245879D01*
X15313531Y-12245559D01*
X15303458Y-12245114D01*
X15293459Y-12244545D01*
X15283559Y-12243851D01*
X15273781Y-12243032D01*
X15264147Y-12242088D01*
X15254682Y-12241020D01*
X15245409Y-12239827D01*
X15236352Y-12238509D01*
X15227533Y-12237067D01*
X15218977Y-12235500D01*
X15210707Y-12233808D01*
X15202746Y-12231992D01*
X15195119Y-12230051D01*
X16789074Y-12128154D02*
X16778814Y-12131815D01*
X16769168Y-12135079D01*
X16760018Y-12137961D01*
X16751245Y-12140476D01*
X16742729Y-12142637D01*
X16734353Y-12144460D01*
X16725997Y-12145958D01*
X16717543Y-12147147D01*
X16708871Y-12148040D01*
X16699863Y-12148652D01*
X16690401Y-12148997D01*
X16680365Y-12149090D01*
X16669636Y-12148946D01*
X16663976Y-12148789D01*
X16658097Y-12148579D01*
X16651986Y-12148316D01*
X16645628Y-12148002D01*
X16639007Y-12147640D01*
X16632110Y-12147232D01*
X13978953Y-11984299D02*
X13939484Y-12000127D01*
X13899950Y-12014363D01*
X13860410Y-12027019D01*
X13820920Y-12038109D01*
X13781537Y-12047645D01*
X13742320Y-12055639D01*
X13703324Y-12062104D01*
X13664608Y-12067052D01*
X13626228Y-12070497D01*
X13588242Y-12072449D01*
X13550707Y-12072922D01*
X13513681Y-12071929D01*
X13477220Y-12069482D01*
X13441382Y-12065593D01*
X13406224Y-12060275D01*
X13371803Y-12053540D01*
X13338178Y-12045402D01*
X13305404Y-12035872D01*
X13273539Y-12024962D01*
X13242640Y-12012687D01*
X13212766Y-11999057D01*
X13183972Y-11984086D01*
X13156316Y-11967786D01*
X13129856Y-11950170D01*
X13104649Y-11931250D01*
X13080751Y-11911038D01*
X13058221Y-11889547D01*
X13037115Y-11866790D01*
X13017491Y-11842780D01*
X12999406Y-11817527D01*
X12982918Y-11791046D01*
X12968082Y-11763349D01*
X15794051Y-11999282D02*
X15790404Y-12003867D01*
X15787088Y-12008664D01*
X15783712Y-12014390D01*
X15781185Y-12019724D01*
X15779487Y-12025572D01*
X15779411Y-12026714D01*
X15779411Y-12026714D02*
X15776538Y-12034351D01*
X15771689Y-12041462D01*
X15764783Y-12049930D01*
X15760636Y-12054605D01*
X15756068Y-12059537D01*
X15751110Y-12064698D01*
X15745793Y-12070061D01*
X15740148Y-12075598D01*
X15734206Y-12081281D01*
X15727998Y-12087084D01*
X15721556Y-12092978D01*
X15714910Y-12098935D01*
X15708091Y-12104930D01*
X15701131Y-12110933D01*
X15694060Y-12116917D01*
X15686910Y-12122855D01*
X15679711Y-12128718D01*
X15672495Y-12134481D01*
X15665292Y-12140114D01*
X15658134Y-12145591D01*
X15651052Y-12150883D01*
X15644077Y-12155964D01*
X15637240Y-12160805D01*
X15630572Y-12165379D01*
X15624104Y-12169659D01*
X15617867Y-12173617D01*
X15611892Y-12177225D01*
X15606210Y-12180457D01*
X17045403Y-9335660D02*
X17088291Y-9495229D01*
X15124493Y-6985963D02*
X15145003Y-6991591D01*
X15165459Y-6997524D01*
X15185859Y-7003762D01*
X15206204Y-7010303D01*
X15226493Y-7017148D01*
X15246726Y-7024297D01*
X15266904Y-7031750D01*
X15287024Y-7039507D01*
X15307088Y-7047566D01*
X15327095Y-7055930D01*
X15347045Y-7064596D01*
X15366938Y-7073565D01*
X15386773Y-7082838D01*
X15406550Y-7092413D01*
X15426269Y-7102291D01*
X15445929Y-7112471D01*
X15465531Y-7122954D01*
X15485074Y-7133739D01*
X15504557Y-7144826D01*
X15523982Y-7156215D01*
X15543346Y-7167906D01*
X15562651Y-7179899D01*
X15581895Y-7192194D01*
X15601080Y-7204790D01*
X15620203Y-7217687D01*
X15639266Y-7230885D01*
X15658267Y-7244385D01*
X15677207Y-7258185D01*
X15696086Y-7272287D01*
X15714902Y-7286689D01*
X15733656Y-7301391D01*
X15752348Y-7316394D01*
X17066106Y-9294965D02*
X17045403Y-9335660D01*
X13899096Y-7516842D02*
X13918925Y-7487680D01*
X13939026Y-7459272D01*
X13959396Y-7431618D01*
X13980034Y-7404720D01*
X14000939Y-7378579D01*
X14022107Y-7353197D01*
X14043537Y-7328574D01*
X14065228Y-7304714D01*
X14087177Y-7281615D01*
X14109383Y-7259281D01*
X14131844Y-7237712D01*
X14154557Y-7216910D01*
X14177522Y-7196876D01*
X14200736Y-7177611D01*
X14224197Y-7159117D01*
X14247904Y-7141396D01*
X14271855Y-7124447D01*
X14296047Y-7108274D01*
X14320479Y-7092876D01*
X14345150Y-7078256D01*
X14370056Y-7064415D01*
X14395197Y-7051355D01*
X14420571Y-7039075D01*
X14446175Y-7027579D01*
X14472008Y-7016867D01*
X14498068Y-7006940D01*
X14524353Y-6997801D01*
X14550862Y-6989450D01*
X14577591Y-6981888D01*
X14604541Y-6975118D01*
X14631708Y-6969139D01*
X14659091Y-6963955D01*
X15752348Y-7316394D02*
X15767591Y-7328947D01*
X15783404Y-7342306D01*
X15799739Y-7356421D01*
X15816549Y-7371242D01*
X15833784Y-7386718D01*
X15851396Y-7402800D01*
X15869337Y-7419435D01*
X15887558Y-7436575D01*
X15906010Y-7454169D01*
X15924646Y-7472165D01*
X15943416Y-7490515D01*
X15962272Y-7509166D01*
X15981165Y-7528070D01*
X16000048Y-7547175D01*
X16018871Y-7566431D01*
X16037586Y-7585788D01*
X16056145Y-7605194D01*
X16074499Y-7624601D01*
X16092599Y-7643956D01*
X16110398Y-7663211D01*
X16127846Y-7682314D01*
X16144895Y-7701215D01*
X16161497Y-7719863D01*
X16177603Y-7738209D01*
X16193164Y-7756201D01*
X16208133Y-7773790D01*
X16222460Y-7790924D01*
X16236097Y-7807554D01*
X16248996Y-7823628D01*
X16261108Y-7839097D01*
X16272385Y-7853911D01*
X16282778Y-7868018D01*
X16632110Y-12147232D02*
X16618753Y-12146313D01*
X16605929Y-12145214D01*
X16593605Y-12143911D01*
X16581749Y-12142381D01*
X16570329Y-12140601D01*
X16559315Y-12138548D01*
X16548674Y-12136198D01*
X16538374Y-12133529D01*
X16528383Y-12130517D01*
X16518671Y-12127139D01*
X16509205Y-12123373D01*
X16499953Y-12119195D01*
X16490884Y-12114582D01*
X16481966Y-12109510D01*
X16473166Y-12103958D01*
X16464455Y-12097901D01*
X16455799Y-12091317D01*
X16447167Y-12084182D01*
X16438527Y-12076474D01*
X16429847Y-12068168D01*
X16421097Y-12059243D01*
X16412243Y-12049675D01*
X16403254Y-12039441D01*
X16394099Y-12028518D01*
X16384745Y-12016882D01*
X16375162Y-12004511D01*
X16365316Y-11991382D01*
X16355178Y-11977471D01*
X16344713Y-11962755D01*
X16333892Y-11947212D01*
X16322682Y-11930817D01*
X16311051Y-11913549D01*
X17072846Y-11852291D02*
X17065960Y-11865944D01*
X17059001Y-11879219D01*
X17051964Y-11892122D01*
X17044843Y-11904658D01*
X17037632Y-11916831D01*
X17030326Y-11928648D01*
X17022919Y-11940114D01*
X17015406Y-11951234D01*
X17007782Y-11962013D01*
X17000041Y-11972457D01*
X16992178Y-11982571D01*
X16984186Y-11992360D01*
X16976062Y-12001830D01*
X16967798Y-12010986D01*
X16959390Y-12019833D01*
X16950832Y-12028377D01*
X16942120Y-12036622D01*
X16933246Y-12044575D01*
X16924206Y-12052241D01*
X16914994Y-12059624D01*
X16905606Y-12066730D01*
X16896034Y-12073565D01*
X16886275Y-12080134D01*
X16876322Y-12086442D01*
X16866170Y-12092495D01*
X16855814Y-12098297D01*
X16845247Y-12103854D01*
X16834465Y-12109172D01*
X16823462Y-12114256D01*
X16812233Y-12119110D01*
X16800772Y-12123741D01*
X16789074Y-12128154D01*
D11*
D12*
X14062000Y-9721000D02*
X14092000Y-9751000D01*
X14092000Y-9721000D02*
X14062000Y-9751000D01*
X14317000Y-9229000D02*
X14347000Y-9259000D01*
X14347000Y-9229000D02*
X14317000Y-9259000D01*
X14793000Y-9443000D02*
X14823000Y-9473000D01*
X14823000Y-9443000D02*
X14793000Y-9473000D01*
X14863000Y-10508000D02*
X14893000Y-10538000D01*
X14893000Y-10508000D02*
X14863000Y-10538000D01*
X15319000Y-10448000D02*
X15349000Y-10478000D01*
X15349000Y-10448000D02*
X15319000Y-10478000D01*
X16719500Y-10868000D02*
X16749500Y-10898000D01*
X16749500Y-10868000D02*
X16719500Y-10898000D01*
D11*
X13161967Y-12566848D02*
X13161967Y-12366848D01*
X13161967Y-12366848D02*
X13209586Y-12366848D01*
X13209586Y-12366848D02*
X13238157Y-12376372D01*
X13238157Y-12376372D02*
X13257205Y-12395419D01*
X13257205Y-12395419D02*
X13266729Y-12414467D01*
X13266729Y-12414467D02*
X13276253Y-12452562D01*
X13276253Y-12452562D02*
X13276253Y-12481134D01*
X13276253Y-12481134D02*
X13266729Y-12519229D01*
X13266729Y-12519229D02*
X13257205Y-12538277D01*
X13257205Y-12538277D02*
X13238157Y-12557324D01*
X13238157Y-12557324D02*
X13209586Y-12566848D01*
X13209586Y-12566848D02*
X13161967Y-12566848D01*
X13361967Y-12566848D02*
X13361967Y-12433515D01*
X13361967Y-12471610D02*
X13371491Y-12452562D01*
X13371491Y-12452562D02*
X13381015Y-12443038D01*
X13381015Y-12443038D02*
X13400062Y-12433515D01*
X13400062Y-12433515D02*
X13419110Y-12433515D01*
X13485776Y-12566848D02*
X13485776Y-12433515D01*
X13485776Y-12366848D02*
X13476253Y-12376372D01*
X13476253Y-12376372D02*
X13485776Y-12385896D01*
X13485776Y-12385896D02*
X13495300Y-12376372D01*
X13495300Y-12376372D02*
X13485776Y-12366848D01*
X13485776Y-12366848D02*
X13485776Y-12385896D01*
X13609586Y-12566848D02*
X13590538Y-12557324D01*
X13590538Y-12557324D02*
X13581015Y-12538277D01*
X13581015Y-12538277D02*
X13581015Y-12366848D01*
X13714348Y-12566848D02*
X13695300Y-12557324D01*
X13695300Y-12557324D02*
X13685776Y-12538277D01*
X13685776Y-12538277D02*
X13685776Y-12366848D01*
X13942919Y-12566848D02*
X13942919Y-12366848D01*
X13942919Y-12366848D02*
X14009586Y-12509705D01*
X14009586Y-12509705D02*
X14076253Y-12366848D01*
X14076253Y-12366848D02*
X14076253Y-12566848D01*
X14257205Y-12566848D02*
X14257205Y-12462086D01*
X14257205Y-12462086D02*
X14247681Y-12443038D01*
X14247681Y-12443038D02*
X14228634Y-12433515D01*
X14228634Y-12433515D02*
X14190538Y-12433515D01*
X14190538Y-12433515D02*
X14171491Y-12443038D01*
X14257205Y-12557324D02*
X14238157Y-12566848D01*
X14238157Y-12566848D02*
X14190538Y-12566848D01*
X14190538Y-12566848D02*
X14171491Y-12557324D01*
X14171491Y-12557324D02*
X14161967Y-12538277D01*
X14161967Y-12538277D02*
X14161967Y-12519229D01*
X14161967Y-12519229D02*
X14171491Y-12500181D01*
X14171491Y-12500181D02*
X14190538Y-12490658D01*
X14190538Y-12490658D02*
X14238157Y-12490658D01*
X14238157Y-12490658D02*
X14257205Y-12481134D01*
X14352443Y-12433515D02*
X14352443Y-12633515D01*
X14352443Y-12443038D02*
X14371491Y-12433515D01*
X14371491Y-12433515D02*
X14409586Y-12433515D01*
X14409586Y-12433515D02*
X14428634Y-12443038D01*
X14428634Y-12443038D02*
X14438157Y-12452562D01*
X14438157Y-12452562D02*
X14447681Y-12471610D01*
X14447681Y-12471610D02*
X14447681Y-12528753D01*
X14447681Y-12528753D02*
X14438157Y-12547800D01*
X14438157Y-12547800D02*
X14428634Y-12557324D01*
X14428634Y-12557324D02*
X14409586Y-12566848D01*
X14409586Y-12566848D02*
X14371491Y-12566848D01*
X14371491Y-12566848D02*
X14352443Y-12557324D01*
X14533396Y-12547800D02*
X14542919Y-12557324D01*
X14542919Y-12557324D02*
X14533396Y-12566848D01*
X14533396Y-12566848D02*
X14523872Y-12557324D01*
X14523872Y-12557324D02*
X14533396Y-12547800D01*
X14533396Y-12547800D02*
X14533396Y-12566848D01*
X14533396Y-12443038D02*
X14542919Y-12452562D01*
X14542919Y-12452562D02*
X14533396Y-12462086D01*
X14533396Y-12462086D02*
X14523872Y-12452562D01*
X14523872Y-12452562D02*
X14533396Y-12443038D01*
X14533396Y-12443038D02*
X14533396Y-12462086D01*
D12*
X12884348Y-12879324D02*
X12914348Y-12909324D01*
X12914348Y-12879324D02*
X12884348Y-12909324D01*
D11*
X13200062Y-12786848D02*
X13219110Y-12786848D01*
X13219110Y-12786848D02*
X13238157Y-12796372D01*
X13238157Y-12796372D02*
X13247681Y-12805896D01*
X13247681Y-12805896D02*
X13257205Y-12824943D01*
X13257205Y-12824943D02*
X13266729Y-12863038D01*
X13266729Y-12863038D02*
X13266729Y-12910658D01*
X13266729Y-12910658D02*
X13257205Y-12948753D01*
X13257205Y-12948753D02*
X13247681Y-12967800D01*
X13247681Y-12967800D02*
X13238157Y-12977324D01*
X13238157Y-12977324D02*
X13219110Y-12986848D01*
X13219110Y-12986848D02*
X13200062Y-12986848D01*
X13200062Y-12986848D02*
X13181015Y-12977324D01*
X13181015Y-12977324D02*
X13171491Y-12967800D01*
X13171491Y-12967800D02*
X13161967Y-12948753D01*
X13161967Y-12948753D02*
X13152443Y-12910658D01*
X13152443Y-12910658D02*
X13152443Y-12863038D01*
X13152443Y-12863038D02*
X13161967Y-12824943D01*
X13161967Y-12824943D02*
X13171491Y-12805896D01*
X13171491Y-12805896D02*
X13181015Y-12796372D01*
X13181015Y-12796372D02*
X13200062Y-12786848D01*
X13352443Y-12967800D02*
X13361967Y-12977324D01*
X13361967Y-12977324D02*
X13352443Y-12986848D01*
X13352443Y-12986848D02*
X13342919Y-12977324D01*
X13342919Y-12977324D02*
X13352443Y-12967800D01*
X13352443Y-12967800D02*
X13352443Y-12986848D01*
X13428634Y-12786848D02*
X13552443Y-12786848D01*
X13552443Y-12786848D02*
X13485776Y-12863038D01*
X13485776Y-12863038D02*
X13514348Y-12863038D01*
X13514348Y-12863038D02*
X13533396Y-12872562D01*
X13533396Y-12872562D02*
X13542919Y-12882086D01*
X13542919Y-12882086D02*
X13552443Y-12901134D01*
X13552443Y-12901134D02*
X13552443Y-12948753D01*
X13552443Y-12948753D02*
X13542919Y-12967800D01*
X13542919Y-12967800D02*
X13533396Y-12977324D01*
X13533396Y-12977324D02*
X13514348Y-12986848D01*
X13514348Y-12986848D02*
X13457205Y-12986848D01*
X13457205Y-12986848D02*
X13438157Y-12977324D01*
X13438157Y-12977324D02*
X13428634Y-12967800D01*
X13676253Y-12786848D02*
X13695300Y-12786848D01*
X13695300Y-12786848D02*
X13714348Y-12796372D01*
X13714348Y-12796372D02*
X13723872Y-12805896D01*
X13723872Y-12805896D02*
X13733396Y-12824943D01*
X13733396Y-12824943D02*
X13742919Y-12863038D01*
X13742919Y-12863038D02*
X13742919Y-12910658D01*
X13742919Y-12910658D02*
X13733396Y-12948753D01*
X13733396Y-12948753D02*
X13723872Y-12967800D01*
X13723872Y-12967800D02*
X13714348Y-12977324D01*
X13714348Y-12977324D02*
X13695300Y-12986848D01*
X13695300Y-12986848D02*
X13676253Y-12986848D01*
X13676253Y-12986848D02*
X13657205Y-12977324D01*
X13657205Y-12977324D02*
X13647681Y-12967800D01*
X13647681Y-12967800D02*
X13638157Y-12948753D01*
X13638157Y-12948753D02*
X13628634Y-12910658D01*
X13628634Y-12910658D02*
X13628634Y-12863038D01*
X13628634Y-12863038D02*
X13638157Y-12824943D01*
X13638157Y-12824943D02*
X13647681Y-12805896D01*
X13647681Y-12805896D02*
X13657205Y-12796372D01*
X13657205Y-12796372D02*
X13676253Y-12786848D01*
X13866729Y-12786848D02*
X13885777Y-12786848D01*
X13885777Y-12786848D02*
X13904824Y-12796372D01*
X13904824Y-12796372D02*
X13914348Y-12805896D01*
X13914348Y-12805896D02*
X13923872Y-12824943D01*
X13923872Y-12824943D02*
X13933396Y-12863038D01*
X13933396Y-12863038D02*
X13933396Y-12910658D01*
X13933396Y-12910658D02*
X13923872Y-12948753D01*
X13923872Y-12948753D02*
X13914348Y-12967800D01*
X13914348Y-12967800D02*
X13904824Y-12977324D01*
X13904824Y-12977324D02*
X13885777Y-12986848D01*
X13885777Y-12986848D02*
X13866729Y-12986848D01*
X13866729Y-12986848D02*
X13847681Y-12977324D01*
X13847681Y-12977324D02*
X13838157Y-12967800D01*
X13838157Y-12967800D02*
X13828634Y-12948753D01*
X13828634Y-12948753D02*
X13819110Y-12910658D01*
X13819110Y-12910658D02*
X13819110Y-12863038D01*
X13819110Y-12863038D02*
X13828634Y-12824943D01*
X13828634Y-12824943D02*
X13838157Y-12805896D01*
X13838157Y-12805896D02*
X13847681Y-12796372D01*
X13847681Y-12796372D02*
X13866729Y-12786848D01*
X14019110Y-12986848D02*
X14019110Y-12853515D01*
X14019110Y-12872562D02*
X14028634Y-12863038D01*
X14028634Y-12863038D02*
X14047681Y-12853515D01*
X14047681Y-12853515D02*
X14076253Y-12853515D01*
X14076253Y-12853515D02*
X14095300Y-12863038D01*
X14095300Y-12863038D02*
X14104824Y-12882086D01*
X14104824Y-12882086D02*
X14104824Y-12986848D01*
X14104824Y-12882086D02*
X14114348Y-12863038D01*
X14114348Y-12863038D02*
X14133396Y-12853515D01*
X14133396Y-12853515D02*
X14161967Y-12853515D01*
X14161967Y-12853515D02*
X14181015Y-12863038D01*
X14181015Y-12863038D02*
X14190538Y-12882086D01*
X14190538Y-12882086D02*
X14190538Y-12986848D01*
X14285777Y-12986848D02*
X14285777Y-12853515D01*
X14285777Y-12872562D02*
X14295300Y-12863038D01*
X14295300Y-12863038D02*
X14314348Y-12853515D01*
X14314348Y-12853515D02*
X14342919Y-12853515D01*
X14342919Y-12853515D02*
X14361967Y-12863038D01*
X14361967Y-12863038D02*
X14371491Y-12882086D01*
X14371491Y-12882086D02*
X14371491Y-12986848D01*
X14371491Y-12882086D02*
X14381015Y-12863038D01*
X14381015Y-12863038D02*
X14400062Y-12853515D01*
X14400062Y-12853515D02*
X14428634Y-12853515D01*
X14428634Y-12853515D02*
X14447681Y-12863038D01*
X14447681Y-12863038D02*
X14457205Y-12882086D01*
X14457205Y-12882086D02*
X14457205Y-12986848D01*
X14847681Y-12777324D02*
X14676253Y-13034467D01*
X15104824Y-12786848D02*
X15123872Y-12786848D01*
X15123872Y-12786848D02*
X15142920Y-12796372D01*
X15142920Y-12796372D02*
X15152443Y-12805896D01*
X15152443Y-12805896D02*
X15161967Y-12824943D01*
X15161967Y-12824943D02*
X15171491Y-12863038D01*
X15171491Y-12863038D02*
X15171491Y-12910658D01*
X15171491Y-12910658D02*
X15161967Y-12948753D01*
X15161967Y-12948753D02*
X15152443Y-12967800D01*
X15152443Y-12967800D02*
X15142920Y-12977324D01*
X15142920Y-12977324D02*
X15123872Y-12986848D01*
X15123872Y-12986848D02*
X15104824Y-12986848D01*
X15104824Y-12986848D02*
X15085777Y-12977324D01*
X15085777Y-12977324D02*
X15076253Y-12967800D01*
X15076253Y-12967800D02*
X15066729Y-12948753D01*
X15066729Y-12948753D02*
X15057205Y-12910658D01*
X15057205Y-12910658D02*
X15057205Y-12863038D01*
X15057205Y-12863038D02*
X15066729Y-12824943D01*
X15066729Y-12824943D02*
X15076253Y-12805896D01*
X15076253Y-12805896D02*
X15085777Y-12796372D01*
X15085777Y-12796372D02*
X15104824Y-12786848D01*
X15257205Y-12967800D02*
X15266729Y-12977324D01*
X15266729Y-12977324D02*
X15257205Y-12986848D01*
X15257205Y-12986848D02*
X15247681Y-12977324D01*
X15247681Y-12977324D02*
X15257205Y-12967800D01*
X15257205Y-12967800D02*
X15257205Y-12986848D01*
X15390539Y-12786848D02*
X15409586Y-12786848D01*
X15409586Y-12786848D02*
X15428634Y-12796372D01*
X15428634Y-12796372D02*
X15438158Y-12805896D01*
X15438158Y-12805896D02*
X15447681Y-12824943D01*
X15447681Y-12824943D02*
X15457205Y-12863038D01*
X15457205Y-12863038D02*
X15457205Y-12910658D01*
X15457205Y-12910658D02*
X15447681Y-12948753D01*
X15447681Y-12948753D02*
X15438158Y-12967800D01*
X15438158Y-12967800D02*
X15428634Y-12977324D01*
X15428634Y-12977324D02*
X15409586Y-12986848D01*
X15409586Y-12986848D02*
X15390539Y-12986848D01*
X15390539Y-12986848D02*
X15371491Y-12977324D01*
X15371491Y-12977324D02*
X15361967Y-12967800D01*
X15361967Y-12967800D02*
X15352443Y-12948753D01*
X15352443Y-12948753D02*
X15342920Y-12910658D01*
X15342920Y-12910658D02*
X15342920Y-12863038D01*
X15342920Y-12863038D02*
X15352443Y-12824943D01*
X15352443Y-12824943D02*
X15361967Y-12805896D01*
X15361967Y-12805896D02*
X15371491Y-12796372D01*
X15371491Y-12796372D02*
X15390539Y-12786848D01*
X15647681Y-12986848D02*
X15533396Y-12986848D01*
X15590539Y-12986848D02*
X15590539Y-12786848D01*
X15590539Y-12786848D02*
X15571491Y-12815419D01*
X15571491Y-12815419D02*
X15552443Y-12834467D01*
X15552443Y-12834467D02*
X15533396Y-12843991D01*
X15838158Y-12986848D02*
X15723872Y-12986848D01*
X15781015Y-12986848D02*
X15781015Y-12786848D01*
X15781015Y-12786848D02*
X15761967Y-12815419D01*
X15761967Y-12815419D02*
X15742920Y-12834467D01*
X15742920Y-12834467D02*
X15723872Y-12843991D01*
X15952443Y-12872562D02*
X15933396Y-12863038D01*
X15933396Y-12863038D02*
X15923872Y-12853515D01*
X15923872Y-12853515D02*
X15914348Y-12834467D01*
X15914348Y-12834467D02*
X15914348Y-12824943D01*
X15914348Y-12824943D02*
X15923872Y-12805896D01*
X15923872Y-12805896D02*
X15933396Y-12796372D01*
X15933396Y-12796372D02*
X15952443Y-12786848D01*
X15952443Y-12786848D02*
X15990539Y-12786848D01*
X15990539Y-12786848D02*
X16009586Y-12796372D01*
X16009586Y-12796372D02*
X16019110Y-12805896D01*
X16019110Y-12805896D02*
X16028634Y-12824943D01*
X16028634Y-12824943D02*
X16028634Y-12834467D01*
X16028634Y-12834467D02*
X16019110Y-12853515D01*
X16019110Y-12853515D02*
X16009586Y-12863038D01*
X16009586Y-12863038D02*
X15990539Y-12872562D01*
X15990539Y-12872562D02*
X15952443Y-12872562D01*
X15952443Y-12872562D02*
X15933396Y-12882086D01*
X15933396Y-12882086D02*
X15923872Y-12891610D01*
X15923872Y-12891610D02*
X15914348Y-12910658D01*
X15914348Y-12910658D02*
X15914348Y-12948753D01*
X15914348Y-12948753D02*
X15923872Y-12967800D01*
X15923872Y-12967800D02*
X15933396Y-12977324D01*
X15933396Y-12977324D02*
X15952443Y-12986848D01*
X15952443Y-12986848D02*
X15990539Y-12986848D01*
X15990539Y-12986848D02*
X16009586Y-12977324D01*
X16009586Y-12977324D02*
X16019110Y-12967800D01*
X16019110Y-12967800D02*
X16028634Y-12948753D01*
X16028634Y-12948753D02*
X16028634Y-12910658D01*
X16028634Y-12910658D02*
X16019110Y-12891610D01*
X16019110Y-12891610D02*
X16009586Y-12882086D01*
X16009586Y-12882086D02*
X15990539Y-12872562D01*
X16104824Y-12786848D02*
X16104824Y-12824943D01*
X16181015Y-12786848D02*
X16181015Y-12824943D01*
X16476253Y-13063038D02*
X16466729Y-13053515D01*
X16466729Y-13053515D02*
X16447682Y-13024943D01*
X16447682Y-13024943D02*
X16438158Y-13005896D01*
X16438158Y-13005896D02*
X16428634Y-12977324D01*
X16428634Y-12977324D02*
X16419110Y-12929705D01*
X16419110Y-12929705D02*
X16419110Y-12891610D01*
X16419110Y-12891610D02*
X16428634Y-12843991D01*
X16428634Y-12843991D02*
X16438158Y-12815419D01*
X16438158Y-12815419D02*
X16447682Y-12796372D01*
X16447682Y-12796372D02*
X16466729Y-12767800D01*
X16466729Y-12767800D02*
X16476253Y-12758277D01*
X16638158Y-12786848D02*
X16600062Y-12786848D01*
X16600062Y-12786848D02*
X16581015Y-12796372D01*
X16581015Y-12796372D02*
X16571491Y-12805896D01*
X16571491Y-12805896D02*
X16552443Y-12834467D01*
X16552443Y-12834467D02*
X16542920Y-12872562D01*
X16542920Y-12872562D02*
X16542920Y-12948753D01*
X16542920Y-12948753D02*
X16552443Y-12967800D01*
X16552443Y-12967800D02*
X16561967Y-12977324D01*
X16561967Y-12977324D02*
X16581015Y-12986848D01*
X16581015Y-12986848D02*
X16619110Y-12986848D01*
X16619110Y-12986848D02*
X16638158Y-12977324D01*
X16638158Y-12977324D02*
X16647682Y-12967800D01*
X16647682Y-12967800D02*
X16657205Y-12948753D01*
X16657205Y-12948753D02*
X16657205Y-12901134D01*
X16657205Y-12901134D02*
X16647682Y-12882086D01*
X16647682Y-12882086D02*
X16638158Y-12872562D01*
X16638158Y-12872562D02*
X16619110Y-12863038D01*
X16619110Y-12863038D02*
X16581015Y-12863038D01*
X16581015Y-12863038D02*
X16561967Y-12872562D01*
X16561967Y-12872562D02*
X16552443Y-12882086D01*
X16552443Y-12882086D02*
X16542920Y-12901134D01*
X16895301Y-12986848D02*
X16895301Y-12786848D01*
X16981015Y-12986848D02*
X16981015Y-12882086D01*
X16981015Y-12882086D02*
X16971491Y-12863038D01*
X16971491Y-12863038D02*
X16952444Y-12853515D01*
X16952444Y-12853515D02*
X16923872Y-12853515D01*
X16923872Y-12853515D02*
X16904825Y-12863038D01*
X16904825Y-12863038D02*
X16895301Y-12872562D01*
X17104825Y-12986848D02*
X17085777Y-12977324D01*
X17085777Y-12977324D02*
X17076253Y-12967800D01*
X17076253Y-12967800D02*
X17066729Y-12948753D01*
X17066729Y-12948753D02*
X17066729Y-12891610D01*
X17066729Y-12891610D02*
X17076253Y-12872562D01*
X17076253Y-12872562D02*
X17085777Y-12863038D01*
X17085777Y-12863038D02*
X17104825Y-12853515D01*
X17104825Y-12853515D02*
X17133396Y-12853515D01*
X17133396Y-12853515D02*
X17152444Y-12863038D01*
X17152444Y-12863038D02*
X17161967Y-12872562D01*
X17161967Y-12872562D02*
X17171491Y-12891610D01*
X17171491Y-12891610D02*
X17171491Y-12948753D01*
X17171491Y-12948753D02*
X17161967Y-12967800D01*
X17161967Y-12967800D02*
X17152444Y-12977324D01*
X17152444Y-12977324D02*
X17133396Y-12986848D01*
X17133396Y-12986848D02*
X17104825Y-12986848D01*
X17285777Y-12986848D02*
X17266729Y-12977324D01*
X17266729Y-12977324D02*
X17257206Y-12958277D01*
X17257206Y-12958277D02*
X17257206Y-12786848D01*
X17438158Y-12977324D02*
X17419110Y-12986848D01*
X17419110Y-12986848D02*
X17381015Y-12986848D01*
X17381015Y-12986848D02*
X17361967Y-12977324D01*
X17361967Y-12977324D02*
X17352444Y-12958277D01*
X17352444Y-12958277D02*
X17352444Y-12882086D01*
X17352444Y-12882086D02*
X17361967Y-12863038D01*
X17361967Y-12863038D02*
X17381015Y-12853515D01*
X17381015Y-12853515D02*
X17419110Y-12853515D01*
X17419110Y-12853515D02*
X17438158Y-12863038D01*
X17438158Y-12863038D02*
X17447682Y-12882086D01*
X17447682Y-12882086D02*
X17447682Y-12901134D01*
X17447682Y-12901134D02*
X17352444Y-12920181D01*
X17523872Y-12977324D02*
X17542920Y-12986848D01*
X17542920Y-12986848D02*
X17581015Y-12986848D01*
X17581015Y-12986848D02*
X17600063Y-12977324D01*
X17600063Y-12977324D02*
X17609587Y-12958277D01*
X17609587Y-12958277D02*
X17609587Y-12948753D01*
X17609587Y-12948753D02*
X17600063Y-12929705D01*
X17600063Y-12929705D02*
X17581015Y-12920181D01*
X17581015Y-12920181D02*
X17552444Y-12920181D01*
X17552444Y-12920181D02*
X17533396Y-12910658D01*
X17533396Y-12910658D02*
X17523872Y-12891610D01*
X17523872Y-12891610D02*
X17523872Y-12882086D01*
X17523872Y-12882086D02*
X17533396Y-12863038D01*
X17533396Y-12863038D02*
X17552444Y-12853515D01*
X17552444Y-12853515D02*
X17581015Y-12853515D01*
X17581015Y-12853515D02*
X17600063Y-12863038D01*
X17676253Y-13063038D02*
X17685777Y-13053515D01*
X17685777Y-13053515D02*
X17704825Y-13024943D01*
X17704825Y-13024943D02*
X17714348Y-13005896D01*
X17714348Y-13005896D02*
X17723872Y-12977324D01*
X17723872Y-12977324D02*
X17733396Y-12929705D01*
X17733396Y-12929705D02*
X17733396Y-12891610D01*
X17733396Y-12891610D02*
X17723872Y-12843991D01*
X17723872Y-12843991D02*
X17714348Y-12815419D01*
X17714348Y-12815419D02*
X17704825Y-12796372D01*
X17704825Y-12796372D02*
X17685777Y-12767800D01*
X17685777Y-12767800D02*
X17676253Y-12758277D01*
M02*
