G04 #@! TF.GenerationSoftware,KiCad,Pcbnew,7.0.1-0*
G04 #@! TF.CreationDate,2023-08-21T12:14:01+02:00*
G04 #@! TF.ProjectId,ghost,67686f73-742e-46b6-9963-61645f706362,rev?*
G04 #@! TF.SameCoordinates,Original*
G04 #@! TF.FileFunction,Legend,Top*
G04 #@! TF.FilePolarity,Positive*
%FSLAX46Y46*%
G04 Gerber Fmt 4.6, Leading zero omitted, Abs format (unit mm)*
G04 Created by KiCad (PCBNEW 7.0.1-0) date 2023-08-21 12:14:01*
%MOMM*%
%LPD*%
G01*
G04 APERTURE LIST*
G04 Aperture macros list*
%AMRoundRect*
0 Rectangle with rounded corners*
0 $1 Rounding radius*
0 $2 $3 $4 $5 $6 $7 $8 $9 X,Y pos of 4 corners*
0 Add a 4 corners polygon primitive as box body*
4,1,4,$2,$3,$4,$5,$6,$7,$8,$9,$2,$3,0*
0 Add four circle primitives for the rounded corners*
1,1,$1+$1,$2,$3*
1,1,$1+$1,$4,$5*
1,1,$1+$1,$6,$7*
1,1,$1+$1,$8,$9*
0 Add four rect primitives between the rounded corners*
20,1,$1+$1,$2,$3,$4,$5,0*
20,1,$1+$1,$4,$5,$6,$7,0*
20,1,$1+$1,$6,$7,$8,$9,0*
20,1,$1+$1,$8,$9,$2,$3,0*%
G04 Aperture macros list end*
%ADD10C,0.056000*%
%ADD11C,0.050600*%
%ADD12C,0.150000*%
%ADD13C,0.120000*%
%ADD14RoundRect,0.250000X-0.325000X-0.450000X0.325000X-0.450000X0.325000X0.450000X-0.325000X0.450000X0*%
%ADD15RoundRect,0.250000X-0.350000X-0.450000X0.350000X-0.450000X0.350000X0.450000X-0.350000X0.450000X0*%
%ADD16C,0.001000*%
G04 APERTURE END LIST*
D10*
X156644837Y-87962607D02*
X156583160Y-87939934D01*
X156522008Y-87916105D01*
X156461372Y-87891111D01*
X156401244Y-87864946D01*
X156341614Y-87837603D01*
X156282474Y-87809075D01*
X156223814Y-87779356D01*
X156165625Y-87748439D01*
X156107899Y-87716317D01*
X156050626Y-87682983D01*
X155993798Y-87648430D01*
X155937406Y-87612652D01*
X155881440Y-87575641D01*
X155825892Y-87537391D01*
X155770753Y-87497896D01*
X155716014Y-87457148D01*
X155661665Y-87415140D01*
X155607699Y-87371866D01*
X155554105Y-87327320D01*
X155500875Y-87281493D01*
X155448000Y-87234380D01*
X155395471Y-87185973D01*
X155343279Y-87136266D01*
X155291416Y-87085252D01*
X155239871Y-87032924D01*
X155188637Y-86979276D01*
X155137704Y-86924300D01*
X155087063Y-86867990D01*
X155036706Y-86810339D01*
X154986623Y-86751340D01*
X154936805Y-86690986D01*
X154887244Y-86629272D01*
X145169733Y-90343951D02*
X145076977Y-90309385D01*
X144985976Y-90272487D01*
X144896730Y-90233253D01*
X144809237Y-90191684D01*
X144723497Y-90147779D01*
X144639509Y-90101537D01*
X144557271Y-90052957D01*
X144476785Y-90002037D01*
X144398047Y-89948778D01*
X144321058Y-89893178D01*
X144245817Y-89835236D01*
X144172323Y-89774952D01*
X144100575Y-89712325D01*
X144030572Y-89647353D01*
X143962314Y-89580036D01*
X143895800Y-89510373D01*
X143831028Y-89438363D01*
X143767999Y-89364005D01*
X143706710Y-89287299D01*
X143647162Y-89208243D01*
X143589354Y-89126836D01*
X143533285Y-89043078D01*
X143478953Y-88956968D01*
X143426359Y-88868504D01*
X143375501Y-88777687D01*
X143326378Y-88684515D01*
X143278990Y-88588987D01*
X143233336Y-88491102D01*
X143189415Y-88390860D01*
X143147227Y-88288259D01*
X143106769Y-88183299D01*
X143068043Y-88075979D01*
D11*
X133266731Y-115413290D02*
X133294594Y-115465992D01*
X133325865Y-115520874D01*
X133360350Y-115577728D01*
X133397856Y-115636346D01*
X133438190Y-115696521D01*
X133481159Y-115758047D01*
X133526570Y-115820717D01*
X133574228Y-115884322D01*
X133623942Y-115948657D01*
X133675517Y-116013514D01*
X133728760Y-116078685D01*
X133783479Y-116143965D01*
X133839480Y-116209144D01*
X133896570Y-116274018D01*
X133954556Y-116338378D01*
X134013243Y-116402017D01*
X134072440Y-116464728D01*
X134131953Y-116526305D01*
X134191588Y-116586539D01*
X134251153Y-116645225D01*
X134310453Y-116702154D01*
X134369297Y-116757120D01*
X134427490Y-116809915D01*
X134484840Y-116860333D01*
X134541153Y-116908166D01*
X134596236Y-116953207D01*
X134649896Y-116995249D01*
X134701940Y-117034086D01*
X134752173Y-117069509D01*
X134800404Y-117101312D01*
X134846438Y-117129287D01*
X134890084Y-117153229D01*
X135890251Y-94880250D02*
X135878620Y-94943560D01*
X135864476Y-95021560D01*
X135848012Y-95113144D01*
X135838972Y-95163684D01*
X135829425Y-95217205D01*
X135819395Y-95273570D01*
X135808906Y-95332639D01*
X135797984Y-95394275D01*
X135786652Y-95458339D01*
X135774934Y-95524694D01*
X135762855Y-95593200D01*
X135750440Y-95663721D01*
X135737711Y-95736117D01*
X135724694Y-95810250D01*
X135711414Y-95885983D01*
X135697893Y-95963177D01*
X135684157Y-96041693D01*
X135670229Y-96121395D01*
X135656135Y-96202142D01*
X135641898Y-96283798D01*
X135627543Y-96366224D01*
X135613093Y-96449281D01*
X135598574Y-96532833D01*
X135584009Y-96616739D01*
X135569423Y-96700863D01*
X135554840Y-96785066D01*
X135540284Y-96869209D01*
X135525780Y-96953155D01*
X135511352Y-97036766D01*
X129810996Y-93460686D02*
X129803594Y-93397213D01*
X129797613Y-93333226D01*
X129793034Y-93268807D01*
X129789840Y-93204043D01*
X129788015Y-93139015D01*
X129787541Y-93073809D01*
X129788401Y-93008509D01*
X129790577Y-92943198D01*
X129794053Y-92877960D01*
X129798811Y-92812880D01*
X129804835Y-92748042D01*
X129812106Y-92683529D01*
X129820608Y-92619426D01*
X129830324Y-92555817D01*
X129841237Y-92492786D01*
X129853328Y-92430416D01*
X129866582Y-92368792D01*
X129880981Y-92307999D01*
X129896507Y-92248119D01*
X129913144Y-92189237D01*
X129930874Y-92131437D01*
X129949681Y-92074803D01*
X129969546Y-92019419D01*
X129990454Y-91965370D01*
X130012386Y-91912739D01*
X130035325Y-91861610D01*
X130059255Y-91812067D01*
X130084158Y-91764194D01*
X130110017Y-91718076D01*
X130136815Y-91673797D01*
X130164534Y-91631439D01*
X130193158Y-91591089D01*
D12*
X132290000Y-90970000D02*
X132660000Y-91120000D01*
X132990000Y-91290000D01*
X133460000Y-91620000D01*
X133620000Y-91720000D01*
X133680000Y-91720000D01*
X133740000Y-91690000D01*
X136410000Y-91600000D01*
X136240000Y-92820000D01*
X136030000Y-94130000D01*
X135910000Y-94760000D01*
X135810000Y-95310000D01*
X135700000Y-95890000D01*
X135650000Y-96220000D01*
X135100000Y-99150000D01*
X134940000Y-99950000D01*
X134930000Y-99990000D01*
X134710000Y-100890000D01*
X134425202Y-102266324D01*
X134240000Y-103020000D01*
X134080000Y-103610000D01*
X133940000Y-104190000D01*
X133830000Y-104580000D01*
X133450000Y-106250000D01*
X133130000Y-107800000D01*
X132970000Y-108610000D01*
X132810000Y-109490000D01*
X132730000Y-110020000D01*
X132600000Y-111160000D01*
X132580000Y-111700000D01*
X132570000Y-112240000D01*
X132580000Y-112670000D01*
X132620000Y-112990000D01*
X132640000Y-113260000D01*
X132750000Y-113890000D01*
X132800000Y-114140000D01*
X132920000Y-114560000D01*
X133080000Y-115010000D01*
X133220000Y-115320000D01*
X133380000Y-115610000D01*
X133620000Y-115940000D01*
X133890000Y-116260000D01*
X134010000Y-116390000D01*
X134290000Y-116690000D01*
X134490000Y-116860000D01*
X134740000Y-117070000D01*
X135050000Y-117240000D01*
X135130000Y-117290000D01*
X135330000Y-117420000D01*
X135600000Y-117520000D01*
X135960000Y-117600000D01*
X136240000Y-117650000D01*
X136560000Y-117720000D01*
X136830000Y-117770000D01*
X137135205Y-117793256D01*
X137560000Y-117770000D01*
X137970000Y-117720000D01*
X138420000Y-117650000D01*
X138920000Y-117540000D01*
X139440000Y-117400000D01*
X139970000Y-117230000D01*
X140550000Y-117030000D01*
X141650000Y-116540000D01*
X142010000Y-116360000D01*
X142320000Y-116180000D01*
X142820000Y-115900000D01*
X143660000Y-115460000D01*
X143920000Y-115330000D01*
X144230000Y-115180000D01*
X144510000Y-115050000D01*
X144850000Y-114900000D01*
X145130000Y-114790000D01*
X145320000Y-114720000D01*
X145690000Y-114600000D01*
X145990000Y-114530000D01*
X146490000Y-114460000D01*
X146700000Y-114440000D01*
X147130000Y-114480000D01*
X147320000Y-114540000D01*
X147580000Y-114660000D01*
X147810000Y-114820000D01*
X148090000Y-115040000D01*
X148210000Y-115180000D01*
X148410000Y-115370000D01*
X149030000Y-116020000D01*
X149300000Y-116310000D01*
X149590000Y-116590000D01*
X149890000Y-116860000D01*
X150300000Y-117170000D01*
X150640000Y-117390000D01*
X151040000Y-117620000D01*
X151470000Y-117840000D01*
X151910000Y-118030000D01*
X152170000Y-118110000D01*
X152660000Y-118230000D01*
X152990000Y-118300000D01*
X154030000Y-118320000D01*
X154350000Y-118310000D01*
X154830000Y-118250000D01*
X155310000Y-118140000D01*
X156060000Y-117890000D01*
X156690000Y-117600000D01*
X157310000Y-117250000D01*
X157880000Y-116900000D01*
X158380000Y-116570000D01*
X158980000Y-116200000D01*
X159550000Y-115910000D01*
X159740000Y-115840000D01*
X160220000Y-115730000D01*
X160780000Y-115730000D01*
X161110000Y-115770000D01*
X161300000Y-115810000D01*
X161570000Y-115910000D01*
X161850000Y-116100000D01*
X162110000Y-116290000D01*
X162410000Y-116570000D01*
X162730000Y-116870000D01*
X163100000Y-117230000D01*
X163500000Y-117650000D01*
X163920000Y-118060000D01*
X164610000Y-118680000D01*
X164930000Y-118950000D01*
X165360000Y-119290000D01*
X165990000Y-119730000D01*
X166330000Y-119950000D01*
X166740000Y-120180000D01*
X166970000Y-120310000D01*
X167440000Y-120510000D01*
X167750000Y-120610000D01*
X168040000Y-120680000D01*
X168240000Y-120760000D01*
X168290288Y-120809248D01*
X168280000Y-120860000D01*
X168240000Y-120920000D01*
X167910000Y-121060000D01*
X167610000Y-121160000D01*
X167090000Y-121280000D01*
X166733106Y-121316888D01*
X166450000Y-121320000D01*
X166070000Y-121320000D01*
X165570000Y-121210000D01*
X165290000Y-121110000D01*
X164960000Y-120930000D01*
X164680000Y-120730000D01*
X164460000Y-120540000D01*
X164250000Y-120330000D01*
X164020000Y-120070000D01*
X163790000Y-119780000D01*
X163370000Y-119190000D01*
X163180000Y-118900000D01*
X162950000Y-118570000D01*
X162670000Y-118190000D01*
X162420000Y-117890000D01*
X162170000Y-117650000D01*
X161970000Y-117470000D01*
X161660000Y-117230000D01*
X161300000Y-117060000D01*
X160920000Y-116960000D01*
X160576303Y-116930649D01*
X160280000Y-116940000D01*
X159950000Y-117010000D01*
X159760000Y-117100000D01*
X159480000Y-117280000D01*
X159230000Y-117510000D01*
X159080000Y-117680000D01*
X158850000Y-118000000D01*
X158590000Y-118400000D01*
X157870000Y-119670000D01*
X157690000Y-119970000D01*
X157360000Y-120390000D01*
X157000000Y-120810000D01*
X156500000Y-121240000D01*
X156100000Y-121510000D01*
X155670000Y-121750000D01*
X155370000Y-121880000D01*
X154740000Y-122110000D01*
X154300000Y-122210000D01*
X153950000Y-122270000D01*
X153590000Y-122290000D01*
X153250000Y-122310000D01*
X152510000Y-122220000D01*
X152010000Y-122100000D01*
X151140000Y-121750000D01*
X150510000Y-121350000D01*
X150150000Y-121070000D01*
X149660000Y-120560000D01*
X149430000Y-120300000D01*
X149220000Y-120020000D01*
X149010000Y-119710000D01*
X148830000Y-119410000D01*
X148680000Y-119170000D01*
X148130000Y-118260000D01*
X147850000Y-117850000D01*
X147510000Y-117450000D01*
X147350000Y-117310000D01*
X147110000Y-117140000D01*
X146930000Y-117040000D01*
X146720000Y-116960000D01*
X146520000Y-116910000D01*
X146380000Y-116870000D01*
X146050000Y-116840000D01*
X145540000Y-116830000D01*
X145010000Y-116870000D01*
X144590000Y-116960000D01*
X143920000Y-117280000D01*
X143860000Y-117300000D01*
X143555095Y-117506989D01*
X143210000Y-117740000D01*
X142660000Y-118110000D01*
X140940000Y-119080000D01*
X140600000Y-119240000D01*
X140160000Y-119460000D01*
X139140000Y-119890000D01*
X139020000Y-119940000D01*
X138600000Y-120090000D01*
X138110000Y-120230000D01*
X137770000Y-120310000D01*
X137370000Y-120390000D01*
X136930000Y-120450000D01*
X136610000Y-120490000D01*
X136220000Y-120520000D01*
X135930000Y-120540000D01*
X135240000Y-120530000D01*
X135100000Y-120530000D01*
X134690000Y-120500000D01*
X134250000Y-120430000D01*
X133920000Y-120380000D01*
X133360000Y-120210000D01*
X133050000Y-120110000D01*
X132600000Y-119920000D01*
X132160000Y-119710000D01*
X131800000Y-119490000D01*
X131440000Y-119240000D01*
X131020000Y-118910000D01*
X130840000Y-118740000D01*
X130530000Y-118400000D01*
X130280000Y-118050000D01*
X130090000Y-117770000D01*
X129770000Y-117120000D01*
X129640000Y-116720000D01*
X129530000Y-116340000D01*
X129480000Y-115900000D01*
X129460000Y-115550000D01*
X129500000Y-115150000D01*
X129550000Y-114790000D01*
X129650000Y-114360000D01*
X129770000Y-113950000D01*
X129940000Y-113380000D01*
X130210000Y-112530000D01*
X130720000Y-110800000D01*
X130850000Y-110240000D01*
X130960000Y-109810000D01*
X131490000Y-107480000D01*
X131580000Y-107060000D01*
X131720000Y-106270000D01*
X131840000Y-105650000D01*
X132080000Y-104210000D01*
X132200000Y-103500000D01*
X132350000Y-102510000D01*
X132470000Y-101660000D01*
X132630000Y-100520000D01*
X132778459Y-99492736D01*
X132550000Y-99180000D01*
X131980000Y-98430000D01*
X131790000Y-98150000D01*
X131420000Y-97540000D01*
X130990000Y-96750000D01*
X130630000Y-95990000D01*
X130230000Y-95000000D01*
X130040000Y-94440000D01*
X129910000Y-94000000D01*
X129810000Y-93570000D01*
X129780000Y-93070000D01*
X129830000Y-92530000D01*
X129910000Y-92170000D01*
X130020000Y-91870000D01*
X130193158Y-91591089D01*
X130390000Y-91390000D01*
X130600000Y-91250000D01*
X130850000Y-91100000D01*
X131210000Y-90950000D01*
X131610000Y-90880000D01*
X131900000Y-90880000D01*
X132290000Y-90970000D01*
G36*
X132290000Y-90970000D02*
G01*
X132660000Y-91120000D01*
X132990000Y-91290000D01*
X133460000Y-91620000D01*
X133620000Y-91720000D01*
X133680000Y-91720000D01*
X133740000Y-91690000D01*
X136410000Y-91600000D01*
X136240000Y-92820000D01*
X136030000Y-94130000D01*
X135910000Y-94760000D01*
X135810000Y-95310000D01*
X135700000Y-95890000D01*
X135650000Y-96220000D01*
X135100000Y-99150000D01*
X134940000Y-99950000D01*
X134930000Y-99990000D01*
X134710000Y-100890000D01*
X134425202Y-102266324D01*
X134240000Y-103020000D01*
X134080000Y-103610000D01*
X133940000Y-104190000D01*
X133830000Y-104580000D01*
X133450000Y-106250000D01*
X133130000Y-107800000D01*
X132970000Y-108610000D01*
X132810000Y-109490000D01*
X132730000Y-110020000D01*
X132600000Y-111160000D01*
X132580000Y-111700000D01*
X132570000Y-112240000D01*
X132580000Y-112670000D01*
X132620000Y-112990000D01*
X132640000Y-113260000D01*
X132750000Y-113890000D01*
X132800000Y-114140000D01*
X132920000Y-114560000D01*
X133080000Y-115010000D01*
X133220000Y-115320000D01*
X133380000Y-115610000D01*
X133620000Y-115940000D01*
X133890000Y-116260000D01*
X134010000Y-116390000D01*
X134290000Y-116690000D01*
X134490000Y-116860000D01*
X134740000Y-117070000D01*
X135050000Y-117240000D01*
X135130000Y-117290000D01*
X135330000Y-117420000D01*
X135600000Y-117520000D01*
X135960000Y-117600000D01*
X136240000Y-117650000D01*
X136560000Y-117720000D01*
X136830000Y-117770000D01*
X137135205Y-117793256D01*
X137560000Y-117770000D01*
X137970000Y-117720000D01*
X138420000Y-117650000D01*
X138920000Y-117540000D01*
X139440000Y-117400000D01*
X139970000Y-117230000D01*
X140550000Y-117030000D01*
X141650000Y-116540000D01*
X142010000Y-116360000D01*
X142320000Y-116180000D01*
X142820000Y-115900000D01*
X143660000Y-115460000D01*
X143920000Y-115330000D01*
X144230000Y-115180000D01*
X144510000Y-115050000D01*
X144850000Y-114900000D01*
X145130000Y-114790000D01*
X145320000Y-114720000D01*
X145690000Y-114600000D01*
X145990000Y-114530000D01*
X146490000Y-114460000D01*
X146700000Y-114440000D01*
X147130000Y-114480000D01*
X147320000Y-114540000D01*
X147580000Y-114660000D01*
X147810000Y-114820000D01*
X148090000Y-115040000D01*
X148210000Y-115180000D01*
X148410000Y-115370000D01*
X149030000Y-116020000D01*
X149300000Y-116310000D01*
X149590000Y-116590000D01*
X149890000Y-116860000D01*
X150300000Y-117170000D01*
X150640000Y-117390000D01*
X151040000Y-117620000D01*
X151470000Y-117840000D01*
X151910000Y-118030000D01*
X152170000Y-118110000D01*
X152660000Y-118230000D01*
X152990000Y-118300000D01*
X154030000Y-118320000D01*
X154350000Y-118310000D01*
X154830000Y-118250000D01*
X155310000Y-118140000D01*
X156060000Y-117890000D01*
X156690000Y-117600000D01*
X157310000Y-117250000D01*
X157880000Y-116900000D01*
X158380000Y-116570000D01*
X158980000Y-116200000D01*
X159550000Y-115910000D01*
X159740000Y-115840000D01*
X160220000Y-115730000D01*
X160780000Y-115730000D01*
X161110000Y-115770000D01*
X161300000Y-115810000D01*
X161570000Y-115910000D01*
X161850000Y-116100000D01*
X162110000Y-116290000D01*
X162410000Y-116570000D01*
X162730000Y-116870000D01*
X163100000Y-117230000D01*
X163500000Y-117650000D01*
X163920000Y-118060000D01*
X164610000Y-118680000D01*
X164930000Y-118950000D01*
X165360000Y-119290000D01*
X165990000Y-119730000D01*
X166330000Y-119950000D01*
X166740000Y-120180000D01*
X166970000Y-120310000D01*
X167440000Y-120510000D01*
X167750000Y-120610000D01*
X168040000Y-120680000D01*
X168240000Y-120760000D01*
X168290288Y-120809248D01*
X168280000Y-120860000D01*
X168240000Y-120920000D01*
X167910000Y-121060000D01*
X167610000Y-121160000D01*
X167090000Y-121280000D01*
X166733106Y-121316888D01*
X166450000Y-121320000D01*
X166070000Y-121320000D01*
X165570000Y-121210000D01*
X165290000Y-121110000D01*
X164960000Y-120930000D01*
X164680000Y-120730000D01*
X164460000Y-120540000D01*
X164250000Y-120330000D01*
X164020000Y-120070000D01*
X163790000Y-119780000D01*
X163370000Y-119190000D01*
X163180000Y-118900000D01*
X162950000Y-118570000D01*
X162670000Y-118190000D01*
X162420000Y-117890000D01*
X162170000Y-117650000D01*
X161970000Y-117470000D01*
X161660000Y-117230000D01*
X161300000Y-117060000D01*
X160920000Y-116960000D01*
X160576303Y-116930649D01*
X160280000Y-116940000D01*
X159950000Y-117010000D01*
X159760000Y-117100000D01*
X159480000Y-117280000D01*
X159230000Y-117510000D01*
X159080000Y-117680000D01*
X158850000Y-118000000D01*
X158590000Y-118400000D01*
X157870000Y-119670000D01*
X157690000Y-119970000D01*
X157360000Y-120390000D01*
X157000000Y-120810000D01*
X156500000Y-121240000D01*
X156100000Y-121510000D01*
X155670000Y-121750000D01*
X155370000Y-121880000D01*
X154740000Y-122110000D01*
X154300000Y-122210000D01*
X153950000Y-122270000D01*
X153590000Y-122290000D01*
X153250000Y-122310000D01*
X152510000Y-122220000D01*
X152010000Y-122100000D01*
X151140000Y-121750000D01*
X150510000Y-121350000D01*
X150150000Y-121070000D01*
X149660000Y-120560000D01*
X149430000Y-120300000D01*
X149220000Y-120020000D01*
X149010000Y-119710000D01*
X148830000Y-119410000D01*
X148680000Y-119170000D01*
X148130000Y-118260000D01*
X147850000Y-117850000D01*
X147510000Y-117450000D01*
X147350000Y-117310000D01*
X147110000Y-117140000D01*
X146930000Y-117040000D01*
X146720000Y-116960000D01*
X146520000Y-116910000D01*
X146380000Y-116870000D01*
X146050000Y-116840000D01*
X145540000Y-116830000D01*
X145010000Y-116870000D01*
X144590000Y-116960000D01*
X143920000Y-117280000D01*
X143860000Y-117300000D01*
X143555095Y-117506989D01*
X143210000Y-117740000D01*
X142660000Y-118110000D01*
X140940000Y-119080000D01*
X140600000Y-119240000D01*
X140160000Y-119460000D01*
X139140000Y-119890000D01*
X139020000Y-119940000D01*
X138600000Y-120090000D01*
X138110000Y-120230000D01*
X137770000Y-120310000D01*
X137370000Y-120390000D01*
X136930000Y-120450000D01*
X136610000Y-120490000D01*
X136220000Y-120520000D01*
X135930000Y-120540000D01*
X135240000Y-120530000D01*
X135100000Y-120530000D01*
X134690000Y-120500000D01*
X134250000Y-120430000D01*
X133920000Y-120380000D01*
X133360000Y-120210000D01*
X133050000Y-120110000D01*
X132600000Y-119920000D01*
X132160000Y-119710000D01*
X131800000Y-119490000D01*
X131440000Y-119240000D01*
X131020000Y-118910000D01*
X130840000Y-118740000D01*
X130530000Y-118400000D01*
X130280000Y-118050000D01*
X130090000Y-117770000D01*
X129770000Y-117120000D01*
X129640000Y-116720000D01*
X129530000Y-116340000D01*
X129480000Y-115900000D01*
X129460000Y-115550000D01*
X129500000Y-115150000D01*
X129550000Y-114790000D01*
X129650000Y-114360000D01*
X129770000Y-113950000D01*
X129940000Y-113380000D01*
X130210000Y-112530000D01*
X130720000Y-110800000D01*
X130850000Y-110240000D01*
X130960000Y-109810000D01*
X131490000Y-107480000D01*
X131580000Y-107060000D01*
X131720000Y-106270000D01*
X131840000Y-105650000D01*
X132080000Y-104210000D01*
X132200000Y-103500000D01*
X132350000Y-102510000D01*
X132470000Y-101660000D01*
X132630000Y-100520000D01*
X132778459Y-99492736D01*
X132550000Y-99180000D01*
X131980000Y-98430000D01*
X131790000Y-98150000D01*
X131420000Y-97540000D01*
X130990000Y-96750000D01*
X130630000Y-95990000D01*
X130230000Y-95000000D01*
X130040000Y-94440000D01*
X129910000Y-94000000D01*
X129810000Y-93570000D01*
X129780000Y-93070000D01*
X129830000Y-92530000D01*
X129910000Y-92170000D01*
X130020000Y-91870000D01*
X130193158Y-91591089D01*
X130390000Y-91390000D01*
X130600000Y-91250000D01*
X130850000Y-91100000D01*
X131210000Y-90950000D01*
X131610000Y-90880000D01*
X131900000Y-90880000D01*
X132290000Y-90970000D01*
G37*
D11*
X152183527Y-122151307D02*
X152043794Y-122111865D01*
X151906539Y-122069334D01*
X151771698Y-122023657D01*
X151639206Y-121974778D01*
X151508997Y-121922641D01*
X151381006Y-121867190D01*
X151255168Y-121808369D01*
X151131418Y-121746122D01*
X151009692Y-121680392D01*
X150889923Y-121611124D01*
X150772048Y-121538262D01*
X150656001Y-121461749D01*
X150541716Y-121381530D01*
X150429130Y-121297548D01*
X150318176Y-121209747D01*
X150208790Y-121118072D01*
X150100907Y-121022466D01*
X149994461Y-120922873D01*
X149889389Y-120819237D01*
X149785623Y-120711502D01*
X149683101Y-120599612D01*
X149581756Y-120483510D01*
X149481523Y-120363142D01*
X149382338Y-120238450D01*
X149284135Y-120109379D01*
X149186849Y-119975872D01*
X149090416Y-119837874D01*
X148994770Y-119695328D01*
X148899846Y-119548179D01*
X148805579Y-119396370D01*
X148711904Y-119239845D01*
X148618757Y-119078549D01*
X134214800Y-103128933D02*
X134188339Y-103217920D01*
X134160008Y-103317003D01*
X134129904Y-103425741D01*
X134098130Y-103543690D01*
X134064783Y-103670408D01*
X134029965Y-103805453D01*
X133993775Y-103948382D01*
X133956314Y-104098752D01*
X133917681Y-104256122D01*
X133877976Y-104420049D01*
X133837300Y-104590090D01*
X133795751Y-104765803D01*
X133753431Y-104946746D01*
X133710439Y-105132475D01*
X133666875Y-105322549D01*
X133622840Y-105516525D01*
X133578432Y-105713961D01*
X133533753Y-105914414D01*
X133488902Y-106117442D01*
X133443978Y-106322602D01*
X133399083Y-106529452D01*
X133354316Y-106737550D01*
X133309777Y-106946452D01*
X133265565Y-107155717D01*
X133221782Y-107364902D01*
X133178526Y-107573565D01*
X133135899Y-107781262D01*
X133093999Y-107987553D01*
X133052927Y-108191993D01*
X133012783Y-108394142D01*
X132973666Y-108593556D01*
X132935678Y-108789793D01*
D12*
X155690000Y-79180000D02*
X156100000Y-79260000D01*
X156590000Y-79450000D01*
X157220000Y-79800000D01*
X157620000Y-80090000D01*
X158240000Y-80660000D01*
X158710000Y-81190000D01*
X159390000Y-82220000D01*
X159710000Y-82920000D01*
X159950000Y-83590000D01*
X160060000Y-84040000D01*
X160110000Y-84340000D01*
X160160000Y-84890000D01*
X160140000Y-85290000D01*
X160110000Y-85640000D01*
X159940000Y-86210000D01*
X159630000Y-86750000D01*
X159280000Y-87180000D01*
X158910000Y-87490000D01*
X158460000Y-87780000D01*
X157820000Y-88020000D01*
X157620000Y-88070000D01*
X157320000Y-88100000D01*
X157110000Y-88100000D01*
X156900000Y-88060000D01*
X156240000Y-87790000D01*
X155970000Y-87640000D01*
X155730000Y-87470000D01*
X155540000Y-87320000D01*
X155110000Y-86880000D01*
X154920000Y-86670000D01*
X154760000Y-86470000D01*
X154580000Y-86220000D01*
X154170000Y-85490000D01*
X154120000Y-85400000D01*
X153990000Y-85130000D01*
X153840000Y-84790000D01*
X153660000Y-84270000D01*
X153610000Y-84160000D01*
X153530000Y-83850000D01*
X153410000Y-83410000D01*
X153300000Y-82740000D01*
X153230000Y-82030000D01*
X153270000Y-81180000D01*
X153380000Y-80610000D01*
X153640000Y-80030000D01*
X153750000Y-79870000D01*
X153830000Y-79770000D01*
X154030000Y-79590000D01*
X154360000Y-79370000D01*
X154750000Y-79230000D01*
X155310000Y-79150000D01*
X155690000Y-79180000D01*
G36*
X155690000Y-79180000D02*
G01*
X156100000Y-79260000D01*
X156590000Y-79450000D01*
X157220000Y-79800000D01*
X157620000Y-80090000D01*
X158240000Y-80660000D01*
X158710000Y-81190000D01*
X159390000Y-82220000D01*
X159710000Y-82920000D01*
X159950000Y-83590000D01*
X160060000Y-84040000D01*
X160110000Y-84340000D01*
X160160000Y-84890000D01*
X160140000Y-85290000D01*
X160110000Y-85640000D01*
X159940000Y-86210000D01*
X159630000Y-86750000D01*
X159280000Y-87180000D01*
X158910000Y-87490000D01*
X158460000Y-87780000D01*
X157820000Y-88020000D01*
X157620000Y-88070000D01*
X157320000Y-88100000D01*
X157110000Y-88100000D01*
X156900000Y-88060000D01*
X156240000Y-87790000D01*
X155970000Y-87640000D01*
X155730000Y-87470000D01*
X155540000Y-87320000D01*
X155110000Y-86880000D01*
X154920000Y-86670000D01*
X154760000Y-86470000D01*
X154580000Y-86220000D01*
X154170000Y-85490000D01*
X154120000Y-85400000D01*
X153990000Y-85130000D01*
X153840000Y-84790000D01*
X153660000Y-84270000D01*
X153610000Y-84160000D01*
X153530000Y-83850000D01*
X153410000Y-83410000D01*
X153300000Y-82740000D01*
X153230000Y-82030000D01*
X153270000Y-81180000D01*
X153380000Y-80610000D01*
X153640000Y-80030000D01*
X153750000Y-79870000D01*
X153830000Y-79770000D01*
X154030000Y-79590000D01*
X154360000Y-79370000D01*
X154750000Y-79230000D01*
X155310000Y-79150000D01*
X155690000Y-79180000D01*
G37*
D10*
X148711824Y-94118803D02*
X148681041Y-94037630D01*
X148654388Y-93965530D01*
X148631879Y-93901633D01*
X148613524Y-93845067D01*
X148593812Y-93772063D01*
X148583521Y-93710661D01*
X148584529Y-93641763D01*
X148602466Y-93581308D01*
X148637431Y-93522335D01*
X148674892Y-93474889D01*
X148722033Y-93421424D01*
X145336562Y-81323412D02*
X145484686Y-81258938D01*
X145630825Y-81205564D01*
X145774927Y-81163244D01*
X145916943Y-81131934D01*
X146056825Y-81111588D01*
X146194522Y-81102161D01*
X146329985Y-81103607D01*
X146463165Y-81115881D01*
X146594012Y-81138938D01*
X146722477Y-81172732D01*
X146848510Y-81217218D01*
X146972062Y-81272351D01*
X147093084Y-81338085D01*
X147211526Y-81414376D01*
X147327339Y-81501177D01*
X147440472Y-81598444D01*
X147550878Y-81706130D01*
X147658506Y-81824192D01*
X147763307Y-81952583D01*
X147865231Y-82091258D01*
X147964230Y-82240172D01*
X148060253Y-82399280D01*
X148153251Y-82568536D01*
X148243175Y-82747895D01*
X148329976Y-82937311D01*
X148413603Y-83136740D01*
X148494008Y-83346135D01*
X148571141Y-83565452D01*
X148644952Y-83794646D01*
X148715393Y-84033670D01*
X148782414Y-84282480D01*
X148845965Y-84541031D01*
D11*
X129530000Y-116290000D02*
X129516169Y-116213599D01*
X129503867Y-116138042D01*
X129493128Y-116063104D01*
X129483988Y-115988559D01*
X129476481Y-115914185D01*
X129470642Y-115839757D01*
X129466506Y-115765049D01*
X129464109Y-115689838D01*
X129463484Y-115613900D01*
X129464668Y-115537010D01*
X129467694Y-115458943D01*
X129472599Y-115379476D01*
X129479416Y-115298383D01*
X129488181Y-115215441D01*
X129498928Y-115130425D01*
X129511693Y-115043110D01*
X129526511Y-114953273D01*
X129543416Y-114860689D01*
X129562444Y-114765133D01*
X129583629Y-114666382D01*
X129607006Y-114564210D01*
X129632610Y-114458393D01*
X129660477Y-114348708D01*
X129690641Y-114234929D01*
X129723136Y-114116832D01*
X129757999Y-113994193D01*
X129795264Y-113866787D01*
X129834965Y-113734390D01*
X129877138Y-113596779D01*
X129921818Y-113453727D01*
X129969040Y-113305011D01*
X130018839Y-113150407D01*
X148618757Y-119078549D02*
X148519559Y-118905202D01*
X148423615Y-118740661D01*
X148330637Y-118584707D01*
X148240338Y-118437125D01*
X148152432Y-118297698D01*
X148066631Y-118166208D01*
X147982649Y-118042439D01*
X147900200Y-117926174D01*
X147818995Y-117817197D01*
X147738750Y-117715290D01*
X147659175Y-117620237D01*
X147579986Y-117531821D01*
X147500895Y-117449826D01*
X147421616Y-117374033D01*
X147341860Y-117304228D01*
X147261343Y-117240192D01*
X147179777Y-117181709D01*
X147096874Y-117128563D01*
X147012350Y-117080536D01*
X146925915Y-117037412D01*
X146837285Y-116998973D01*
X146746171Y-116965004D01*
X146652288Y-116935288D01*
X146555348Y-116909607D01*
X146455065Y-116887744D01*
X146351152Y-116869484D01*
X146243322Y-116854609D01*
X146131288Y-116842903D01*
X146014763Y-116834148D01*
X145893461Y-116828128D01*
X145767095Y-116824626D01*
X145635379Y-116823426D01*
X137844127Y-81542497D02*
X137812730Y-81699506D01*
X137781488Y-81858598D01*
X137750412Y-82019699D01*
X137719513Y-82182731D01*
X137688803Y-82347619D01*
X137658294Y-82514288D01*
X137627997Y-82682662D01*
X137597925Y-82852664D01*
X137568087Y-83024220D01*
X137538497Y-83197254D01*
X137509165Y-83371690D01*
X137480104Y-83547452D01*
X137451325Y-83724464D01*
X137422839Y-83902651D01*
X137394658Y-84081937D01*
X137366794Y-84262247D01*
X137339258Y-84443505D01*
X137312062Y-84625634D01*
X137285217Y-84808560D01*
X137258736Y-84992206D01*
X137232629Y-85176497D01*
X137206909Y-85361358D01*
X137181586Y-85546712D01*
X137156673Y-85732483D01*
X137132181Y-85918597D01*
X137108122Y-86104977D01*
X137084507Y-86291547D01*
X137061347Y-86478233D01*
X137038656Y-86664957D01*
X137016443Y-86851645D01*
X136994721Y-87038221D01*
X136973502Y-87224610D01*
D10*
X149630425Y-93206095D02*
X149713949Y-93205313D01*
X149801637Y-93203099D01*
X149893256Y-93199487D01*
X149988570Y-93194515D01*
X150087345Y-93188219D01*
X150189346Y-93180635D01*
X150294338Y-93171800D01*
X150402086Y-93161750D01*
X150512357Y-93150522D01*
X150624916Y-93138152D01*
X150739527Y-93124677D01*
X150855956Y-93110133D01*
X150973968Y-93094556D01*
X151093330Y-93077982D01*
X151213805Y-93060450D01*
X151335160Y-93041993D01*
X151457160Y-93022650D01*
X151579570Y-93002457D01*
X151702155Y-92981449D01*
X151824682Y-92959664D01*
X151946914Y-92937138D01*
X152068618Y-92913907D01*
X152189559Y-92890008D01*
X152309503Y-92865477D01*
X152428214Y-92840351D01*
X152545457Y-92814665D01*
X152661000Y-92788457D01*
X152774605Y-92761763D01*
X152886040Y-92734619D01*
X152995069Y-92707062D01*
X153101458Y-92679129D01*
X153204972Y-92650855D01*
D11*
X160576303Y-116930649D02*
X160487246Y-116932061D01*
X160400651Y-116936392D01*
X160316366Y-116943779D01*
X160234240Y-116954360D01*
X160154123Y-116968273D01*
X160075865Y-116985657D01*
X159999313Y-117006648D01*
X159924318Y-117031387D01*
X159850729Y-117060009D01*
X159778395Y-117092655D01*
X159707165Y-117129461D01*
X159636889Y-117170565D01*
X159567416Y-117216107D01*
X159498596Y-117266224D01*
X159430276Y-117321053D01*
X159362308Y-117380734D01*
X159294539Y-117445404D01*
X159226820Y-117515201D01*
X159158999Y-117590264D01*
X159090926Y-117670730D01*
X159022450Y-117756737D01*
X158953421Y-117848424D01*
X158883687Y-117945929D01*
X158813098Y-118049390D01*
X158741503Y-118158944D01*
X158668752Y-118274731D01*
X158594693Y-118396887D01*
X158519177Y-118525552D01*
X158442052Y-118660863D01*
X158363167Y-118802958D01*
X158282372Y-118951975D01*
X158199517Y-119108054D01*
D12*
X136431178Y-91429822D02*
X136410000Y-91600000D01*
X135900000Y-91720000D01*
X135980000Y-91380000D01*
X136431178Y-91429822D01*
G36*
X136431178Y-91429822D02*
G01*
X136410000Y-91600000D01*
X135900000Y-91720000D01*
X135980000Y-91380000D01*
X136431178Y-91429822D01*
G37*
D10*
X154818907Y-96251459D02*
X154724929Y-96279232D01*
X154627969Y-96305026D01*
X154528217Y-96328845D01*
X154425866Y-96350691D01*
X154321106Y-96370570D01*
X154214129Y-96388485D01*
X154105127Y-96404440D01*
X153994292Y-96418439D01*
X153881814Y-96430487D01*
X153767886Y-96440586D01*
X153652699Y-96448742D01*
X153536444Y-96454957D01*
X153419314Y-96459237D01*
X153301499Y-96461584D01*
X153183192Y-96462004D01*
X153064583Y-96460499D01*
X152945864Y-96457075D01*
X152827228Y-96451734D01*
X152708865Y-96444481D01*
X152590966Y-96435320D01*
X152473725Y-96424255D01*
X152357331Y-96411290D01*
X152241977Y-96396429D01*
X152127855Y-96379675D01*
X152015155Y-96361033D01*
X151904069Y-96340507D01*
X151794790Y-96318101D01*
X151687507Y-96293818D01*
X151582414Y-96267663D01*
X151479701Y-96239639D01*
X151379561Y-96209752D01*
X151282184Y-96178004D01*
D12*
X146470000Y-81120000D02*
X146840000Y-81220000D01*
X147130000Y-81350000D01*
X147440000Y-81580000D01*
X147740000Y-81920000D01*
X147930000Y-82180000D01*
X148300000Y-82860000D01*
X148540000Y-83470000D01*
X148810000Y-84400000D01*
X148930000Y-85030000D01*
X148980000Y-85690000D01*
X148930000Y-87030000D01*
X148870000Y-87560000D01*
X148750000Y-88130000D01*
X148500000Y-88820000D01*
X148240000Y-89230000D01*
X147970000Y-89590000D01*
X147610000Y-89950000D01*
X147050000Y-90280000D01*
X146650000Y-90420000D01*
X146330000Y-90490000D01*
X145830000Y-90490000D01*
X145169735Y-90343951D01*
X144630000Y-90090000D01*
X144150000Y-89760000D01*
X143730000Y-89330000D01*
X143430000Y-88860000D01*
X143170000Y-88330000D01*
X143068043Y-88075979D01*
X142900000Y-87120000D01*
X142860000Y-86300000D01*
X142880000Y-85450000D01*
X142990000Y-84700000D01*
X143120000Y-84230000D01*
X143420000Y-83440000D01*
X143860000Y-82640000D01*
X144540000Y-81850000D01*
X145336562Y-81323412D01*
X145920000Y-81110000D01*
X146210000Y-81100000D01*
X146250000Y-81100000D01*
X146470000Y-81120000D01*
G36*
X146470000Y-81120000D02*
G01*
X146840000Y-81220000D01*
X147130000Y-81350000D01*
X147440000Y-81580000D01*
X147740000Y-81920000D01*
X147930000Y-82180000D01*
X148300000Y-82860000D01*
X148540000Y-83470000D01*
X148810000Y-84400000D01*
X148930000Y-85030000D01*
X148980000Y-85690000D01*
X148930000Y-87030000D01*
X148870000Y-87560000D01*
X148750000Y-88130000D01*
X148500000Y-88820000D01*
X148240000Y-89230000D01*
X147970000Y-89590000D01*
X147610000Y-89950000D01*
X147050000Y-90280000D01*
X146650000Y-90420000D01*
X146330000Y-90490000D01*
X145830000Y-90490000D01*
X145169735Y-90343951D01*
X144630000Y-90090000D01*
X144150000Y-89760000D01*
X143730000Y-89330000D01*
X143430000Y-88860000D01*
X143170000Y-88330000D01*
X143068043Y-88075979D01*
X142900000Y-87120000D01*
X142860000Y-86300000D01*
X142880000Y-85450000D01*
X142990000Y-84700000D01*
X143120000Y-84230000D01*
X143420000Y-83440000D01*
X143860000Y-82640000D01*
X144540000Y-81850000D01*
X145336562Y-81323412D01*
X145920000Y-81110000D01*
X146210000Y-81100000D01*
X146250000Y-81100000D01*
X146470000Y-81120000D01*
G37*
D11*
X136431178Y-91429822D02*
X136419350Y-91522150D01*
X136406926Y-91617200D01*
X136393931Y-91714800D01*
X136380392Y-91814779D01*
X136366337Y-91916962D01*
X136351792Y-92021179D01*
X136336785Y-92127257D01*
X136321342Y-92235024D01*
X136305490Y-92344307D01*
X136289257Y-92454935D01*
X136272670Y-92566735D01*
X136255754Y-92679534D01*
X136238539Y-92793161D01*
X136221050Y-92907444D01*
X136203314Y-93022210D01*
X136185359Y-93137286D01*
X136167211Y-93252502D01*
X136148897Y-93367683D01*
X136130446Y-93482659D01*
X136111882Y-93597257D01*
X136093234Y-93711305D01*
X136074529Y-93824630D01*
X136055793Y-93937060D01*
X136037053Y-94048423D01*
X136018337Y-94158547D01*
X135999672Y-94267260D01*
X135981084Y-94374389D01*
X135962600Y-94479762D01*
X135944248Y-94583207D01*
X135926054Y-94684551D01*
X135908046Y-94783623D01*
X135890251Y-94880250D01*
X163393625Y-117542806D02*
X163546399Y-117697621D01*
X163699656Y-117849589D01*
X163853266Y-117998624D01*
X164007101Y-118144635D01*
X164161035Y-118287534D01*
X164314938Y-118427234D01*
X164468683Y-118563646D01*
X164622141Y-118696680D01*
X164775186Y-118826250D01*
X164927689Y-118952267D01*
X165079521Y-119074641D01*
X165230556Y-119193286D01*
X165380664Y-119308112D01*
X165529719Y-119419030D01*
X165677592Y-119525954D01*
X165824156Y-119628793D01*
X165969281Y-119727461D01*
X166112841Y-119821868D01*
X166254708Y-119911926D01*
X166394753Y-119997546D01*
X166532848Y-120078641D01*
X166668866Y-120155122D01*
X166802678Y-120226900D01*
X166934158Y-120293887D01*
X167063175Y-120355995D01*
X167189604Y-120413136D01*
X167313315Y-120465220D01*
X167434182Y-120512159D01*
X167552075Y-120553866D01*
X167666867Y-120590252D01*
X167778430Y-120621228D01*
X167886637Y-120646706D01*
X132935678Y-108789793D02*
X132884163Y-109065447D01*
X132836605Y-109335969D01*
X132793006Y-109601429D01*
X132753370Y-109861896D01*
X132717701Y-110117441D01*
X132686001Y-110368135D01*
X132658275Y-110614047D01*
X132634525Y-110855247D01*
X132614756Y-111091807D01*
X132598971Y-111323796D01*
X132587173Y-111551284D01*
X132579366Y-111774342D01*
X132575554Y-111993040D01*
X132575739Y-112207448D01*
X132579926Y-112417636D01*
X132588118Y-112623675D01*
X132600319Y-112825635D01*
X132616531Y-113023585D01*
X132636759Y-113217597D01*
X132661006Y-113407741D01*
X132689275Y-113594086D01*
X132721571Y-113776704D01*
X132757896Y-113955663D01*
X132798254Y-114131036D01*
X132842649Y-114302890D01*
X132891084Y-114471298D01*
X132943562Y-114636329D01*
X133000087Y-114798053D01*
X133060663Y-114956541D01*
X133125294Y-115111863D01*
X133193982Y-115264089D01*
X133266731Y-115413290D01*
D10*
X143078347Y-84389742D02*
X143122016Y-84249432D01*
X143167674Y-84111650D01*
X143215294Y-83976430D01*
X143264852Y-83843805D01*
X143316322Y-83713810D01*
X143369679Y-83586479D01*
X143424898Y-83461847D01*
X143481954Y-83339948D01*
X143540820Y-83220816D01*
X143601473Y-83104485D01*
X143663886Y-82990991D01*
X143728035Y-82880366D01*
X143793894Y-82772646D01*
X143861438Y-82667864D01*
X143930642Y-82566056D01*
X144001480Y-82467255D01*
X144073928Y-82371495D01*
X144147959Y-82278811D01*
X144223549Y-82189237D01*
X144300672Y-82102808D01*
X144379304Y-82019558D01*
X144459418Y-81939520D01*
X144540990Y-81862730D01*
X144623994Y-81789222D01*
X144708405Y-81719030D01*
X144794199Y-81652188D01*
X144881348Y-81588730D01*
X144969829Y-81528692D01*
X145059616Y-81472106D01*
X145150684Y-81419008D01*
X145243008Y-81369432D01*
X145336562Y-81323412D01*
D11*
X134890084Y-117153229D02*
X134936173Y-117177357D01*
X134981350Y-117201707D01*
X135039110Y-117233881D01*
X135092711Y-117264917D01*
X135140703Y-117293937D01*
X135190598Y-117326042D01*
X135231926Y-117356191D01*
X135243577Y-117366976D01*
D10*
X158304019Y-80726380D02*
X158451230Y-80888153D01*
X158592966Y-81053762D01*
X158729143Y-81222911D01*
X158859678Y-81395303D01*
X158984486Y-81570643D01*
X159103485Y-81748633D01*
X159216591Y-81928978D01*
X159323721Y-82111382D01*
X159424791Y-82295549D01*
X159519718Y-82481182D01*
X159608419Y-82667985D01*
X159690809Y-82855662D01*
X159766805Y-83043918D01*
X159836325Y-83232455D01*
X159899284Y-83420978D01*
X159955599Y-83609191D01*
X160005187Y-83796797D01*
X160047964Y-83983501D01*
X160083846Y-84169005D01*
X160112751Y-84353015D01*
X160134595Y-84535233D01*
X160149294Y-84715364D01*
X160156765Y-84893112D01*
X160156925Y-85068180D01*
X160149689Y-85240272D01*
X160134975Y-85409093D01*
X160112699Y-85574345D01*
X160082778Y-85735734D01*
X160045128Y-85892962D01*
X159999666Y-86045733D01*
X159946308Y-86193752D01*
X159884972Y-86336723D01*
D11*
X158199517Y-119108054D02*
X158114898Y-119265345D01*
X158028663Y-119418374D01*
X157940778Y-119567166D01*
X157851214Y-119711747D01*
X157759938Y-119852143D01*
X157666919Y-119988380D01*
X157572127Y-120120484D01*
X157475529Y-120248481D01*
X157377095Y-120372397D01*
X157276794Y-120492259D01*
X157174593Y-120608091D01*
X157070463Y-120719921D01*
X156964371Y-120827773D01*
X156856286Y-120931675D01*
X156746177Y-121031651D01*
X156634014Y-121127729D01*
X156519763Y-121219933D01*
X156403395Y-121308291D01*
X156284878Y-121392827D01*
X156164181Y-121473569D01*
X156041273Y-121550541D01*
X155916121Y-121623771D01*
X155788696Y-121693283D01*
X155658966Y-121759104D01*
X155526899Y-121821261D01*
X155392464Y-121879778D01*
X155255630Y-121934682D01*
X155116366Y-121985999D01*
X154974640Y-122033755D01*
X154830422Y-122077976D01*
X154683679Y-122118688D01*
X154534382Y-122155917D01*
D10*
X143068043Y-88075979D02*
X143043850Y-88000751D01*
X143021252Y-87918585D01*
X143000246Y-87829916D01*
X142980832Y-87735179D01*
X142963007Y-87634812D01*
X142946772Y-87529249D01*
X142932124Y-87418928D01*
X142919062Y-87304283D01*
X142907586Y-87185752D01*
X142897694Y-87063771D01*
X142889384Y-86938774D01*
X142882656Y-86811199D01*
X142877508Y-86681482D01*
X142873940Y-86550058D01*
X142871949Y-86417363D01*
X142871535Y-86283835D01*
X142872697Y-86149908D01*
X142875432Y-86016019D01*
X142879741Y-85882604D01*
X142885622Y-85750099D01*
X142893073Y-85618940D01*
X142902094Y-85489563D01*
X142912682Y-85362404D01*
X142924838Y-85237899D01*
X142938559Y-85116485D01*
X142953845Y-84998597D01*
X142970694Y-84884671D01*
X142989105Y-84775144D01*
X143009077Y-84670451D01*
X143030609Y-84571029D01*
X143053699Y-84477314D01*
X143078347Y-84389742D01*
D12*
X158175217Y-90617567D02*
X158540000Y-90880000D01*
X158590000Y-90960000D01*
X158640000Y-91020000D01*
X158820000Y-91340000D01*
X158900000Y-91590000D01*
X158920000Y-91980000D01*
X158830000Y-92440000D01*
X158710000Y-92770000D01*
X158540000Y-93160000D01*
X158380000Y-93450000D01*
X158300000Y-93580000D01*
X158140000Y-93800000D01*
X157440000Y-94640000D01*
X156940000Y-95080000D01*
X156390000Y-95490000D01*
X155650000Y-95920000D01*
X155200000Y-96110000D01*
X154818907Y-96251459D01*
X154370000Y-96360000D01*
X153850000Y-96440000D01*
X153600000Y-96450000D01*
X153410000Y-96470000D01*
X153110000Y-96470000D01*
X152810000Y-96460000D01*
X151540000Y-96250000D01*
X151110000Y-96110000D01*
X150660000Y-95920000D01*
X150080000Y-95630000D01*
X149480000Y-95240000D01*
X149260000Y-95050000D01*
X149080000Y-94850000D01*
X148680000Y-94020000D01*
X148570000Y-93740000D01*
X148600000Y-93570000D01*
X148790000Y-93330000D01*
X149070000Y-93240000D01*
X149420000Y-93210000D01*
X149870000Y-93200000D01*
X150810000Y-93110000D01*
X151440000Y-93020000D01*
X152060000Y-92910000D01*
X152900000Y-92720000D01*
X153630000Y-92510000D01*
X154170000Y-92310000D01*
X154780000Y-92050000D01*
X155180000Y-91850000D01*
X155680000Y-91570000D01*
X156298141Y-91202384D01*
X156760000Y-90890000D01*
X157520000Y-90570000D01*
X157810000Y-90510000D01*
X158175217Y-90617567D01*
G36*
X158175217Y-90617567D02*
G01*
X158540000Y-90880000D01*
X158590000Y-90960000D01*
X158640000Y-91020000D01*
X158820000Y-91340000D01*
X158900000Y-91590000D01*
X158920000Y-91980000D01*
X158830000Y-92440000D01*
X158710000Y-92770000D01*
X158540000Y-93160000D01*
X158380000Y-93450000D01*
X158300000Y-93580000D01*
X158140000Y-93800000D01*
X157440000Y-94640000D01*
X156940000Y-95080000D01*
X156390000Y-95490000D01*
X155650000Y-95920000D01*
X155200000Y-96110000D01*
X154818907Y-96251459D01*
X154370000Y-96360000D01*
X153850000Y-96440000D01*
X153600000Y-96450000D01*
X153410000Y-96470000D01*
X153110000Y-96470000D01*
X152810000Y-96460000D01*
X151540000Y-96250000D01*
X151110000Y-96110000D01*
X150660000Y-95920000D01*
X150080000Y-95630000D01*
X149480000Y-95240000D01*
X149260000Y-95050000D01*
X149080000Y-94850000D01*
X148680000Y-94020000D01*
X148570000Y-93740000D01*
X148600000Y-93570000D01*
X148790000Y-93330000D01*
X149070000Y-93240000D01*
X149420000Y-93210000D01*
X149870000Y-93200000D01*
X150810000Y-93110000D01*
X151440000Y-93020000D01*
X152060000Y-92910000D01*
X152900000Y-92720000D01*
X153630000Y-92510000D01*
X154170000Y-92310000D01*
X154780000Y-92050000D01*
X155180000Y-91850000D01*
X155680000Y-91570000D01*
X156298141Y-91202384D01*
X156760000Y-90890000D01*
X157520000Y-90570000D01*
X157810000Y-90510000D01*
X158175217Y-90617567D01*
G37*
D11*
X145831308Y-114567485D02*
X145943743Y-114542372D01*
X146052198Y-114519952D01*
X146156875Y-114500291D01*
X146257980Y-114483455D01*
X146355715Y-114469510D01*
X146450285Y-114458525D01*
X146541893Y-114450565D01*
X146630744Y-114445698D01*
X146717040Y-114443989D01*
X146800986Y-114445507D01*
X146882786Y-114450317D01*
X146962644Y-114458486D01*
X147040762Y-114470081D01*
X147117346Y-114485169D01*
X147192599Y-114503816D01*
X147266725Y-114526090D01*
X147339927Y-114552056D01*
X147412409Y-114581782D01*
X147484376Y-114615335D01*
X147556031Y-114652781D01*
X147627577Y-114694186D01*
X147699220Y-114739618D01*
X147771162Y-114789144D01*
X147843607Y-114842830D01*
X147916759Y-114900742D01*
X147990823Y-114962949D01*
X148066001Y-115029515D01*
X148142498Y-115100509D01*
X148220517Y-115175996D01*
X148300262Y-115256044D01*
X148381938Y-115340719D01*
X148465748Y-115430089D01*
X168290288Y-120809248D02*
X168280449Y-120871933D01*
X168219550Y-120925244D01*
X168156698Y-120962727D01*
X168078058Y-121001109D01*
X167985355Y-121039827D01*
X167934269Y-121059136D01*
X167880314Y-121078319D01*
X167823706Y-121097304D01*
X167764660Y-121116022D01*
X167703392Y-121134402D01*
X167640118Y-121152374D01*
X167575053Y-121169868D01*
X167508414Y-121186813D01*
X167440415Y-121203139D01*
X167371272Y-121218775D01*
X167301201Y-121233652D01*
X167230418Y-121247700D01*
X167159139Y-121260847D01*
X167087578Y-121273023D01*
X167015952Y-121284159D01*
X166944476Y-121294183D01*
X166873365Y-121303027D01*
X166802837Y-121310618D01*
X166733106Y-121316888D01*
X153736754Y-118332386D02*
X153873225Y-118331172D01*
X154007989Y-118327495D01*
X154141203Y-118321297D01*
X154273024Y-118312522D01*
X154403609Y-118301114D01*
X154533115Y-118287017D01*
X154661699Y-118270174D01*
X154789518Y-118250530D01*
X154916730Y-118228028D01*
X155043491Y-118202611D01*
X155169958Y-118174224D01*
X155296289Y-118142810D01*
X155422640Y-118108313D01*
X155549168Y-118070676D01*
X155676031Y-118029844D01*
X155803386Y-117985761D01*
X155931389Y-117938369D01*
X156060198Y-117887612D01*
X156189970Y-117833435D01*
X156320861Y-117775782D01*
X156453030Y-117714595D01*
X156586632Y-117649818D01*
X156721825Y-117581396D01*
X156858766Y-117509272D01*
X156997612Y-117433390D01*
X157138520Y-117353694D01*
X157281648Y-117270126D01*
X157427151Y-117182632D01*
X157575188Y-117091155D01*
X157725915Y-116995638D01*
X157879490Y-116896025D01*
X158036069Y-116792261D01*
X132178237Y-98696054D02*
X132076999Y-98558813D01*
X131975718Y-98415887D01*
X131874575Y-98267674D01*
X131773750Y-98114573D01*
X131673422Y-97956982D01*
X131573773Y-97795300D01*
X131474981Y-97629925D01*
X131377227Y-97461255D01*
X131280692Y-97289689D01*
X131185556Y-97115625D01*
X131091998Y-96939462D01*
X131000198Y-96761598D01*
X130910338Y-96582431D01*
X130822597Y-96402361D01*
X130737155Y-96221784D01*
X130654193Y-96041101D01*
X130573890Y-95860708D01*
X130496427Y-95681005D01*
X130421983Y-95502390D01*
X130350740Y-95325262D01*
X130282877Y-95150018D01*
X130218574Y-94977058D01*
X130158012Y-94806779D01*
X130101370Y-94639581D01*
X130048829Y-94475860D01*
X130000569Y-94316017D01*
X129956770Y-94160450D01*
X129917612Y-94009555D01*
X129883275Y-93863734D01*
X129853940Y-93723382D01*
X129829787Y-93588900D01*
X129810996Y-93460686D01*
X135243577Y-117366976D02*
X135306811Y-117407772D01*
X135378886Y-117438660D01*
X135471412Y-117471716D01*
X135524410Y-117488847D01*
X135581400Y-117506266D01*
X135642010Y-117523891D01*
X135705864Y-117541638D01*
X135772591Y-117559421D01*
X135841817Y-117577157D01*
X135913167Y-117594761D01*
X135986270Y-117612150D01*
X136060751Y-117629240D01*
X136136236Y-117645945D01*
X136212354Y-117662183D01*
X136288729Y-117677869D01*
X136364990Y-117692918D01*
X136440762Y-117707247D01*
X136515671Y-117720772D01*
X136589346Y-117733408D01*
X136661411Y-117745071D01*
X136731494Y-117755677D01*
X136799221Y-117765142D01*
X136864220Y-117773382D01*
X136926115Y-117780312D01*
X136984535Y-117785848D01*
X137039105Y-117789907D01*
X137135205Y-117793256D01*
D10*
X158048825Y-87956864D02*
X157988387Y-87974623D01*
X157930429Y-87991243D01*
X157874810Y-88006723D01*
X157770021Y-88034268D01*
X157672893Y-88057262D01*
X157582297Y-88075710D01*
X157497104Y-88089617D01*
X157416185Y-88098987D01*
X157338411Y-88103824D01*
X157262654Y-88104134D01*
X157187786Y-88099921D01*
X157112676Y-88091189D01*
X157036198Y-88077943D01*
X156957221Y-88060189D01*
X156874618Y-88037929D01*
X156787260Y-88011170D01*
X156694017Y-87979915D01*
X156644837Y-87962604D01*
D11*
X137135205Y-117793256D02*
X137269176Y-117791376D01*
X137406839Y-117785776D01*
X137548013Y-117776510D01*
X137692518Y-117763636D01*
X137840174Y-117747209D01*
X137990801Y-117727285D01*
X138144219Y-117703920D01*
X138300248Y-117677170D01*
X138458708Y-117647092D01*
X138619418Y-117613742D01*
X138782200Y-117577175D01*
X138946872Y-117537448D01*
X139113254Y-117494617D01*
X139281168Y-117448738D01*
X139450432Y-117399867D01*
X139620866Y-117348060D01*
X139792291Y-117293373D01*
X139964526Y-117235862D01*
X140137392Y-117175584D01*
X140310708Y-117112594D01*
X140484294Y-117046949D01*
X140657971Y-116978704D01*
X140831557Y-116907916D01*
X141004874Y-116834641D01*
X141177741Y-116758934D01*
X141349978Y-116680853D01*
X141521405Y-116600453D01*
X141691842Y-116517790D01*
X141861108Y-116432920D01*
X142029025Y-116345899D01*
X142195411Y-116256784D01*
X142360088Y-116165631D01*
X138747919Y-120038939D02*
X138604018Y-120086912D01*
X138456886Y-120132542D01*
X138306774Y-120175815D01*
X138153935Y-120216714D01*
X137998618Y-120255225D01*
X137841077Y-120291333D01*
X137681561Y-120325023D01*
X137520324Y-120356278D01*
X137357616Y-120385085D01*
X137193689Y-120411429D01*
X137028795Y-120435293D01*
X136863184Y-120456663D01*
X136697109Y-120475524D01*
X136530821Y-120491861D01*
X136364571Y-120505658D01*
X136198612Y-120516901D01*
X136033194Y-120525574D01*
X135868568Y-120531663D01*
X135704988Y-120535151D01*
X135542703Y-120536025D01*
X135381966Y-120534268D01*
X135223028Y-120529866D01*
X135066140Y-120522804D01*
X134911555Y-120513067D01*
X134759523Y-120500639D01*
X134610296Y-120485505D01*
X134464126Y-120467650D01*
X134321264Y-120447059D01*
X134181962Y-120423718D01*
X134046471Y-120397610D01*
X133915042Y-120368721D01*
X133787928Y-120337036D01*
X143555095Y-117506989D02*
X143430509Y-117595311D01*
X143301408Y-117684547D01*
X143168077Y-117774546D01*
X143030802Y-117865157D01*
X142889871Y-117956230D01*
X142745568Y-118047614D01*
X142598181Y-118139157D01*
X142447994Y-118230711D01*
X142295295Y-118322123D01*
X142140370Y-118413243D01*
X141983504Y-118503920D01*
X141824984Y-118594004D01*
X141665097Y-118683344D01*
X141504127Y-118771788D01*
X141342362Y-118859187D01*
X141180088Y-118945390D01*
X141017590Y-119030246D01*
X140855155Y-119113603D01*
X140693069Y-119195313D01*
X140531618Y-119275223D01*
X140371089Y-119353183D01*
X140211767Y-119429042D01*
X140053939Y-119502650D01*
X139897890Y-119573856D01*
X139743908Y-119642509D01*
X139592278Y-119708458D01*
X139443286Y-119771553D01*
X139297219Y-119831643D01*
X139154362Y-119888578D01*
X139015003Y-119942205D01*
X138879426Y-119992376D01*
X138747919Y-120038939D01*
D10*
X154887244Y-86629272D02*
X154728696Y-86420127D01*
X154577586Y-86202742D01*
X154434012Y-85977877D01*
X154298071Y-85746294D01*
X154169861Y-85508754D01*
X154049480Y-85266017D01*
X153937025Y-85018844D01*
X153832594Y-84767996D01*
X153736285Y-84514234D01*
X153648195Y-84258319D01*
X153568423Y-84001012D01*
X153497065Y-83743074D01*
X153434220Y-83485265D01*
X153379986Y-83228347D01*
X153334460Y-82973080D01*
X153297739Y-82720225D01*
X153269922Y-82470544D01*
X153251107Y-82224797D01*
X153241390Y-81983745D01*
X153240870Y-81748148D01*
X153249644Y-81518769D01*
X153267811Y-81296367D01*
X153295467Y-81081704D01*
X153332711Y-80875541D01*
X153379640Y-80678638D01*
X153436353Y-80491756D01*
X153502945Y-80315656D01*
X153579517Y-80151100D01*
X153666164Y-79998848D01*
X153762985Y-79859660D01*
X153870078Y-79734298D01*
X153987541Y-79623524D01*
D11*
X136381472Y-81003973D02*
X136460289Y-80803983D01*
X136543087Y-80599487D01*
X136629607Y-80390983D01*
X136719588Y-80178971D01*
X136812770Y-79963951D01*
X136908893Y-79746421D01*
X137007696Y-79526883D01*
X137108919Y-79305834D01*
X137212303Y-79083776D01*
X137317587Y-78861207D01*
X137424511Y-78638626D01*
X137532815Y-78416535D01*
X137642238Y-78195431D01*
X137752521Y-77975815D01*
X137863403Y-77758186D01*
X137974625Y-77543044D01*
X138085925Y-77330888D01*
X138197045Y-77122218D01*
X138307723Y-76917534D01*
X138417699Y-76717335D01*
X138526714Y-76522120D01*
X138634508Y-76332389D01*
X138740819Y-76148642D01*
X138845388Y-75971378D01*
X138947955Y-75801098D01*
X139048260Y-75638299D01*
X139146042Y-75483483D01*
X139241042Y-75337148D01*
X139332998Y-75199794D01*
X139421652Y-75071921D01*
X139506742Y-74954028D01*
X139588010Y-74846615D01*
D10*
X156298141Y-91202384D02*
X156389400Y-91143669D01*
X156477903Y-91087768D01*
X156563715Y-91034658D01*
X156646900Y-90984321D01*
X156727524Y-90936735D01*
X156805653Y-90891880D01*
X156881352Y-90849736D01*
X156954686Y-90810282D01*
X157025721Y-90773499D01*
X157094521Y-90739365D01*
X157161153Y-90707860D01*
X157225682Y-90678964D01*
X157288173Y-90652657D01*
X157348691Y-90628918D01*
X157407302Y-90607727D01*
X157464071Y-90589064D01*
X157519063Y-90572907D01*
X157623980Y-90548034D01*
X157722575Y-90532945D01*
X157815372Y-90527477D01*
X157902893Y-90531468D01*
X157985660Y-90544754D01*
X158064198Y-90567172D01*
X158139028Y-90598560D01*
X158175217Y-90617567D01*
D11*
X134860209Y-100271546D02*
X134841047Y-100354944D01*
X134821966Y-100438263D01*
X134802993Y-100521373D01*
X134784156Y-100604147D01*
X134765484Y-100686457D01*
X134747003Y-100768175D01*
X134728742Y-100849174D01*
X134710729Y-100929325D01*
X134692991Y-101008501D01*
X134675557Y-101086574D01*
X134658454Y-101163415D01*
X134641711Y-101238898D01*
X134625354Y-101312894D01*
X134609412Y-101385276D01*
X134593914Y-101455915D01*
X134578886Y-101524684D01*
X134564356Y-101591455D01*
X134550353Y-101656100D01*
X134536904Y-101718492D01*
X134524038Y-101778501D01*
X134511782Y-101836002D01*
X134500163Y-101890865D01*
X134489211Y-101942963D01*
X134469415Y-102038353D01*
X134452617Y-102121148D01*
X134439040Y-102190326D01*
X134428907Y-102244864D01*
X134425202Y-102266324D01*
D10*
X149123967Y-94890990D02*
X149087250Y-94841438D01*
X149048075Y-94783302D01*
X149007156Y-94717915D01*
X148965205Y-94646615D01*
X148937017Y-94596456D01*
X148908899Y-94544658D01*
X148881062Y-94491618D01*
X148853717Y-94437732D01*
X148827077Y-94383394D01*
X148801351Y-94329002D01*
X148776751Y-94274951D01*
X148753489Y-94221637D01*
X148731776Y-94169455D01*
X148711824Y-94118803D01*
D11*
X158036069Y-116792261D02*
X158156007Y-116712348D01*
X158271374Y-116636285D01*
X158382380Y-116563987D01*
X158489232Y-116495367D01*
X158592141Y-116430339D01*
X158691315Y-116368817D01*
X158786962Y-116310715D01*
X158879293Y-116255946D01*
X158968516Y-116204424D01*
X159054841Y-116156064D01*
X159138475Y-116110779D01*
X159219628Y-116068483D01*
X159298510Y-116029090D01*
X159375329Y-115992514D01*
X159450294Y-115958668D01*
X159523614Y-115927467D01*
X159595498Y-115898824D01*
X159666155Y-115872654D01*
X159735795Y-115848869D01*
X159804625Y-115827384D01*
X159872856Y-115808113D01*
X159940696Y-115790970D01*
X160008355Y-115775868D01*
X160076040Y-115762722D01*
X160143962Y-115751445D01*
X160212328Y-115741951D01*
X160281349Y-115734154D01*
X160351234Y-115727967D01*
X160422190Y-115723306D01*
X160494428Y-115720083D01*
X160568155Y-115718212D01*
X160643583Y-115717608D01*
X132441447Y-101876917D02*
X132778459Y-99492736D01*
X142360088Y-116165631D02*
X142513350Y-116079709D01*
X142663309Y-115996299D01*
X142810006Y-115915382D01*
X142953483Y-115836939D01*
X143093781Y-115760950D01*
X143230942Y-115687397D01*
X143365006Y-115616260D01*
X143496015Y-115547521D01*
X143624010Y-115481159D01*
X143749034Y-115417158D01*
X143871126Y-115355496D01*
X143990329Y-115296156D01*
X144106684Y-115239118D01*
X144220233Y-115184363D01*
X144331016Y-115131873D01*
X144439075Y-115081627D01*
X144544451Y-115033607D01*
X144647186Y-114987795D01*
X144747321Y-114944170D01*
X144844897Y-114902714D01*
X144939957Y-114863408D01*
X145032540Y-114826233D01*
X145122690Y-114791169D01*
X145210446Y-114758199D01*
X145295850Y-114727301D01*
X145378944Y-114698459D01*
X145459769Y-114671652D01*
X145538367Y-114646862D01*
X145614778Y-114624069D01*
X145689044Y-114603254D01*
X145761207Y-114584399D01*
X145831308Y-114567485D01*
X132778459Y-99492736D02*
X132178237Y-98696054D01*
X134425202Y-102266324D02*
X134413964Y-102329214D01*
X134399918Y-102400137D01*
X134389174Y-102451144D01*
X134377452Y-102504614D01*
X134364860Y-102560107D01*
X134351505Y-102617179D01*
X134337495Y-102675388D01*
X134322939Y-102734293D01*
X134307944Y-102793450D01*
X134292618Y-102852417D01*
X134277069Y-102910753D01*
X134261405Y-102968014D01*
X134245733Y-103023760D01*
X134230162Y-103077547D01*
X134214800Y-103128933D01*
X166733106Y-121316888D02*
X166602295Y-121325457D01*
X166474342Y-121329763D01*
X166349099Y-121329707D01*
X166226417Y-121325191D01*
X166106148Y-121316117D01*
X165988145Y-121302387D01*
X165872260Y-121283901D01*
X165758343Y-121260562D01*
X165646249Y-121232271D01*
X165535827Y-121198930D01*
X165426932Y-121160440D01*
X165319413Y-121116703D01*
X165213124Y-121067621D01*
X165107917Y-121013095D01*
X165003643Y-120953027D01*
X164900155Y-120887319D01*
X164797304Y-120815872D01*
X164694942Y-120738588D01*
X164592922Y-120655368D01*
X164491096Y-120566115D01*
X164389315Y-120470729D01*
X164287432Y-120369112D01*
X164185298Y-120261167D01*
X164082766Y-120146794D01*
X163979687Y-120025895D01*
X163875914Y-119898372D01*
X163771298Y-119764127D01*
X163665692Y-119623061D01*
X163558947Y-119475075D01*
X163450917Y-119320072D01*
X163341451Y-119157953D01*
X163230404Y-118988620D01*
X135511352Y-97036766D02*
X135496567Y-97121786D01*
X135481007Y-97209916D01*
X135464712Y-97300949D01*
X135447724Y-97394677D01*
X135430085Y-97490892D01*
X135411837Y-97589387D01*
X135393021Y-97689956D01*
X135373680Y-97792390D01*
X135353854Y-97896483D01*
X135333585Y-98002027D01*
X135312916Y-98108815D01*
X135291888Y-98216639D01*
X135270543Y-98325293D01*
X135248922Y-98434568D01*
X135227068Y-98544258D01*
X135205021Y-98654156D01*
X135182824Y-98764053D01*
X135160519Y-98873743D01*
X135138146Y-98983018D01*
X135115749Y-99091672D01*
X135093368Y-99199496D01*
X135071046Y-99306284D01*
X135048823Y-99411828D01*
X135026742Y-99515921D01*
X135004845Y-99618355D01*
X134983173Y-99718924D01*
X134961768Y-99817419D01*
X134940672Y-99913634D01*
X134919926Y-100007362D01*
X134899572Y-100098395D01*
X134879653Y-100186525D01*
X134860209Y-100271546D01*
X139788265Y-74891910D02*
X139754811Y-74953795D01*
X139717816Y-75028556D01*
X139677547Y-75115407D01*
X139634269Y-75213560D01*
X139588248Y-75322227D01*
X139539750Y-75440621D01*
X139489042Y-75567954D01*
X139436390Y-75703440D01*
X139382058Y-75846290D01*
X139326315Y-75995717D01*
X139269424Y-76150933D01*
X139211654Y-76311152D01*
X139153268Y-76475586D01*
X139094535Y-76643447D01*
X139035719Y-76813947D01*
X138977086Y-76986300D01*
X138918904Y-77159718D01*
X138861437Y-77333414D01*
X138804952Y-77506600D01*
X138749714Y-77678488D01*
X138695991Y-77848291D01*
X138644047Y-78015222D01*
X138594149Y-78178494D01*
X138546563Y-78337318D01*
X138501555Y-78490907D01*
X138459391Y-78638475D01*
X138420336Y-78779233D01*
X138384658Y-78912394D01*
X138352622Y-79037170D01*
X138324494Y-79152775D01*
X138300540Y-79258420D01*
X138281027Y-79353319D01*
D10*
X153987541Y-79623524D02*
X154091005Y-79542113D01*
X154198306Y-79468640D01*
X154309263Y-79403059D01*
X154423694Y-79345324D01*
X154541419Y-79295388D01*
X154662257Y-79253205D01*
X154786027Y-79218729D01*
X154912548Y-79191914D01*
X155041638Y-79172713D01*
X155173118Y-79161081D01*
X155306807Y-79156970D01*
X155442523Y-79160336D01*
X155580085Y-79171130D01*
X155719313Y-79189309D01*
X155860026Y-79214824D01*
X156002042Y-79247630D01*
X156145182Y-79287681D01*
X156289263Y-79334930D01*
X156434106Y-79389332D01*
X156579529Y-79450840D01*
X156725352Y-79519407D01*
X156871392Y-79594989D01*
X157017471Y-79677537D01*
X157163406Y-79767007D01*
X157309017Y-79863351D01*
X157454122Y-79966525D01*
X157598542Y-80076480D01*
X157742095Y-80193173D01*
X157884600Y-80316555D01*
X158025876Y-80446581D01*
X158165742Y-80583204D01*
X158304019Y-80726380D01*
D11*
X133384569Y-91556618D02*
X133456729Y-91610627D01*
X133519867Y-91656502D01*
X133574865Y-91692870D01*
X133622605Y-91718355D01*
X133682537Y-91733171D01*
X133731103Y-91715771D01*
X133771282Y-91661515D01*
X133794879Y-91602578D01*
X133816955Y-91523824D01*
X133838392Y-91423880D01*
X133849146Y-91365531D01*
X133860072Y-91301370D01*
X133871279Y-91231223D01*
X133882879Y-91154920D01*
X133894980Y-91072288D01*
X133907694Y-90983156D01*
X133921131Y-90887351D01*
X133935400Y-90784703D01*
X133950614Y-90675039D01*
D10*
X159884972Y-86336723D02*
X159852838Y-86402791D01*
X159818051Y-86468767D01*
X159780713Y-86534561D01*
X159740928Y-86600082D01*
X159698797Y-86665239D01*
X159654422Y-86729942D01*
X159607906Y-86794101D01*
X159559352Y-86857626D01*
X159508862Y-86920425D01*
X159456539Y-86982409D01*
X159402484Y-87043488D01*
X159346800Y-87103570D01*
X159289590Y-87162566D01*
X159230957Y-87220386D01*
X159171001Y-87276937D01*
X159109827Y-87332132D01*
X159047536Y-87385878D01*
X158984231Y-87438086D01*
X158920014Y-87488666D01*
X158854987Y-87537526D01*
X158789254Y-87584577D01*
X158722916Y-87629728D01*
X158656077Y-87672889D01*
X158588837Y-87713969D01*
X158521300Y-87752878D01*
X158453569Y-87789526D01*
X158385745Y-87823822D01*
X158317931Y-87855676D01*
X158250230Y-87884997D01*
X158182743Y-87911696D01*
X158115574Y-87935682D01*
X158048825Y-87956864D01*
X148653630Y-88431876D02*
X148593808Y-88583588D01*
X148529371Y-88730165D01*
X148460464Y-88871524D01*
X148387232Y-89007588D01*
X148309820Y-89138277D01*
X148228373Y-89263510D01*
X148143036Y-89383208D01*
X148053954Y-89497292D01*
X147961272Y-89605681D01*
X147865136Y-89708297D01*
X147765690Y-89805060D01*
X147663080Y-89895890D01*
X147557450Y-89980707D01*
X147448946Y-90059432D01*
X147337713Y-90131985D01*
X147223895Y-90198287D01*
X147107638Y-90258257D01*
X146989087Y-90311817D01*
X146868387Y-90358887D01*
X146745683Y-90399387D01*
X146621121Y-90433237D01*
X146494844Y-90460358D01*
X146366999Y-90480671D01*
X146237730Y-90494095D01*
X146107182Y-90500551D01*
X145975501Y-90499959D01*
X145842831Y-90492240D01*
X145709319Y-90477315D01*
X145575107Y-90455102D01*
X145440343Y-90425524D01*
X145305170Y-90388500D01*
X145169735Y-90343951D01*
X158920000Y-91980000D02*
X158897807Y-92138730D01*
X158866004Y-92298720D01*
X158824868Y-92459681D01*
X158774677Y-92621325D01*
X158715708Y-92783362D01*
X158648238Y-92945503D01*
X158572545Y-93107460D01*
X158488905Y-93268943D01*
X158397598Y-93429665D01*
X158298899Y-93589335D01*
X158193086Y-93747665D01*
X158080436Y-93904367D01*
X157961228Y-94059150D01*
X157835737Y-94211727D01*
X157704242Y-94361809D01*
X157567021Y-94509106D01*
X157424349Y-94653330D01*
X157276505Y-94794192D01*
X157123766Y-94931403D01*
X156966409Y-95064674D01*
X156804712Y-95193716D01*
X156638951Y-95318240D01*
X156469406Y-95437958D01*
X156296352Y-95552580D01*
X156120067Y-95661819D01*
X155940829Y-95765383D01*
X155758914Y-95862986D01*
X155574601Y-95954338D01*
X155388166Y-96039150D01*
X155199887Y-96117134D01*
X155010042Y-96187999D01*
X154818907Y-96251459D01*
D12*
X139950000Y-74560000D02*
X139880000Y-74720000D01*
X139500000Y-75510000D01*
X139040000Y-76780000D01*
X138930000Y-77110000D01*
X138650000Y-77970000D01*
X138490000Y-78540000D01*
X138370000Y-78970000D01*
X138281027Y-79353319D01*
X138160000Y-79900000D01*
X138030000Y-80630000D01*
X138000000Y-80780000D01*
X137930000Y-81050000D01*
X137844127Y-81542497D01*
X137730000Y-82100000D01*
X137610000Y-82780000D01*
X137410000Y-84010000D01*
X137310000Y-84660000D01*
X137250000Y-85020000D01*
X137130000Y-85980000D01*
X137050000Y-86530000D01*
X137010000Y-86830000D01*
X136980000Y-87170000D01*
X136940000Y-87520000D01*
X136910000Y-87820000D01*
X136870000Y-88150000D01*
X136810000Y-88560000D01*
X136760000Y-88950000D01*
X136660000Y-89690000D01*
X136610000Y-90020000D01*
X136580000Y-90240000D01*
X136540000Y-90610000D01*
X136470000Y-91040000D01*
X136431178Y-91429822D01*
X133740000Y-91690000D01*
X133900000Y-91010000D01*
X133950614Y-90675039D01*
X134050000Y-89990000D01*
X134160000Y-89370000D01*
X134400000Y-88250000D01*
X134490000Y-87810000D01*
X134570000Y-87390000D01*
X134720000Y-86780000D01*
X135040000Y-85460000D01*
X135160000Y-85000000D01*
X135380000Y-84170000D01*
X135520000Y-83660000D01*
X135620000Y-83320000D01*
X135970000Y-82180000D01*
X136230000Y-81420000D01*
X136490000Y-80730000D01*
X136940000Y-79700000D01*
X137240000Y-79020000D01*
X137610000Y-78250000D01*
X137830000Y-77820000D01*
X138390000Y-76780000D01*
X138530000Y-76500000D01*
X138590000Y-76440000D01*
X138750000Y-76110000D01*
X139120000Y-75520000D01*
X139230000Y-75370000D01*
X139490000Y-74970000D01*
X139710000Y-74690000D01*
X139840000Y-74540000D01*
X139890000Y-74500000D01*
X139930000Y-74500000D01*
X139950000Y-74560000D01*
G36*
X139950000Y-74560000D02*
G01*
X139880000Y-74720000D01*
X139500000Y-75510000D01*
X139040000Y-76780000D01*
X138930000Y-77110000D01*
X138650000Y-77970000D01*
X138490000Y-78540000D01*
X138370000Y-78970000D01*
X138281027Y-79353319D01*
X138160000Y-79900000D01*
X138030000Y-80630000D01*
X138000000Y-80780000D01*
X137930000Y-81050000D01*
X137844127Y-81542497D01*
X137730000Y-82100000D01*
X137610000Y-82780000D01*
X137410000Y-84010000D01*
X137310000Y-84660000D01*
X137250000Y-85020000D01*
X137130000Y-85980000D01*
X137050000Y-86530000D01*
X137010000Y-86830000D01*
X136980000Y-87170000D01*
X136940000Y-87520000D01*
X136910000Y-87820000D01*
X136870000Y-88150000D01*
X136810000Y-88560000D01*
X136760000Y-88950000D01*
X136660000Y-89690000D01*
X136610000Y-90020000D01*
X136580000Y-90240000D01*
X136540000Y-90610000D01*
X136470000Y-91040000D01*
X136431178Y-91429822D01*
X133740000Y-91690000D01*
X133900000Y-91010000D01*
X133950614Y-90675039D01*
X134050000Y-89990000D01*
X134160000Y-89370000D01*
X134400000Y-88250000D01*
X134490000Y-87810000D01*
X134570000Y-87390000D01*
X134720000Y-86780000D01*
X135040000Y-85460000D01*
X135160000Y-85000000D01*
X135380000Y-84170000D01*
X135520000Y-83660000D01*
X135620000Y-83320000D01*
X135970000Y-82180000D01*
X136230000Y-81420000D01*
X136490000Y-80730000D01*
X136940000Y-79700000D01*
X137240000Y-79020000D01*
X137610000Y-78250000D01*
X137830000Y-77820000D01*
X138390000Y-76780000D01*
X138530000Y-76500000D01*
X138590000Y-76440000D01*
X138750000Y-76110000D01*
X139120000Y-75520000D01*
X139230000Y-75370000D01*
X139490000Y-74970000D01*
X139710000Y-74690000D01*
X139840000Y-74540000D01*
X139890000Y-74500000D01*
X139930000Y-74500000D01*
X139950000Y-74560000D01*
G37*
D11*
X133787928Y-120337036D02*
X133572388Y-120276785D01*
X133361360Y-120211493D01*
X133154924Y-120141237D01*
X132953162Y-120066092D01*
X132756155Y-119986137D01*
X132563983Y-119901448D01*
X132376728Y-119812102D01*
X132194470Y-119718175D01*
X132017291Y-119619746D01*
X131845270Y-119516891D01*
X131678491Y-119409686D01*
X131517032Y-119298209D01*
X131360976Y-119182537D01*
X131210403Y-119062746D01*
X131065394Y-118938914D01*
X130926030Y-118811118D01*
X130792392Y-118679434D01*
X130664561Y-118543940D01*
X130542618Y-118404712D01*
X130426644Y-118261827D01*
X130316720Y-118115363D01*
X130212927Y-117965396D01*
X130115345Y-117812003D01*
X130024056Y-117655261D01*
X129939141Y-117495247D01*
X129860681Y-117332038D01*
X129788756Y-117165711D01*
X129723448Y-116996343D01*
X129664837Y-116824011D01*
X129613005Y-116648792D01*
X129568032Y-116470762D01*
X129530000Y-116290000D01*
X154534382Y-122155917D02*
X154454740Y-122174174D01*
X154375747Y-122191245D01*
X154297375Y-122207128D01*
X154219602Y-122221826D01*
X154142401Y-122235336D01*
X154065747Y-122247659D01*
X153989617Y-122258796D01*
X153913985Y-122268745D01*
X153838826Y-122277507D01*
X153764115Y-122285083D01*
X153689827Y-122291471D01*
X153615938Y-122296671D01*
X153542423Y-122300685D01*
X153469256Y-122303511D01*
X153396413Y-122305150D01*
X153323869Y-122305601D01*
X153251600Y-122304865D01*
X153179579Y-122302942D01*
X153107783Y-122299830D01*
X153036186Y-122295531D01*
X152964764Y-122290045D01*
X152893492Y-122283370D01*
X152822344Y-122275508D01*
X152751296Y-122266458D01*
X152680324Y-122256220D01*
X152609401Y-122244794D01*
X152538504Y-122232179D01*
X152467607Y-122218377D01*
X152396686Y-122203387D01*
X152325715Y-122187208D01*
X152254670Y-122169842D01*
X152183527Y-122151287D01*
D10*
X148722033Y-93421424D02*
X148766901Y-93376179D01*
X148814743Y-93337390D01*
X148867416Y-93304616D01*
X148926776Y-93277418D01*
X148994678Y-93255355D01*
X149072980Y-93237988D01*
X149131875Y-93228801D01*
X149196766Y-93221375D01*
X149268205Y-93215579D01*
X149346740Y-93211284D01*
X149432921Y-93208358D01*
X149527300Y-93206672D01*
X149630425Y-93206095D01*
D11*
X148465748Y-115430089D02*
X148588247Y-115562086D01*
X148705419Y-115687679D01*
X148817580Y-115807124D01*
X148925046Y-115920680D01*
X149028131Y-116028607D01*
X149127153Y-116131163D01*
X149222426Y-116228606D01*
X149314267Y-116321196D01*
X149402990Y-116409190D01*
X149488913Y-116492848D01*
X149572351Y-116572429D01*
X149653619Y-116648190D01*
X149733033Y-116720390D01*
X149810909Y-116789289D01*
X149887563Y-116855145D01*
X149963311Y-116918216D01*
X150038467Y-116978761D01*
X150113349Y-117037039D01*
X150188271Y-117093308D01*
X150263550Y-117147828D01*
X150339501Y-117200856D01*
X150416440Y-117252652D01*
X150494683Y-117303474D01*
X150574545Y-117353581D01*
X150656343Y-117403231D01*
X150740392Y-117452683D01*
X150827007Y-117502196D01*
X150916505Y-117552028D01*
X151009201Y-117602439D01*
X151105412Y-117653686D01*
X151205452Y-117706028D01*
X151309638Y-117759725D01*
X151309638Y-117759725D02*
X151381504Y-117795903D01*
X151453378Y-117830842D01*
X151525283Y-117864549D01*
X151597244Y-117897029D01*
X151669287Y-117928288D01*
X151741436Y-117958333D01*
X151813717Y-117987168D01*
X151886155Y-118014800D01*
X151958775Y-118041235D01*
X152031601Y-118066479D01*
X152104659Y-118090537D01*
X152177973Y-118113415D01*
X152251570Y-118135120D01*
X152325473Y-118155658D01*
X152399709Y-118175033D01*
X152474301Y-118193253D01*
X152549275Y-118210322D01*
X152624657Y-118226248D01*
X152700470Y-118241035D01*
X152776741Y-118254690D01*
X152853493Y-118267219D01*
X152930753Y-118278627D01*
X153008545Y-118288921D01*
X153086894Y-118298106D01*
X153165826Y-118306189D01*
X153245365Y-118313174D01*
X153325536Y-118319069D01*
X153406365Y-118323879D01*
X153487876Y-118327609D01*
X153570094Y-118330267D01*
X153653045Y-118331857D01*
X153736754Y-118332386D01*
X160643583Y-115717608D02*
X160721817Y-115718296D01*
X160797359Y-115720502D01*
X160870527Y-115724439D01*
X160941639Y-115730317D01*
X161011015Y-115738348D01*
X161078974Y-115748744D01*
X161145835Y-115761717D01*
X161211917Y-115777478D01*
X161277539Y-115796240D01*
X161343020Y-115818213D01*
X161408679Y-115843610D01*
X161474835Y-115872643D01*
X161541807Y-115905523D01*
X161609914Y-115942461D01*
X161679475Y-115983670D01*
X161750809Y-116029362D01*
X161824236Y-116079748D01*
X161900073Y-116135039D01*
X161978641Y-116195448D01*
X162060258Y-116261187D01*
X162145243Y-116332466D01*
X162233916Y-116409498D01*
X162326594Y-116492495D01*
X162423598Y-116581668D01*
X162525247Y-116677229D01*
X162631858Y-116779390D01*
X162743752Y-116888362D01*
X162861248Y-117004357D01*
X162984664Y-117127588D01*
X163114319Y-117258265D01*
X163250533Y-117396600D01*
X163393625Y-117542806D01*
X136703143Y-89381129D02*
X136695344Y-89437668D01*
X136687326Y-89496003D01*
X136679107Y-89556002D01*
X136670702Y-89617535D01*
X136662130Y-89680469D01*
X136653409Y-89744674D01*
X136644555Y-89810017D01*
X136635586Y-89876369D01*
X136626520Y-89943598D01*
X136617374Y-90011572D01*
X136608165Y-90080159D01*
X136598911Y-90149230D01*
X136589629Y-90218652D01*
X136580337Y-90288294D01*
X136571051Y-90358025D01*
X136561791Y-90427714D01*
X136552572Y-90497228D01*
X136543413Y-90566438D01*
X136534330Y-90635212D01*
X136525342Y-90703417D01*
X136516465Y-90770924D01*
X136507718Y-90837601D01*
X136499117Y-90903316D01*
X136490680Y-90967939D01*
X136482424Y-91031337D01*
X136474367Y-91093380D01*
X136466527Y-91153936D01*
X136458920Y-91212874D01*
X136451564Y-91270063D01*
X136444477Y-91325372D01*
X136437675Y-91378668D01*
X136431178Y-91429822D01*
X130956696Y-91051460D02*
X131029309Y-91021603D01*
X131101731Y-90994608D01*
X131174002Y-90970483D01*
X131246162Y-90949235D01*
X131318251Y-90930874D01*
X131390310Y-90915407D01*
X131462379Y-90902843D01*
X131534497Y-90893190D01*
X131606705Y-90886457D01*
X131679043Y-90882652D01*
X131751551Y-90881784D01*
X131824269Y-90883860D01*
X131897238Y-90888888D01*
X131970497Y-90896879D01*
X132044087Y-90907839D01*
X132118047Y-90921777D01*
X132192418Y-90938702D01*
X132267240Y-90958621D01*
X132342553Y-90981543D01*
X132418397Y-91007477D01*
X132494813Y-91036431D01*
X132571840Y-91068413D01*
X132649519Y-91103431D01*
X132727889Y-91141494D01*
X132806991Y-91182611D01*
X132886866Y-91226789D01*
X132967552Y-91274037D01*
X133049090Y-91324363D01*
X133131521Y-91377776D01*
X133214884Y-91434284D01*
X133299220Y-91493895D01*
X133384569Y-91556618D01*
X145635379Y-116823426D02*
X145561397Y-116823950D01*
X145488431Y-116825675D01*
X145416438Y-116828616D01*
X145345373Y-116832786D01*
X145275193Y-116838200D01*
X145205854Y-116844872D01*
X145137312Y-116852817D01*
X145069525Y-116862049D01*
X145002447Y-116872582D01*
X144936036Y-116884431D01*
X144870247Y-116897610D01*
X144805037Y-116912133D01*
X144740362Y-116928014D01*
X144676179Y-116945269D01*
X144612444Y-116963911D01*
X144549112Y-116983955D01*
X144486141Y-117005415D01*
X144423487Y-117028305D01*
X144361105Y-117052640D01*
X144298953Y-117078433D01*
X144236986Y-117105701D01*
X144175161Y-117134456D01*
X144113434Y-117164713D01*
X144051762Y-117196487D01*
X143990100Y-117229791D01*
X143928405Y-117264641D01*
X143866634Y-117301049D01*
X143804741Y-117339032D01*
X143742685Y-117378603D01*
X143680421Y-117419777D01*
X143617905Y-117462567D01*
X143555095Y-117506989D01*
D10*
X151282184Y-96178004D02*
X151198121Y-96148683D01*
X151114014Y-96117993D01*
X151029973Y-96086001D01*
X150946112Y-96052773D01*
X150862540Y-96018375D01*
X150779371Y-95982875D01*
X150696715Y-95946338D01*
X150614685Y-95908832D01*
X150533392Y-95870423D01*
X150452947Y-95831178D01*
X150373463Y-95791163D01*
X150295052Y-95750445D01*
X150217824Y-95709090D01*
X150141891Y-95667166D01*
X150067366Y-95624738D01*
X149994359Y-95581873D01*
X149922984Y-95538638D01*
X149853350Y-95495100D01*
X149785571Y-95451325D01*
X149719757Y-95407379D01*
X149656020Y-95363330D01*
X149594473Y-95319244D01*
X149535226Y-95275187D01*
X149478392Y-95231226D01*
X149424081Y-95187428D01*
X149372407Y-95143859D01*
X149323480Y-95100586D01*
X149277412Y-95057675D01*
X149234315Y-95015193D01*
X149194301Y-94973208D01*
X149123967Y-94890990D01*
D11*
X138281027Y-79353319D02*
X138268713Y-79416799D01*
X138253356Y-79495296D01*
X138235178Y-79587688D01*
X138225101Y-79638743D01*
X138214403Y-79692851D01*
X138203112Y-79749872D01*
X138191256Y-79809665D01*
X138178863Y-79872090D01*
X138165961Y-79937006D01*
X138152578Y-80004273D01*
X138138742Y-80073752D01*
X138124480Y-80145301D01*
X138109822Y-80218780D01*
X138094794Y-80294050D01*
X138079425Y-80370969D01*
X138063743Y-80449398D01*
X138047776Y-80529196D01*
X138031552Y-80610222D01*
X138015099Y-80692338D01*
X137998445Y-80775401D01*
X137981617Y-80859273D01*
X137964645Y-80943812D01*
X137947555Y-81028879D01*
X137930377Y-81114332D01*
X137913137Y-81200033D01*
X137895864Y-81285840D01*
X137878586Y-81371613D01*
X137861331Y-81457212D01*
X137844127Y-81542497D01*
X133950614Y-90675039D02*
X133987928Y-90417546D01*
X134029894Y-90148580D01*
X134076296Y-89868999D01*
X134126919Y-89579662D01*
X134181547Y-89281428D01*
X134239963Y-88975156D01*
X134301952Y-88661704D01*
X134367298Y-88341932D01*
X134435785Y-88016697D01*
X134507197Y-87686860D01*
X134581319Y-87353278D01*
X134657934Y-87016810D01*
X134736827Y-86678315D01*
X134817782Y-86338652D01*
X134900583Y-85998680D01*
X134985014Y-85659257D01*
X135070860Y-85321242D01*
X135157903Y-84985495D01*
X135245930Y-84652873D01*
X135334723Y-84324235D01*
X135424067Y-84000441D01*
X135513746Y-83682349D01*
X135603544Y-83370818D01*
X135693245Y-83066706D01*
X135782634Y-82770873D01*
X135871494Y-82484177D01*
X135959610Y-82207477D01*
X136046766Y-81941631D01*
X136132746Y-81687499D01*
X136217334Y-81445940D01*
X136300315Y-81217811D01*
X136381472Y-81003973D01*
X139588010Y-74846615D02*
X139622839Y-74802283D01*
X139656072Y-74760959D01*
X139717650Y-74687310D01*
X139772547Y-74625623D01*
X139820564Y-74575854D01*
X139861504Y-74537957D01*
X139909213Y-74503276D01*
X139951346Y-74539752D01*
X139933335Y-74601361D01*
X139910548Y-74656837D01*
X139878905Y-74723784D01*
X139838210Y-74802156D01*
X139788265Y-74891910D01*
X130193158Y-91591089D02*
X130234090Y-91541433D01*
X130285180Y-91488886D01*
X130324231Y-91452710D01*
X130366818Y-91415941D01*
X130412550Y-91378856D01*
X130461035Y-91341730D01*
X130511881Y-91304842D01*
X130564698Y-91268467D01*
X130619093Y-91232882D01*
X130674676Y-91198364D01*
X130731054Y-91165190D01*
X130787837Y-91133635D01*
X130844632Y-91103978D01*
X130901049Y-91076494D01*
X130956696Y-91051460D01*
D10*
X153204972Y-92650855D02*
X153296447Y-92624745D01*
X153388646Y-92597217D01*
X153481529Y-92568290D01*
X153575057Y-92537982D01*
X153669191Y-92506310D01*
X153763893Y-92473294D01*
X153859124Y-92438951D01*
X153954845Y-92403299D01*
X154051016Y-92366357D01*
X154147601Y-92328143D01*
X154244558Y-92288675D01*
X154341850Y-92247971D01*
X154439438Y-92206050D01*
X154537282Y-92162929D01*
X154635345Y-92118627D01*
X154733587Y-92073162D01*
X154831969Y-92026551D01*
X154930453Y-91978815D01*
X155029000Y-91929969D01*
X155127570Y-91880034D01*
X155226126Y-91829026D01*
X155324627Y-91776965D01*
X155423036Y-91723867D01*
X155521314Y-91669752D01*
X155619421Y-91614638D01*
X155717319Y-91558543D01*
X155814969Y-91501484D01*
X155912333Y-91443481D01*
X156009370Y-91384551D01*
X156106043Y-91324713D01*
X156202313Y-91263984D01*
X156298141Y-91202384D01*
D11*
X136973502Y-87224610D02*
X136967086Y-87281290D01*
X136960366Y-87340043D01*
X136953359Y-87400731D01*
X136946082Y-87463216D01*
X136938552Y-87527360D01*
X136930788Y-87593023D01*
X136922806Y-87660069D01*
X136914623Y-87728359D01*
X136906257Y-87797754D01*
X136897725Y-87868116D01*
X136889045Y-87939308D01*
X136880234Y-88011191D01*
X136871308Y-88083627D01*
X136862287Y-88156477D01*
X136853186Y-88229604D01*
X136844023Y-88302869D01*
X136834815Y-88376134D01*
X136825581Y-88449261D01*
X136816336Y-88522111D01*
X136807099Y-88594547D01*
X136797887Y-88666430D01*
X136788717Y-88737622D01*
X136779606Y-88807984D01*
X136770572Y-88877379D01*
X136761632Y-88945669D01*
X136752804Y-89012715D01*
X136744104Y-89078378D01*
X136735550Y-89142522D01*
X136727160Y-89205007D01*
X136718950Y-89265695D01*
X136710939Y-89324448D01*
X136703143Y-89381129D01*
D10*
X158175217Y-90617567D02*
X158264730Y-90672396D01*
X158349834Y-90733683D01*
X158430248Y-90800910D01*
X158505687Y-90873561D01*
X158575869Y-90951117D01*
X158640511Y-91033061D01*
X158699331Y-91118876D01*
X158752044Y-91208044D01*
X158798369Y-91300048D01*
X158838023Y-91394369D01*
X158870722Y-91490492D01*
X158896183Y-91587897D01*
X158914125Y-91686068D01*
X158924263Y-91784487D01*
X158926316Y-91882637D01*
X158920000Y-91980000D01*
D11*
X167886637Y-120646706D02*
X167940262Y-120659023D01*
X167992640Y-120672758D01*
X168043072Y-120687628D01*
X168106079Y-120708735D01*
X168162729Y-120730694D01*
X168211367Y-120752838D01*
X168258373Y-120779763D01*
X168290288Y-120809248D01*
D10*
X148845965Y-84541031D02*
X148867961Y-84641547D01*
X148887979Y-84746883D01*
X148906036Y-84856691D01*
X148922150Y-84970626D01*
X148936337Y-85088343D01*
X148948615Y-85209494D01*
X148959001Y-85333734D01*
X148967511Y-85460718D01*
X148974163Y-85590099D01*
X148978973Y-85721531D01*
X148981960Y-85854668D01*
X148983140Y-85989165D01*
X148982531Y-86124676D01*
X148980148Y-86260854D01*
X148976010Y-86397354D01*
X148970134Y-86533830D01*
X148962536Y-86669936D01*
X148953233Y-86805325D01*
X148942244Y-86939653D01*
X148929585Y-87072573D01*
X148915272Y-87203739D01*
X148899324Y-87332805D01*
X148881757Y-87459425D01*
X148862588Y-87583254D01*
X148841835Y-87703945D01*
X148819514Y-87821153D01*
X148795643Y-87934531D01*
X148770238Y-88043735D01*
X148743318Y-88148417D01*
X148714898Y-88248231D01*
X148684996Y-88342833D01*
X148653630Y-88431876D01*
D11*
X130018839Y-113150407D02*
X130113150Y-112856020D01*
X130205953Y-112559335D01*
X130297278Y-112260206D01*
X130387155Y-111958491D01*
X130475616Y-111654045D01*
X130562691Y-111346726D01*
X130648411Y-111036388D01*
X130732808Y-110722890D01*
X130815911Y-110406086D01*
X130897753Y-110085833D01*
X130978363Y-109761988D01*
X131057773Y-109434407D01*
X131136013Y-109102946D01*
X131213115Y-108767461D01*
X131289109Y-108427809D01*
X131364026Y-108083847D01*
X131437897Y-107735430D01*
X131510754Y-107382414D01*
X131582626Y-107024657D01*
X131653544Y-106662013D01*
X131723540Y-106294341D01*
X131792645Y-105921496D01*
X131860889Y-105543334D01*
X131928303Y-105159711D01*
X131994918Y-104770485D01*
X132060765Y-104375511D01*
X132125875Y-103974645D01*
X132190278Y-103567744D01*
X132254006Y-103154665D01*
X132317090Y-102735263D01*
X132379560Y-102309394D01*
X132441447Y-101876917D01*
X163230404Y-118988620D02*
X163143268Y-118855707D01*
X163056910Y-118727614D01*
X162971279Y-118604301D01*
X162886325Y-118485728D01*
X162801997Y-118371856D01*
X162718243Y-118262646D01*
X162635014Y-118158058D01*
X162552258Y-118058054D01*
X162469925Y-117962594D01*
X162387964Y-117871638D01*
X162306324Y-117785147D01*
X162224955Y-117703082D01*
X162143806Y-117625404D01*
X162062826Y-117552072D01*
X161981965Y-117483049D01*
X161901171Y-117418294D01*
X161820394Y-117357769D01*
X161739584Y-117301433D01*
X161658689Y-117249248D01*
X161577660Y-117201174D01*
X161496444Y-117157172D01*
X161414992Y-117117202D01*
X161333252Y-117081226D01*
X161251175Y-117049204D01*
X161168709Y-117021096D01*
X161085804Y-116996864D01*
X161002408Y-116976468D01*
X160918471Y-116959868D01*
X160833943Y-116947025D01*
X160748773Y-116937901D01*
X160662910Y-116932455D01*
X160576303Y-116930649D01*
D13*
X135980000Y-111200000D02*
X135980000Y-113120000D01*
X135980000Y-113120000D02*
X138840000Y-113120000D01*
X138840000Y-111200000D02*
X135980000Y-111200000D01*
X135562500Y-99600000D02*
X135562500Y-101520000D01*
X135562500Y-101520000D02*
X138422500Y-101520000D01*
X138422500Y-99600000D02*
X135562500Y-99600000D01*
X152102936Y-105355000D02*
X152557064Y-105355000D01*
X152102936Y-103885000D02*
X152557064Y-103885000D01*
X164862936Y-101115000D02*
X165317064Y-101115000D01*
X164862936Y-102585000D02*
X165317064Y-102585000D01*
X137652936Y-114245000D02*
X138107064Y-114245000D01*
X137652936Y-115715000D02*
X138107064Y-115715000D01*
X144950000Y-71360000D02*
X144950000Y-73280000D01*
X144950000Y-73280000D02*
X147810000Y-73280000D01*
X147810000Y-71360000D02*
X144950000Y-71360000D01*
X140472936Y-93845000D02*
X140927064Y-93845000D01*
X140472936Y-95315000D02*
X140927064Y-95315000D01*
X141442936Y-81115000D02*
X141897064Y-81115000D01*
X141442936Y-82585000D02*
X141897064Y-82585000D01*
X165692936Y-93125000D02*
X166147064Y-93125000D01*
X165692936Y-94595000D02*
X166147064Y-94595000D01*
X150530000Y-101020000D02*
X150530000Y-102940000D01*
X150530000Y-102940000D02*
X153390000Y-102940000D01*
X153390000Y-101020000D02*
X150530000Y-101020000D01*
X158752936Y-77595000D02*
X159207064Y-77595000D01*
X158752936Y-79065000D02*
X159207064Y-79065000D01*
X163252500Y-98060000D02*
X163252500Y-99980000D01*
X163252500Y-99980000D02*
X166112500Y-99980000D01*
X166112500Y-98060000D02*
X163252500Y-98060000D01*
X154602500Y-74860000D02*
X154602500Y-76780000D01*
X154602500Y-76780000D02*
X157462500Y-76780000D01*
X157462500Y-74860000D02*
X154602500Y-74860000D01*
X151762500Y-110320000D02*
X151762500Y-112240000D01*
X151762500Y-112240000D02*
X154622500Y-112240000D01*
X154622500Y-110320000D02*
X151762500Y-110320000D01*
X153342936Y-113445000D02*
X153797064Y-113445000D01*
X153342936Y-114915000D02*
X153797064Y-114915000D01*
X151552936Y-89205000D02*
X152007064Y-89205000D01*
X151552936Y-90675000D02*
X152007064Y-90675000D01*
X164100000Y-90400000D02*
X164100000Y-92320000D01*
X164100000Y-92320000D02*
X166960000Y-92320000D01*
X166960000Y-90400000D02*
X164100000Y-90400000D01*
X138820000Y-91060000D02*
X138820000Y-92980000D01*
X138820000Y-92980000D02*
X141680000Y-92980000D01*
X141680000Y-91060000D02*
X138820000Y-91060000D01*
X137122936Y-102235000D02*
X137577064Y-102235000D01*
X137122936Y-103705000D02*
X137577064Y-103705000D01*
X166542936Y-115555000D02*
X166997064Y-115555000D01*
X166542936Y-117025000D02*
X166997064Y-117025000D01*
X139832500Y-78470000D02*
X139832500Y-80390000D01*
X139832500Y-80390000D02*
X142692500Y-80390000D01*
X142692500Y-78470000D02*
X139832500Y-78470000D01*
X146582936Y-74115000D02*
X147037064Y-74115000D01*
X146582936Y-75585000D02*
X147037064Y-75585000D01*
X149980000Y-86130000D02*
X149980000Y-88050000D01*
X149980000Y-88050000D02*
X152840000Y-88050000D01*
X152840000Y-86130000D02*
X149980000Y-86130000D01*
X165002500Y-112290000D02*
X165002500Y-114210000D01*
X165002500Y-114210000D02*
X167862500Y-114210000D01*
X167862500Y-112290000D02*
X165002500Y-112290000D01*
%LPC*%
D14*
X136815000Y-112160000D03*
X138865000Y-112160000D03*
X136397500Y-100560000D03*
X138447500Y-100560000D03*
D15*
X153330000Y-104620000D03*
X151330000Y-104620000D03*
X164090000Y-101850000D03*
X166090000Y-101850000D03*
X136880000Y-114980000D03*
X138880000Y-114980000D03*
D14*
X145785000Y-72320000D03*
X147835000Y-72320000D03*
D15*
X139700000Y-94580000D03*
X141700000Y-94580000D03*
X140670000Y-81850000D03*
X142670000Y-81850000D03*
X164920000Y-93860000D03*
X166920000Y-93860000D03*
D14*
X151365000Y-101980000D03*
X153415000Y-101980000D03*
D15*
X157980000Y-78330000D03*
X159980000Y-78330000D03*
D14*
X164087500Y-99020000D03*
X166137500Y-99020000D03*
X155437500Y-75820000D03*
X157487500Y-75820000D03*
X152597500Y-111280000D03*
X154647500Y-111280000D03*
D15*
X152570000Y-114180000D03*
X154570000Y-114180000D03*
X150780000Y-89940000D03*
X152780000Y-89940000D03*
D14*
X164935000Y-91360000D03*
X166985000Y-91360000D03*
X139655000Y-92020000D03*
X141705000Y-92020000D03*
D15*
X136350000Y-102970000D03*
X138350000Y-102970000D03*
X165770000Y-116290000D03*
X167770000Y-116290000D03*
D14*
X140667500Y-79430000D03*
X142717500Y-79430000D03*
D15*
X145810000Y-74850000D03*
X147810000Y-74850000D03*
D14*
X150815000Y-87090000D03*
X152865000Y-87090000D03*
X165837500Y-113250000D03*
X167887500Y-113250000D03*
D16*
X169420000Y-105080000D03*
X169420000Y-108080000D03*
M02*
