  0
SECTION
  2
HEADER
  9
$ACADVER
  1
AC1014
  9
$HANDSEED
  5
FFFF
  9
$INSUNITS
 70
     0
  9
$MEASUREMENT
 70
     1
  0
ENDSEC
  0
SECTION
  2
TABLES
  0
TABLE
  2
VPORT
  5
8
330
0
100
AcDbSymbolTable
 70
     4
  0
VPORT
  5
2E
330
8
100
AcDbSymbolTableRecord
100
AcDbViewportTableRecord
  2
*ACTIVE
 70
     0
 10
0.0
 20
0.0
 11
1.0
 21
1.0
 12
210.0
 22
148.5
 13
0.0
 23
0.0
 14
10.0
 24
10.0
 15
10.0
 25
10.0
 16
0.0
 26
0.0
 36
1.0
 17
0.0
 27
0.0
 37
0.0
 40
341.0
 41
1.24
 42
50.0
 43
0.0
 44
0.0
 50
0.0
 51
0.0
 71
     0
 72
   100
 73
     1
 74
     3
 75
     0
 76
     0
 77
     0
 78
     0
  0
ENDTAB
  0
TABLE
  2
LTYPE
  5
5
330
0
100
AcDbSymbolTable
 70
     1
  0
LTYPE
  5
14
330
5
100
AcDbSymbolTableRecord
100
AcDbLinetypeTableRecord
  2
BYBLOCK
 70
     0
  3

 72
    65
 73
     0
 40
0.0
  0
LTYPE
  5
15
330
5
100
AcDbSymbolTableRecord
100
AcDbLinetypeTableRecord
  2
BYLAYER
 70
     0
  3

 72
    65
 73
     0
 40
0.0
  0
LTYPE
  5
16
330
5
100
AcDbSymbolTableRecord
100
AcDbLinetypeTableRecord
  2
CONTINUOUS
 70
     0
  3
Solid line
 72
    65
 73
     0
 40
0.0
  0
ENDTAB
  0
TABLE
  2
LAYER
  5
2
100
AcDbSymbolTable
 70
2
  0
LAYER
  5
50
100
AcDbSymbolTableRecord
100
AcDbLayerTableRecord
  2
0
 70
0
  6
CONTINUOUS
  0
LAYER
  5
51
100
AcDbSymbolTableRecord
100
AcDbLayerTableRecord
  2
Image
 70
0
  6
CONTINUOUS
  0
ENDTAB
  0
TABLE
  2
STYLE
  5
3
330
0
100
AcDbSymbolTable
 70
     1
  0
STYLE
  5
11
330
3
100
AcDbSymbolTableRecord
100
AcDbTextStyleTableRecord
  2
STANDARD
 70
     0
 40
0.0
 41
1.0
 50
0.0
 71
     0
 42
2.5
  3
txt
  4

  0
ENDTAB
  0
TABLE
  2
VIEW
  5
6
330
0
100
AcDbSymbolTable
 70
     0
  0
ENDTAB
  0
TABLE
  2
UCS
  5
7
330
0
100
AcDbSymbolTable
 70
     0
  0
ENDTAB
  0
TABLE
  2
APPID
  5
9
330
0
100
AcDbSymbolTable
 70
     2
  0
APPID
  5
12
330
9
100
AcDbSymbolTableRecord
100
AcDbRegAppTableRecord
  2
ACAD
 70
     0
  0
ENDTAB
  0
TABLE
  2
DIMSTYLE
  5
A
330
0
100
AcDbSymbolTable
 70
     1
  0
DIMSTYLE
105
27
330
A
100
AcDbSymbolTableRecord
100
AcDbDimStyleTableRecord
  2
ISO-25
 70
     0
  3

  4

  5

  6

  7

 40
1.0
 41
2.5
 42
0.625
 43
3.75
 44
1.25
 45
0.0
 46
0.0
 47
0.0
 48
0.0
140
2.5
141
2.5
142
0.0
143
0.03937007874016
144
1.0
145
0.0
146
1.0
147
0.625
 71
     0
 72
     0
 73
     0
 74
     0
 75
     0
 76
     0
 77
     1
 78
     8
170
     0
171
     3
172
     1
173
     0
174
     0
175
     0
176
     0
177
     0
178
     0
270
     2
271
     2
272
     2
273
     2
274
     3
340
11
275
     0
280
     0
281
     0
282
     0
283
     0
284
     8
285
     0
286
     0
287
     3
288
     0
  0
ENDTAB
  0
TABLE
  2
BLOCK_RECORD
  5
1
330
0
100
AcDbSymbolTable
 70
     1
  0
BLOCK_RECORD
  5
1F
330
1
100
AcDbSymbolTableRecord
100
AcDbBlockTableRecord
  2
*MODEL_SPACE
  0
BLOCK_RECORD
  5
1B
330
1
100
AcDbSymbolTableRecord
100
AcDbBlockTableRecord
  2
*PAPER_SPACE
  0
ENDTAB
  0
ENDSEC
  0
SECTION
  2
BLOCKS
  0
BLOCK
  5
20
330
1F
100
AcDbEntity
  8
0
100
AcDbBlockBegin
  2
*MODEL_SPACE
 70
     0
 10
0.0
 20
0.0
 30
0.0
  3
*MODEL_SPACE
  1

  0
ENDBLK
  5
21
330
1F
100
AcDbEntity
  8
0
100
AcDbBlockEnd
  0
BLOCK
  5
1C
330
1B
100
AcDbEntity
 67
     1
  8
0
100
AcDbBlockBegin
  2
*PAPER_SPACE
  1

  0
ENDBLK
  5
1D
330
1B
100
AcDbEntity
 67
     1
  8
0
100
AcDbBlockEnd
  0
ENDSEC
  0
SECTION
  2
ENTITIES
  0
SPLINE
  5
100
100
AcDbEntity
  8
Image
 62
7
100
AcDbSpline
 70
8
 71
3
 72
8
 73
4
 74
0
 40
0
 40
0
 40
0
 40
0
 40
1
 40
1
 40
1
 40
1
 10
90.369786
 20
17.279770
 30
0.0
 10
84.701281
 20
18.803040
 30
0.0
 10
81.012159
 20
22.290320
 30
0.0
 10
76.710945
 20
30.191360
 30
0.0
  0
SPLINE
  5
101
100
AcDbEntity
  8
Image
 62
7
100
AcDbSpline
 70
8
 71
3
 72
8
 73
4
 74
0
 40
0
 40
0
 40
0
 40
0
 40
1
 40
1
 40
1
 40
1
 10
76.710945
 20
30.191360
 30
0.0
 10
74.127692
 20
34.936600
 30
0.0
 10
71.435245
 20
36.661500
 30
0.0
 10
67.209567
 20
36.278320
 30
0.0
  0
SPLINE
  5
102
100
AcDbEntity
  8
Image
 62
7
100
AcDbSpline
 70
8
 71
3
 72
8
 73
4
 74
0
 40
0
 40
0
 40
0
 40
0
 40
1
 40
1
 40
1
 40
1
 10
67.209567
 20
36.278320
 30
0.0
 10
64.916801
 20
36.070420
 30
0.0
 10
62.530628
 20
35.200360
 30
0.0
 10
61.241776
 20
34.102310
 30
0.0
  0
SPLINE
  5
103
100
AcDbEntity
  8
Image
 62
7
100
AcDbSpline
 70
8
 71
3
 72
8
 73
4
 74
0
 40
0
 40
0
 40
0
 40
0
 40
1
 40
1
 40
1
 40
1
 10
61.241776
 20
34.102310
 30
0.0
 10
59.529162
 20
32.643230
 30
0.0
 10
50.464139
 20
27.545290
 30
0.0
 10
46.935288
 20
26.056690
 30
0.0
  0
SPLINE
  5
104
100
AcDbEntity
  8
Image
 62
7
100
AcDbSpline
 70
8
 71
3
 72
8
 73
4
 74
0
 40
0
 40
0
 40
0
 40
0
 40
1
 40
1
 40
1
 40
1
 10
46.935288
 20
26.056690
 30
0.0
 10
31.918956
 20
19.722290
 30
0.0
 10
16.162057
 20
23.166320
 30
0.0
 10
10.832776
 20
33.947750
 30
0.0
  0
SPLINE
  5
105
100
AcDbEntity
  8
Image
 62
7
100
AcDbSpline
 70
8
 71
3
 72
8
 73
4
 74
0
 40
0
 40
0
 40
0
 40
0
 40
1
 40
1
 40
1
 40
1
 10
10.832776
 20
33.947750
 30
0.0
 10
9.414415
 20
36.817170
 30
0.0
 10
9.365546
 20
37.051910
 30
0.0
 10
9.365546
 20
40.995940
 30
0.0
  0
SPLINE
  5
106
100
AcDbEntity
  8
Image
 62
7
100
AcDbSpline
 70
8
 71
3
 72
8
 73
4
 74
0
 40
0
 40
0
 40
0
 40
0
 40
1
 40
1
 40
1
 40
1
 10
9.365546
 20
40.995940
 30
0.0
 10
9.365546
 20
44.801400
 30
0.0
 10
9.487531
 20
45.452970
 30
0.0
 10
11.178889
 20
50.681700
 30
0.0
  0
SPLINE
  5
107
100
AcDbEntity
  8
Image
 62
7
100
AcDbSpline
 70
8
 71
3
 72
8
 73
4
 74
0
 40
0
 40
0
 40
0
 40
0
 40
1
 40
1
 40
1
 40
1
 10
11.178889
 20
50.681700
 30
0.0
 10
13.876499
 20
59.021220
 30
0.0
 10
14.444665
 20
61.087950
 30
0.0
 10
15.959417
 20
68.071110
 30
0.0
  0
SPLINE
  5
108
100
AcDbEntity
  8
Image
 62
7
100
AcDbSpline
 70
8
 71
3
 72
8
 73
4
 74
0
 40
0
 40
0
 40
0
 40
0
 40
1
 40
1
 40
1
 40
1
 10
15.959417
 20
68.071110
 30
0.0
 10
17.388432
 20
74.659010
 30
0.0
 10
19.553992
 20
87.659340
 30
0.0
 10
20.404394
 20
94.755280
 30
0.0
  0
SPLINE
  5
109
100
AcDbEntity
  8
Image
 62
7
100
AcDbSpline
 70
8
 71
3
 72
8
 73
4
 74
0
 40
0
 40
0
 40
0
 40
0
 40
1
 40
1
 40
1
 40
1
 10
18.704557
 20
101.714270
 30
0.0
 10
17.502076
 20
103.309040
 30
0.0
 10
15.649931
 20
106.353590
 30
0.0
 10
14.588680
 20
108.479950
 30
0.0
  0
SPLINE
  5
10a
100
AcDbEntity
  8
Image
 62
7
100
AcDbSpline
 70
8
 71
3
 72
8
 73
4
 74
0
 40
0
 40
0
 40
0
 40
0
 40
1
 40
1
 40
1
 40
1
 10
14.588680
 20
108.479950
 30
0.0
 10
9.490315
 20
118.695200
 30
0.0
 10
9.013691
 20
125.569183
 30
0.0
 10
13.170773
 20
128.929353
 30
0.0
  0
SPLINE
  5
10b
100
AcDbEntity
  8
Image
 62
7
100
AcDbSpline
 70
8
 71
3
 72
8
 73
4
 74
0
 40
0
 40
0
 40
0
 40
0
 40
1
 40
1
 40
1
 40
1
 10
13.170773
 20
128.929353
 30
0.0
 10
14.523102
 20
130.022443
 30
0.0
 10
14.904512
 20
130.130133
 30
0.0
 10
17.423487
 20
130.130133
 30
0.0
  0
SPLINE
  5
10c
100
AcDbEntity
  8
Image
 62
7
100
AcDbSpline
 70
8
 71
3
 72
8
 73
4
 74
0
 40
0
 40
0
 40
0
 40
0
 40
1
 40
1
 40
1
 40
1
 10
17.423487
 20
130.130133
 30
0.0
 10
19.684037
 20
130.130133
 30
0.0
 10
20.602041
 20
129.928123
 30
0.0
 10
22.437818
 20
129.026703
 30
0.0
  0
SPLINE
  5
10d
100
AcDbEntity
  8
Image
 62
7
100
AcDbSpline
 70
8
 71
3
 72
8
 73
4
 74
0
 40
0
 40
0
 40
0
 40
0
 40
1
 40
1
 40
1
 40
1
 10
22.437818
 20
129.026703
 30
0.0
 10
23.673770
 20
128.419803
 30
0.0
 10
24.727918
 20
127.984873
 30
0.0
 10
24.780370
 20
128.060173
 30
0.0
  0
SPLINE
  5
10e
100
AcDbEntity
  8
Image
 62
7
100
AcDbSpline
 70
8
 71
3
 72
8
 73
4
 74
0
 40
0
 40
0
 40
0
 40
0
 40
1
 40
1
 40
1
 40
1
 10
24.780370
 20
128.060173
 30
0.0
 10
24.832820
 20
128.135473
 30
0.0
 10
25.270147
 20
130.632723
 30
0.0
 10
25.752207
 20
133.609623
 30
0.0
  0
SPLINE
  5
10f
100
AcDbEntity
  8
Image
 62
7
100
AcDbSpline
 70
8
 71
3
 72
8
 73
4
 74
0
 40
0
 40
0
 40
0
 40
0
 40
1
 40
1
 40
1
 40
1
 10
25.752207
 20
133.609623
 30
0.0
 10
26.644074
 20
139.117273
 30
0.0
 10
26.901321
 20
140.349023
 30
0.0
 10
28.941526
 20
148.880735
 30
0.0
  0
SPLINE
  5
110
100
AcDbEntity
  8
Image
 62
7
100
AcDbSpline
 70
8
 71
3
 72
8
 73
4
 74
0
 40
0
 40
0
 40
0
 40
0
 40
1
 40
1
 40
1
 40
1
 10
28.941526
 20
148.880735
 30
0.0
 10
32.126531
 20
162.199748
 30
0.0
 10
38.040815
 20
176.545512
 30
0.0
 10
44.083255
 20
185.608718
 30
0.0
  0
SPLINE
  5
111
100
AcDbEntity
  8
Image
 62
7
100
AcDbSpline
 70
8
 71
3
 72
8
 73
4
 74
0
 40
0
 40
0
 40
0
 40
0
 40
1
 40
1
 40
1
 40
1
 10
44.083255
 20
185.608718
 30
0.0
 10
51.585329
 20
196.861267
 30
0.0
 10
60.753491
 20
203.530995
 30
0.0
 10
71.225927
 20
205.354690
 30
0.0
  0
SPLINE
  5
112
100
AcDbEntity
  8
Image
 62
7
100
AcDbSpline
 70
8
 71
3
 72
8
 73
4
 74
0
 40
0
 40
0
 40
0
 40
0
 40
1
 40
1
 40
1
 40
1
 10
71.225927
 20
205.354690
 30
0.0
 10
75.092869
 20
206.028088
 30
0.0
 10
83.944027
 20
205.609536
 30
0.0
 10
87.847446
 20
204.568692
 30
0.0
  0
SPLINE
  5
113
100
AcDbEntity
  8
Image
 62
7
100
AcDbSpline
 70
8
 71
3
 72
8
 73
4
 74
0
 40
0
 40
0
 40
0
 40
0
 40
1
 40
1
 40
1
 40
1
 10
87.847446
 20
204.568692
 30
0.0
 10
95.671336
 20
202.482462
 30
0.0
 10
103.162030
 20
198.540212
 30
0.0
 10
110.270850
 20
192.767569
 30
0.0
  0
SPLINE
  5
114
100
AcDbEntity
  8
Image
 62
7
100
AcDbSpline
 70
8
 71
3
 72
8
 73
4
 74
0
 40
0
 40
0
 40
0
 40
0
 40
1
 40
1
 40
1
 40
1
 10
110.270850
 20
192.767569
 30
0.0
 10
115.962450
 20
188.145764
 30
0.0
 10
125.430110
 20
178.299818
 30
0.0
 10
129.214760
 20
173.066738
 30
0.0
  0
SPLINE
  5
115
100
AcDbEntity
  8
Image
 62
7
100
AcDbSpline
 70
8
 71
3
 72
8
 73
4
 74
0
 40
0
 40
0
 40
0
 40
0
 40
1
 40
1
 40
1
 40
1
 10
129.214760
 20
173.066738
 30
0.0
 10
130.222030
 20
171.673959
 30
0.0
 10
133.003880
 20
168.073217
 30
0.0
 10
133.264670
 20
167.824642
 30
0.0
  0
SPLINE
  5
116
100
AcDbEntity
  8
Image
 62
7
100
AcDbSpline
 70
8
 71
3
 72
8
 73
4
 74
0
 40
0
 40
0
 40
0
 40
0
 40
1
 40
1
 40
1
 40
1
 10
133.264670
 20
167.824642
 30
0.0
 10
134.503920
 20
166.643416
 30
0.0
 10
142.053890
 20
154.328310
 30
0.0
 10
144.689070
 20
149.189779
 30
0.0
  0
SPLINE
  5
117
100
AcDbEntity
  8
Image
 62
7
100
AcDbSpline
 70
8
 71
3
 72
8
 73
4
 74
0
 40
0
 40
0
 40
0
 40
0
 40
1
 40
1
 40
1
 40
1
 10
144.689070
 20
149.189779
 30
0.0
 10
145.805600
 20
147.646530
 30
0.0
 10
145.746310
 20
145.064051
 30
0.0
 10
146.800630
 20
147.643338
 30
0.0
  0
SPLINE
  5
118
100
AcDbEntity
  8
Image
 62
7
100
AcDbSpline
 70
8
 71
3
 72
8
 73
4
 74
0
 40
0
 40
0
 40
0
 40
0
 40
1
 40
1
 40
1
 40
1
 10
146.800630
 20
147.643338
 30
0.0
 10
148.218230
 20
151.111380
 30
0.0
 10
150.445480
 20
154.743008
 30
0.0
 10
151.484250
 20
155.280177
 30
0.0
  0
SPLINE
  5
119
100
AcDbEntity
  8
Image
 62
7
100
AcDbSpline
 70
8
 71
3
 72
8
 73
4
 74
0
 40
0
 40
0
 40
0
 40
0
 40
1
 40
1
 40
1
 40
1
 10
151.484250
 20
155.280177
 30
0.0
 10
153.904160
 20
156.531564
 30
0.0
 10
157.114440
 20
155.601276
 30
0.0
 10
158.166580
 20
153.343742
 30
0.0
  0
SPLINE
  5
11a
100
AcDbEntity
  8
Image
 62
7
100
AcDbSpline
 70
8
 71
3
 72
8
 73
4
 74
0
 40
0
 40
0
 40
0
 40
0
 40
1
 40
1
 40
1
 40
1
 10
158.166580
 20
153.343742
 30
0.0
 10
158.945600
 20
151.672220
 30
0.0
 10
159.914670
 20
145.578394
 30
0.0
 10
160.202290
 20
140.542543
 30
0.0
  0
SPLINE
  5
11b
100
AcDbEntity
  8
Image
 62
7
100
AcDbSpline
 70
8
 71
3
 72
8
 73
4
 74
0
 40
0
 40
0
 40
0
 40
0
 40
1
 40
1
 40
1
 40
1
 10
160.202290
 20
140.542543
 30
0.0
 10
160.588400
 20
133.782193
 30
0.0
 10
159.385800
 20
126.419263
 30
0.0
 10
157.190750
 20
122.104350
 30
0.0
  0
LWPOLYLINE
  5
11c
100
AcDbEntity
  8
Image
 62
7
100
AcDbPolyline
 90
3
 70
0
 10
20.404394
 20
94.755280
 30
0.0
 10
20.890886
 20
98.814690
 30
0.0
 10
18.704557
 20
101.714270
 30
0.0
  0
SPLINE
  5
11d
100
AcDbEntity
  8
Image
 62
7
100
AcDbSpline
 70
8
 71
3
 72
8
 73
4
 74
0
 40
0
 40
0
 40
0
 40
0
 40
1
 40
1
 40
1
 40
1
 10
157.983070
 20
114.952060
 30
0.0
 10
162.346240
 20
98.718180
 30
0.0
 10
164.143330
 20
81.987480
 30
0.0
 10
163.391580
 20
64.599680
 30
0.0
  0
SPLINE
  5
11e
100
AcDbEntity
  8
Image
 62
7
100
AcDbSpline
 70
8
 71
3
 72
8
 73
4
 74
0
 40
0
 40
0
 40
0
 40
0
 40
1
 40
1
 40
1
 40
1
 10
163.391580
 20
64.599680
 30
0.0
 10
162.715810
 20
48.969120
 30
0.0
 10
160.658560
 20
37.292630
 30
0.0
 10
157.431460
 20
30.771270
 30
0.0
  0
SPLINE
  5
11f
100
AcDbEntity
  8
Image
 62
7
100
AcDbSpline
 70
8
 71
3
 72
8
 73
4
 74
0
 40
0
 40
0
 40
0
 40
0
 40
1
 40
1
 40
1
 40
1
 10
157.431460
 20
30.771270
 30
0.0
 10
154.821660
 20
25.497380
 30
0.0
 10
151.799200
 20
22.559140
 30
0.0
 10
147.296750
 20
20.919000
 30
0.0
  0
SPLINE
  5
120
100
AcDbEntity
  8
Image
 62
7
100
AcDbSpline
 70
8
 71
3
 72
8
 73
4
 74
0
 40
0
 40
0
 40
0
 40
0
 40
1
 40
1
 40
1
 40
1
 10
147.296750
 20
20.919000
 30
0.0
 10
145.276470
 20
20.183050
 30
0.0
 10
144.373160
 20
20.073270
 30
0.0
 10
141.690900
 20
20.237660
 30
0.0
  0
SPLINE
  5
121
100
AcDbEntity
  8
Image
 62
7
100
AcDbSpline
 70
8
 71
3
 72
8
 73
4
 74
0
 40
0
 40
0
 40
0
 40
0
 40
1
 40
1
 40
1
 40
1
 10
141.690900
 20
20.237660
 30
0.0
 10
136.497420
 20
20.555960
 30
0.0
 10
134.739360
 20
21.835580
 30
0.0
 10
130.224530
 20
28.583490
 30
0.0
  0
SPLINE
  5
122
100
AcDbEntity
  8
Image
 62
7
100
AcDbSpline
 70
8
 71
3
 72
8
 73
4
 74
0
 40
0
 40
0
 40
0
 40
0
 40
1
 40
1
 40
1
 40
1
 10
130.224530
 20
28.583490
 30
0.0
 10
127.375690
 20
32.841430
 30
0.0
 10
125.749150
 20
34.390720
 30
0.0
 10
123.149950
 20
35.322100
 30
0.0
  0
SPLINE
  5
123
100
AcDbEntity
  8
Image
 62
7
100
AcDbSpline
 70
8
 71
3
 72
8
 73
4
 74
0
 40
0
 40
0
 40
0
 40
0
 40
1
 40
1
 40
1
 40
1
 10
123.149950
 20
35.322100
 30
0.0
 10
119.495710
 20
36.631520
 30
0.0
 10
116.970830
 20
34.962710
 30
0.0
 10
113.924930
 20
29.224830
 30
0.0
  0
SPLINE
  5
124
100
AcDbEntity
  8
Image
 62
7
100
AcDbSpline
 70
8
 71
3
 72
8
 73
4
 74
0
 40
0
 40
0
 40
0
 40
0
 40
1
 40
1
 40
1
 40
1
 10
113.924930
 20
29.224830
 30
0.0
 10
113.021930
 20
27.523740
 30
0.0
 10
112.047820
 20
25.857290
 30
0.0
 10
111.760240
 20
25.521590
 30
0.0
  0
SPLINE
  5
125
100
AcDbEntity
  8
Image
 62
7
100
AcDbSpline
 70
8
 71
3
 72
8
 73
4
 74
0
 40
0
 40
0
 40
0
 40
0
 40
1
 40
1
 40
1
 40
1
 10
111.760240
 20
25.521590
 30
0.0
 10
111.472660
 20
25.185890
 30
0.0
 10
111.237380
 20
24.745020
 30
0.0
 10
111.237380
 20
24.541860
 30
0.0
  0
SPLINE
  5
126
100
AcDbEntity
  8
Image
 62
7
100
AcDbSpline
 70
8
 71
3
 72
8
 73
4
 74
0
 40
0
 40
0
 40
0
 40
0
 40
1
 40
1
 40
1
 40
1
 10
111.237380
 20
24.541860
 30
0.0
 10
111.237380
 20
23.829150
 30
0.0
 10
107.156330
 20
20.206610
 30
0.0
 10
105.051610
 20
19.051060
 30
0.0
  0
SPLINE
  5
127
100
AcDbEntity
  8
Image
 62
7
100
AcDbSpline
 70
8
 71
3
 72
8
 73
4
 74
0
 40
0
 40
0
 40
0
 40
0
 40
1
 40
1
 40
1
 40
1
 10
105.051610
 20
19.051060
 30
0.0
 10
103.882110
 20
18.408980
 30
0.0
 10
101.980310
 20
17.608310
 30
0.0
 10
100.825380
 20
17.271820
 30
0.0
  0
SPLINE
  5
128
100
AcDbEntity
  8
Image
 62
7
100
AcDbSpline
 70
8
 71
3
 72
8
 73
4
 74
0
 40
0
 40
0
 40
0
 40
0
 40
1
 40
1
 40
1
 40
1
 10
100.825380
 20
17.271820
 30
0.0
 10
98.220736
 20
16.512930
 30
0.0
 10
93.209236
 20
16.516730
 30
0.0
 10
90.369786
 20
17.279820
 30
0.0
  0
LWPOLYLINE
  5
129
100
AcDbEntity
  8
Image
 62
7
100
AcDbPolyline
 90
3
 70
0
 10
157.190750
 20
122.104350
 30
0.0
 10
156.451380
 20
120.650950
 30
0.0
 10
157.983070
 20
114.952060
 30
0.0
  0
LWPOLYLINE
  5
12a
100
AcDbEntity
  8
Image
 62
7
100
AcDbPolyline
 90
1
 70
1
 10
90.369786
 20
17.279820
 30
0.0
  0
ENDSEC
  0
SECTION
  2
OBJECTS
  0
DICTIONARY
  5
C
330
0
100
AcDbDictionary
  3
ACAD_GROUP
350
D
  3
ACAD_MLINESTYLE
350
17
  0
DICTIONARY
  5
D
330
C
100
AcDbDictionary
  0
DICTIONARY
  5
1A
330
C
100
AcDbDictionary
  0
DICTIONARY
  5
17
330
C
100
AcDbDictionary
  3
STANDARD
350
18
  0
DICTIONARY
  5
19
330
C
100
AcDbDictionary
  0
ENDSEC
  0
EOF
