  0
SECTION
  2
HEADER
  9
$ACADVER
  1
AC1014
  9
$HANDSEED
  5
FFFF
  9
$INSUNITS
 70
     0
  9
$MEASUREMENT
 70
     1
  0
ENDSEC
  0
SECTION
  2
TABLES
  0
TABLE
  2
VPORT
  5
8
330
0
100
AcDbSymbolTable
 70
     4
  0
VPORT
  5
2E
330
8
100
AcDbSymbolTableRecord
100
AcDbViewportTableRecord
  2
*ACTIVE
 70
     0
 10
0.0
 20
0.0
 11
1.0
 21
1.0
 12
210.0
 22
148.5
 13
0.0
 23
0.0
 14
10.0
 24
10.0
 15
10.0
 25
10.0
 16
0.0
 26
0.0
 36
1.0
 17
0.0
 27
0.0
 37
0.0
 40
341.0
 41
1.24
 42
50.0
 43
0.0
 44
0.0
 50
0.0
 51
0.0
 71
     0
 72
   100
 73
     1
 74
     3
 75
     0
 76
     0
 77
     0
 78
     0
  0
ENDTAB
  0
TABLE
  2
LTYPE
  5
5
330
0
100
AcDbSymbolTable
 70
     1
  0
LTYPE
  5
14
330
5
100
AcDbSymbolTableRecord
100
AcDbLinetypeTableRecord
  2
BYBLOCK
 70
     0
  3

 72
    65
 73
     0
 40
0.0
  0
LTYPE
  5
15
330
5
100
AcDbSymbolTableRecord
100
AcDbLinetypeTableRecord
  2
BYLAYER
 70
     0
  3

 72
    65
 73
     0
 40
0.0
  0
LTYPE
  5
16
330
5
100
AcDbSymbolTableRecord
100
AcDbLinetypeTableRecord
  2
CONTINUOUS
 70
     0
  3
Solid line
 72
    65
 73
     0
 40
0.0
  0
ENDTAB
  0
TABLE
  2
LAYER
  5
2
100
AcDbSymbolTable
 70
2
  0
LAYER
  5
50
100
AcDbSymbolTableRecord
100
AcDbLayerTableRecord
  2
0
 70
0
  6
CONTINUOUS
  0
LAYER
  5
51
100
AcDbSymbolTableRecord
100
AcDbLayerTableRecord
  2
Image
 70
0
  6
CONTINUOUS
  0
ENDTAB
  0
TABLE
  2
STYLE
  5
3
330
0
100
AcDbSymbolTable
 70
     1
  0
STYLE
  5
11
330
3
100
AcDbSymbolTableRecord
100
AcDbTextStyleTableRecord
  2
STANDARD
 70
     0
 40
0.0
 41
1.0
 50
0.0
 71
     0
 42
2.5
  3
txt
  4

  0
ENDTAB
  0
TABLE
  2
VIEW
  5
6
330
0
100
AcDbSymbolTable
 70
     0
  0
ENDTAB
  0
TABLE
  2
UCS
  5
7
330
0
100
AcDbSymbolTable
 70
     0
  0
ENDTAB
  0
TABLE
  2
APPID
  5
9
330
0
100
AcDbSymbolTable
 70
     2
  0
APPID
  5
12
330
9
100
AcDbSymbolTableRecord
100
AcDbRegAppTableRecord
  2
ACAD
 70
     0
  0
ENDTAB
  0
TABLE
  2
DIMSTYLE
  5
A
330
0
100
AcDbSymbolTable
 70
     1
  0
DIMSTYLE
105
27
330
A
100
AcDbSymbolTableRecord
100
AcDbDimStyleTableRecord
  2
ISO-25
 70
     0
  3

  4

  5

  6

  7

 40
1.0
 41
2.5
 42
0.625
 43
3.75
 44
1.25
 45
0.0
 46
0.0
 47
0.0
 48
0.0
140
2.5
141
2.5
142
0.0
143
0.03937007874016
144
1.0
145
0.0
146
1.0
147
0.625
 71
     0
 72
     0
 73
     0
 74
     0
 75
     0
 76
     0
 77
     1
 78
     8
170
     0
171
     3
172
     1
173
     0
174
     0
175
     0
176
     0
177
     0
178
     0
270
     2
271
     2
272
     2
273
     2
274
     3
340
11
275
     0
280
     0
281
     0
282
     0
283
     0
284
     8
285
     0
286
     0
287
     3
288
     0
  0
ENDTAB
  0
TABLE
  2
BLOCK_RECORD
  5
1
330
0
100
AcDbSymbolTable
 70
     1
  0
BLOCK_RECORD
  5
1F
330
1
100
AcDbSymbolTableRecord
100
AcDbBlockTableRecord
  2
*MODEL_SPACE
  0
BLOCK_RECORD
  5
1B
330
1
100
AcDbSymbolTableRecord
100
AcDbBlockTableRecord
  2
*PAPER_SPACE
  0
ENDTAB
  0
ENDSEC
  0
SECTION
  2
BLOCKS
  0
BLOCK
  5
20
330
1F
100
AcDbEntity
  8
0
100
AcDbBlockBegin
  2
*MODEL_SPACE
 70
     0
 10
0.0
 20
0.0
 30
0.0
  3
*MODEL_SPACE
  1

  0
ENDBLK
  5
21
330
1F
100
AcDbEntity
  8
0
100
AcDbBlockEnd
  0
BLOCK
  5
1C
330
1B
100
AcDbEntity
 67
     1
  8
0
100
AcDbBlockBegin
  2
*PAPER_SPACE
  1

  0
ENDBLK
  5
1D
330
1B
100
AcDbEntity
 67
     1
  8
0
100
AcDbBlockEnd
  0
ENDSEC
  0
SECTION
  2
ENTITIES
  0
SPLINE
  5
100
100
AcDbEntity
  8
Image
 62
7
100
AcDbSpline
 70
8
 71
3
 72
8
 73
4
 74
0
 40
0
 40
0
 40
0
 40
0
 40
1
 40
1
 40
1
 40
1
 10
95.199745
 20
15.883660
 30
0.0
 10
89.255345
 20
17.482190
 30
0.0
 10
85.026725
 20
21.127180
 30
0.0
 10
81.109745
 20
28.028950
 30
0.0
  0
SPLINE
  5
101
100
AcDbEntity
  8
Image
 62
7
100
AcDbSpline
 70
8
 71
3
 72
8
 73
4
 74
0
 40
0
 40
0
 40
0
 40
0
 40
1
 40
1
 40
1
 40
1
 10
81.109745
 20
28.028950
 30
0.0
 10
76.854922
 20
35.526010
 30
0.0
 10
74.987846
 20
36.937330
 30
0.0
 10
69.317734
 20
36.942480
 30
0.0
  0
SPLINE
  5
102
100
AcDbEntity
  8
Image
 62
7
100
AcDbSpline
 70
8
 71
3
 72
8
 73
4
 74
0
 40
0
 40
0
 40
0
 40
0
 40
1
 40
1
 40
1
 40
1
 10
69.317734
 20
36.942480
 30
0.0
 10
66.176581
 20
36.945480
 30
0.0
 10
63.750263
 20
36.148080
 30
0.0
 10
61.095270
 20
34.240650
 30
0.0
  0
SPLINE
  5
103
100
AcDbEntity
  8
Image
 62
7
100
AcDbSpline
 70
8
 71
3
 72
8
 73
4
 74
0
 40
0
 40
0
 40
0
 40
0
 40
1
 40
1
 40
1
 40
1
 10
61.095270
 20
34.240650
 30
0.0
 10
55.941865
 20
30.538300
 30
0.0
 10
47.549224
 20
26.117880
 30
0.0
 10
42.094575
 20
24.232940
 30
0.0
  0
SPLINE
  5
104
100
AcDbEntity
  8
Image
 62
7
100
AcDbSpline
 70
8
 71
3
 72
8
 73
4
 74
0
 40
0
 40
0
 40
0
 40
0
 40
1
 40
1
 40
1
 40
1
 10
42.094575
 20
24.232940
 30
0.0
 10
36.099259
 20
22.161170
 30
0.0
 10
27.754624
 20
21.659650
 30
0.0
 10
22.489864
 20
23.054690
 30
0.0
  0
SPLINE
  5
105
100
AcDbEntity
  8
Image
 62
7
100
AcDbSpline
 70
8
 71
3
 72
8
 73
4
 74
0
 40
0
 40
0
 40
0
 40
0
 40
1
 40
1
 40
1
 40
1
 10
22.489864
 20
23.054690
 30
0.0
 10
13.308579
 20
25.487520
 30
0.0
 10
7.116143
 20
31.373250
 30
0.0
 10
5.660110
 20
39.050880
 30
0.0
  0
SPLINE
  5
106
100
AcDbEntity
  8
Image
 62
7
100
AcDbSpline
 70
8
 71
3
 72
8
 73
4
 74
0
 40
0
 40
0
 40
0
 40
0
 40
1
 40
1
 40
1
 40
1
 10
5.660110
 20
39.050880
 30
0.0
 10
5.045274
 20
42.292900
 30
0.0
 10
5.437942
 20
44.814820
 30
0.0
 10
7.592280
 20
51.460340
 30
0.0
  0
SPLINE
  5
107
100
AcDbEntity
  8
Image
 62
7
100
AcDbSpline
 70
8
 71
3
 72
8
 73
4
 74
0
 40
0
 40
0
 40
0
 40
0
 40
1
 40
1
 40
1
 40
1
 10
7.592280
 20
51.460340
 30
0.0
 10
11.600786
 20
63.825430
 30
0.0
 10
14.570459
 20
77.644640
 30
0.0
 10
17.167808
 20
96.019590
 30
0.0
  0
SPLINE
  5
108
100
AcDbEntity
  8
Image
 62
7
100
AcDbSpline
 70
8
 71
3
 72
8
 73
4
 74
0
 40
0
 40
0
 40
0
 40
0
 40
1
 40
1
 40
1
 40
1
 10
16.127450
 20
108.592170
 30
0.0
 10
11.862623
 20
114.252900
 30
0.0
 10
7.447472
 20
124.017415
 30
0.0
 10
6.770766
 20
129.285325
 30
0.0
  0
SPLINE
  5
109
100
AcDbEntity
  8
Image
 62
7
100
AcDbSpline
 70
8
 71
3
 72
8
 73
4
 74
0
 40
0
 40
0
 40
0
 40
0
 40
1
 40
1
 40
1
 40
1
 10
6.770766
 20
129.285325
 30
0.0
 10
6.428552
 20
131.949345
 30
0.0
 10
7.055669
 20
135.017295
 30
0.0
 10
8.281289
 20
136.675035
 30
0.0
  0
SPLINE
  5
10a
100
AcDbEntity
  8
Image
 62
7
100
AcDbSpline
 70
8
 71
3
 72
8
 73
4
 74
0
 40
0
 40
0
 40
0
 40
0
 40
1
 40
1
 40
1
 40
1
 10
8.281289
 20
136.675035
 30
0.0
 10
8.778966
 20
137.348195
 30
0.0
 10
10.137039
 20
138.307995
 30
0.0
 10
11.299226
 20
138.807955
 30
0.0
  0
SPLINE
  5
10b
100
AcDbEntity
  8
Image
 62
7
100
AcDbSpline
 70
8
 71
3
 72
8
 73
4
 74
0
 40
0
 40
0
 40
0
 40
0
 40
1
 40
1
 40
1
 40
1
 10
11.299226
 20
138.807955
 30
0.0
 10
14.365236
 20
140.126915
 30
0.0
 10
17.275293
 20
139.521435
 30
0.0
 10
20.895561
 20
136.811285
 30
0.0
  0
SPLINE
  5
10c
100
AcDbEntity
  8
Image
 62
7
100
AcDbSpline
 70
8
 71
3
 72
8
 73
4
 74
0
 40
0
 40
0
 40
0
 40
0
 40
1
 40
1
 40
1
 40
1
 10
20.895561
 20
136.811285
 30
0.0
 10
22.518043
 20
135.596685
 30
0.0
 10
22.470054
 20
135.521945
 30
0.0
 10
23.132894
 20
140.295785
 30
0.0
  0
SPLINE
  5
10d
100
AcDbEntity
  8
Image
 62
7
100
AcDbSpline
 70
8
 71
3
 72
8
 73
4
 74
0
 40
0
 40
0
 40
0
 40
0
 40
1
 40
1
 40
1
 40
1
 10
23.132894
 20
140.295785
 30
0.0
 10
24.604981
 20
150.897935
 30
0.0
 10
29.360871
 20
169.819048
 30
0.0
 10
32.741026
 20
178.521345
 30
0.0
  0
SPLINE
  5
10e
100
AcDbEntity
  8
Image
 62
7
100
AcDbSpline
 70
8
 71
3
 72
8
 73
4
 74
0
 40
0
 40
0
 40
0
 40
0
 40
1
 40
1
 40
1
 40
1
 10
32.741026
 20
178.521345
 30
0.0
 10
35.976439
 20
186.851003
 30
0.0
 10
42.073061
 20
198.558046
 30
0.0
 10
45.415089
 20
202.858727
 30
0.0
  0
SPLINE
  5
10f
100
AcDbEntity
  8
Image
 62
7
100
AcDbSpline
 70
8
 71
3
 72
8
 73
4
 74
0
 40
0
 40
0
 40
0
 40
0
 40
1
 40
1
 40
1
 40
1
 10
45.415089
 20
202.858727
 30
0.0
 10
46.916831
 20
204.791244
 30
0.0
 10
47.358363
 20
204.691376
 30
0.0
 10
46.206613
 20
202.679694
 30
0.0
  0
SPLINE
  5
110
100
AcDbEntity
  8
Image
 62
7
100
AcDbSpline
 70
8
 71
3
 72
8
 73
4
 74
0
 40
0
 40
0
 40
0
 40
0
 40
1
 40
1
 40
1
 40
1
 10
46.206613
 20
202.679694
 30
0.0
 10
44.874553
 20
200.353088
 30
0.0
 10
40.974524
 20
188.809049
 30
0.0
 10
40.249150
 20
185.045669
 30
0.0
  0
SPLINE
  5
111
100
AcDbEntity
  8
Image
 62
7
100
AcDbSpline
 70
8
 71
3
 72
8
 73
4
 74
0
 40
0
 40
0
 40
0
 40
0
 40
1
 40
1
 40
1
 40
1
 10
40.249150
 20
185.045669
 30
0.0
 10
40.023244
 20
183.873648
 30
0.0
 10
39.246152
 20
179.979854
 30
0.0
 10
38.522273
 20
176.392789
 30
0.0
  0
SPLINE
  5
112
100
AcDbEntity
  8
Image
 62
7
100
AcDbSpline
 70
8
 71
3
 72
8
 73
4
 74
0
 40
0
 40
0
 40
0
 40
0
 40
1
 40
1
 40
1
 40
1
 10
38.522273
 20
176.392789
 30
0.0
 10
37.195486
 20
169.818143
 30
0.0
 10
35.964953
 20
161.787079
 30
0.0
 10
35.081067
 20
153.933845
 30
0.0
  0
SPLINE
  5
113
100
AcDbEntity
  8
Image
 62
7
100
AcDbSpline
 70
8
 71
3
 72
8
 73
4
 74
0
 40
0
 40
0
 40
0
 40
0
 40
1
 40
1
 40
1
 40
1
 10
35.081067
 20
153.933845
 30
0.0
 10
34.817242
 20
151.589805
 30
0.0
 10
34.336369
 20
147.754095
 30
0.0
 10
34.012456
 20
145.410055
 30
0.0
  0
SPLINE
  5
114
100
AcDbEntity
  8
Image
 62
7
100
AcDbSpline
 70
8
 71
3
 72
8
 73
4
 74
0
 40
0
 40
0
 40
0
 40
0
 40
1
 40
1
 40
1
 40
1
 10
34.012456
 20
145.410055
 30
0.0
 10
33.688544
 20
143.066015
 30
0.0
 10
33.204811
 20
139.422095
 30
0.0
 10
32.937495
 20
137.312455
 30
0.0
  0
SPLINE
  5
115
100
AcDbEntity
  8
Image
 62
7
100
AcDbSpline
 70
8
 71
3
 72
8
 73
4
 74
0
 40
0
 40
0
 40
0
 40
0
 40
1
 40
1
 40
1
 40
1
 10
32.937495
 20
137.312455
 30
0.0
 10
32.451835
 20
133.479635
 30
0.0
 10
31.544862
 20
127.694295
 30
0.0
 10
30.799444
 20
123.674400
 30
0.0
  0
SPLINE
  5
116
100
AcDbEntity
  8
Image
 62
7
100
AcDbSpline
 70
8
 71
3
 72
8
 73
4
 74
0
 40
0
 40
0
 40
0
 40
0
 40
1
 40
1
 40
1
 40
1
 10
30.799444
 20
123.674400
 30
0.0
 10
30.582113
 20
122.502380
 30
0.0
 10
29.908184
 20
118.666680
 30
0.0
 10
29.301819
 20
115.150620
 30
0.0
  0
SPLINE
  5
117
100
AcDbEntity
  8
Image
 62
7
100
AcDbSpline
 70
8
 71
3
 72
8
 73
4
 74
0
 40
0
 40
0
 40
0
 40
0
 40
1
 40
1
 40
1
 40
1
 10
29.301819
 20
115.150620
 30
0.0
 10
28.695458
 20
111.634550
 30
0.0
 10
27.537296
 20
105.881000
 30
0.0
 10
26.728129
 20
102.364930
 30
0.0
  0
SPLINE
  5
118
100
AcDbEntity
  8
Image
 62
7
100
AcDbSpline
 70
8
 71
3
 72
8
 73
4
 74
0
 40
0
 40
0
 40
0
 40
0
 40
1
 40
1
 40
1
 40
1
 10
26.728129
 20
102.364930
 30
0.0
 10
25.918962
 20
98.848870
 30
0.0
 10
25.145236
 20
95.300840
 30
0.0
 10
25.008736
 20
94.480430
 30
0.0
  0
SPLINE
  5
119
100
AcDbEntity
  8
Image
 62
7
100
AcDbSpline
 70
8
 71
3
 72
8
 73
4
 74
0
 40
0
 40
0
 40
0
 40
0
 40
1
 40
1
 40
1
 40
1
 10
25.008736
 20
94.480430
 30
0.0
 10
24.872237
 20
93.660020
 30
0.0
 10
24.498004
 20
92.125730
 30
0.0
 10
24.177105
 20
91.070910
 30
0.0
  0
SPLINE
  5
11a
100
AcDbEntity
  8
Image
 62
7
100
AcDbSpline
 70
8
 71
3
 72
8
 73
4
 74
0
 40
0
 40
0
 40
0
 40
0
 40
1
 40
1
 40
1
 40
1
 10
24.177105
 20
91.070910
 30
0.0
 10
23.102383
 20
87.538200
 30
0.0
 10
20.697741
 20
76.896260
 30
0.0
 10
19.121288
 20
68.695970
 30
0.0
  0
SPLINE
  5
11b
100
AcDbEntity
  8
Image
 62
7
100
AcDbSpline
 70
8
 71
3
 72
8
 73
4
 74
0
 40
0
 40
0
 40
0
 40
0
 40
1
 40
1
 40
1
 40
1
 10
19.121288
 20
68.695970
 30
0.0
 10
16.866078
 20
56.964980
 30
0.0
 10
17.276989
 20
48.743740
 30
0.0
 10
20.429800
 20
42.516140
 30
0.0
  0
SPLINE
  5
11c
100
AcDbEntity
  8
Image
 62
7
100
AcDbSpline
 70
8
 71
3
 72
8
 73
4
 74
0
 40
0
 40
0
 40
0
 40
0
 40
1
 40
1
 40
1
 40
1
 10
20.429800
 20
42.516140
 30
0.0
 10
21.529986
 20
40.342990
 30
0.0
 10
25.059189
 20
36.560330
 30
0.0
 10
26.846214
 20
35.638910
 30
0.0
  0
SPLINE
  5
11d
100
AcDbEntity
  8
Image
 62
7
100
AcDbSpline
 70
8
 71
3
 72
8
 73
4
 74
0
 40
0
 40
0
 40
0
 40
0
 40
1
 40
1
 40
1
 40
1
 10
26.846214
 20
35.638910
 30
0.0
 10
27.497474
 20
35.303120
 30
0.0
 10
28.126218
 20
34.922930
 30
0.0
 10
28.243420
 20
34.794060
 30
0.0
  0
SPLINE
  5
11e
100
AcDbEntity
  8
Image
 62
7
100
AcDbSpline
 70
8
 71
3
 72
8
 73
4
 74
0
 40
0
 40
0
 40
0
 40
0
 40
1
 40
1
 40
1
 40
1
 10
28.243420
 20
34.794060
 30
0.0
 10
28.714309
 20
34.276280
 30
0.0
 10
33.893430
 20
33.109160
 30
0.0
 10
35.720210
 20
33.109160
 30
0.0
  0
SPLINE
  5
11f
100
AcDbEntity
  8
Image
 62
7
100
AcDbSpline
 70
8
 71
3
 72
8
 73
4
 74
0
 40
0
 40
0
 40
0
 40
0
 40
1
 40
1
 40
1
 40
1
 10
35.720210
 20
33.109160
 30
0.0
 10
41.288208
 20
33.109160
 30
0.0
 10
49.467638
 20
35.657170
 30
0.0
 10
56.371919
 20
39.542460
 30
0.0
  0
SPLINE
  5
120
100
AcDbEntity
  8
Image
 62
7
100
AcDbSpline
 70
8
 71
3
 72
8
 73
4
 74
0
 40
0
 40
0
 40
0
 40
0
 40
1
 40
1
 40
1
 40
1
 10
56.371919
 20
39.542460
 30
0.0
 10
62.903783
 20
43.218180
 30
0.0
 10
67.179553
 20
45.186740
 30
0.0
 10
70.092157
 20
45.859240
 30
0.0
  0
SPLINE
  5
121
100
AcDbEntity
  8
Image
 62
7
100
AcDbSpline
 70
8
 71
3
 72
8
 73
4
 74
0
 40
0
 40
0
 40
0
 40
0
 40
1
 40
1
 40
1
 40
1
 10
70.092157
 20
45.859240
 30
0.0
 10
74.919298
 20
46.973790
 30
0.0
 10
76.923645
 20
46.317500
 30
0.0
 10
80.504965
 20
42.449740
 30
0.0
  0
SPLINE
  5
122
100
AcDbEntity
  8
Image
 62
7
100
AcDbSpline
 70
8
 71
3
 72
8
 73
4
 74
0
 40
0
 40
0
 40
0
 40
0
 40
1
 40
1
 40
1
 40
1
 10
80.504965
 20
42.449740
 30
0.0
 10
85.786365
 20
36.745940
 30
0.0
 10
87.261265
 20
35.537750
 30
0.0
 10
91.745635
 20
33.241690
 30
0.0
  0
SPLINE
  5
123
100
AcDbEntity
  8
Image
 62
7
100
AcDbSpline
 70
8
 71
3
 72
8
 73
4
 74
0
 40
0
 40
0
 40
0
 40
0
 40
1
 40
1
 40
1
 40
1
 10
91.745635
 20
33.241690
 30
0.0
 10
94.775815
 20
31.690200
 30
0.0
 10
97.793445
 20
30.978210
 30
0.0
 10
101.338980
 20
30.978210
 30
0.0
  0
SPLINE
  5
124
100
AcDbEntity
  8
Image
 62
7
100
AcDbSpline
 70
8
 71
3
 72
8
 73
4
 74
0
 40
0
 40
0
 40
0
 40
0
 40
1
 40
1
 40
1
 40
1
 10
101.338980
 20
30.978210
 30
0.0
 10
107.130900
 20
30.978210
 30
0.0
 10
111.665300
 20
32.602550
 30
0.0
 10
118.332320
 20
37.065660
 30
0.0
  0
SPLINE
  5
125
100
AcDbEntity
  8
Image
 62
7
100
AcDbSpline
 70
8
 71
3
 72
8
 73
4
 74
0
 40
0
 40
0
 40
0
 40
0
 40
1
 40
1
 40
1
 40
1
 10
118.332320
 20
37.065660
 30
0.0
 10
123.488300
 20
40.517220
 30
0.0
 10
125.419880
 20
41.313300
 30
0.0
 10
128.638700
 20
41.313300
 30
0.0
  0
SPLINE
  5
126
100
AcDbEntity
  8
Image
 62
7
100
AcDbSpline
 70
8
 71
3
 72
8
 73
4
 74
0
 40
0
 40
0
 40
0
 40
0
 40
1
 40
1
 40
1
 40
1
 10
128.638700
 20
41.313300
 30
0.0
 10
131.998400
 20
41.313300
 30
0.0
 10
133.326130
 20
40.432090
 30
0.0
 10
139.508430
 20
34.099080
 30
0.0
  0
SPLINE
  5
127
100
AcDbEntity
  8
Image
 62
7
100
AcDbSpline
 70
8
 71
3
 72
8
 73
4
 74
0
 40
0
 40
0
 40
0
 40
0
 40
1
 40
1
 40
1
 40
1
 10
139.508430
 20
34.099080
 30
0.0
 10
145.937580
 20
27.513200
 30
0.0
 10
152.777880
 20
22.787720
 30
0.0
 10
157.267370
 20
21.830700
 30
0.0
  0
SPLINE
  5
128
100
AcDbEntity
  8
Image
 62
7
100
AcDbSpline
 70
8
 71
3
 72
8
 73
4
 74
0
 40
0
 40
0
 40
0
 40
0
 40
1
 40
1
 40
1
 40
1
 10
157.267370
 20
21.830700
 30
0.0
 10
158.026500
 20
21.668860
 30
0.0
 10
158.744450
 20
21.379760
 30
0.0
 10
158.862830
 20
21.188240
 30
0.0
  0
SPLINE
  5
129
100
AcDbEntity
  8
Image
 62
7
100
AcDbSpline
 70
8
 71
3
 72
8
 73
4
 74
0
 40
0
 40
0
 40
0
 40
0
 40
1
 40
1
 40
1
 40
1
 10
158.862830
 20
21.188240
 30
0.0
 10
159.231370
 20
20.591910
 30
0.0
 10
155.628050
 20
19.417230
 30
0.0
 10
152.707960
 20
19.181760
 30
0.0
  0
SPLINE
  5
12a
100
AcDbEntity
  8
Image
 62
7
100
AcDbSpline
 70
8
 71
3
 72
8
 73
4
 74
0
 40
0
 40
0
 40
0
 40
0
 40
1
 40
1
 40
1
 40
1
 10
152.707960
 20
19.181760
 30
0.0
 10
147.130590
 20
18.731990
 30
0.0
 10
143.580580
 20
21.091710
 30
0.0
 10
138.863290
 20
28.384400
 30
0.0
  0
SPLINE
  5
12b
100
AcDbEntity
  8
Image
 62
7
100
AcDbSpline
 70
8
 71
3
 72
8
 73
4
 74
0
 40
0
 40
0
 40
0
 40
0
 40
1
 40
1
 40
1
 40
1
 10
138.863290
 20
28.384400
 30
0.0
 10
135.172480
 20
34.090220
 30
0.0
 10
132.040580
 20
36.518670
 30
0.0
 10
128.372770
 20
36.518670
 30
0.0
  0
SPLINE
  5
12c
100
AcDbEntity
  8
Image
 62
7
100
AcDbSpline
 70
8
 71
3
 72
8
 73
4
 74
0
 40
0
 40
0
 40
0
 40
0
 40
1
 40
1
 40
1
 40
1
 10
128.372770
 20
36.518670
 30
0.0
 10
124.564100
 20
36.518670
 30
0.0
 10
122.517180
 20
34.643470
 30
0.0
 10
118.978360
 20
27.912330
 30
0.0
  0
SPLINE
  5
12d
100
AcDbEntity
  8
Image
 62
7
100
AcDbSpline
 70
8
 71
3
 72
8
 73
4
 74
0
 40
0
 40
0
 40
0
 40
0
 40
1
 40
1
 40
1
 40
1
 10
118.978360
 20
27.912330
 30
0.0
 10
115.444460
 20
21.190570
 30
0.0
 10
110.840470
 20
17.361970
 30
0.0
 10
104.491660
 20
15.865440
 30
0.0
  0
SPLINE
  5
12e
100
AcDbEntity
  8
Image
 62
7
100
AcDbSpline
 70
8
 71
3
 72
8
 73
4
 74
0
 40
0
 40
0
 40
0
 40
0
 40
1
 40
1
 40
1
 40
1
 10
104.491660
 20
15.865440
 30
0.0
 10
101.119940
 20
15.070680
 30
0.0
 10
98.201665
 20
15.076390
 30
0.0
 10
95.199745
 20
15.883740
 30
0.0
  0
LWPOLYLINE
  5
12f
100
AcDbEntity
  8
Image
 62
7
100
AcDbPolyline
 90
3
 70
0
 10
17.167808
 20
96.019590
 30
0.0
 10
18.499869
 20
105.443230
 30
0.0
 10
16.127450
 20
108.592170
 30
0.0
  0
LWPOLYLINE
  5
130
100
AcDbEntity
  8
Image
 62
7
100
AcDbPolyline
 90
1
 70
1
 10
95.199745
 20
15.883740
 30
0.0
  0
ENDSEC
  0
SECTION
  2
OBJECTS
  0
DICTIONARY
  5
C
330
0
100
AcDbDictionary
  3
ACAD_GROUP
350
D
  3
ACAD_MLINESTYLE
350
17
  0
DICTIONARY
  5
D
330
C
100
AcDbDictionary
  0
DICTIONARY
  5
1A
330
C
100
AcDbDictionary
  0
DICTIONARY
  5
17
330
C
100
AcDbDictionary
  3
STANDARD
350
18
  0
DICTIONARY
  5
19
330
C
100
AcDbDictionary
  0
ENDSEC
  0
EOF
